<svg width="72" height="72" viewBox="0 0 72 72" fill="none" xmlns="http://www.w3.org/2000/svg">
<g clip-path="url(#clip0)">
<path d="M35.9709 26.2859C23.3674 26.2859 13.1138 36.54 13.1138 49.1429C13.1138 61.7465 23.3674 72 35.9709 72C48.575 72 58.8285 61.7459 58.8285 49.1429C58.8285 36.5394 48.575 26.2859 35.9709 26.2859ZM35.9709 28.5716C46.9281 28.5716 55.8864 37.1898 56.4846 48.0004H15.4578C16.056 37.1893 25.0142 28.5716 35.9709 28.5716ZM35.9709 69.7143C25.0142 69.7143 16.056 61.0961 15.4578 50.2855H56.4846C55.8864 61.0961 46.9281 69.7143 35.9709 69.7143Z" fill="#4171D6"/>
<path d="M36.0699 39.5966L36.0698 39.5967C36.0143 39.6558 35.9274 39.6558 35.872 39.5967L35.8719 39.5967C34.3278 37.953 30.8633 34.0913 27.791 29.442C24.6918 24.7521 22.1141 19.4396 22.1141 14.8574C22.1141 7.20393 28.3181 1 35.9709 1C43.6243 1 49.8282 7.20396 49.8282 14.8574C49.8282 19.4396 47.2505 24.7521 44.1513 29.442C41.0789 34.0913 37.6143 37.953 36.0699 39.5966Z" fill="#D8E7FE" stroke="#4171D6" stroke-width="2"/>
<path d="M31.3995 9.14282C30.7678 9.14282 30.2569 9.65479 30.2569 10.2859V20.5713C30.2569 21.2025 30.7678 21.7145 31.3995 21.7145C32.0312 21.7145 32.5426 21.2025 32.5426 20.5713V10.2859C32.5426 9.65479 32.0312 9.14282 31.3995 9.14282Z" fill="#4171D6"/>
<path d="M38.8279 9.14282H35.9709C35.3392 9.14282 34.8283 9.65479 34.8283 10.2859V20.5713C34.8283 21.2025 35.3392 21.7145 35.9709 21.7145C36.6026 21.7145 37.114 21.2025 37.114 20.5713V17.1431H38.8279C41.0334 17.1431 42.828 15.3484 42.828 13.1429C42.828 10.9374 41.0334 9.14282 38.8279 9.14282ZM38.8279 14.8574H37.114V11.4285H38.8279C39.7733 11.4285 40.5423 12.1976 40.5423 13.1429C40.5423 14.0883 39.7738 14.8574 38.8279 14.8574Z" fill="#4171D6"/>
<path d="M33.6852 53.5712H38.2566C39.4394 53.5712 40.3997 52.6127 40.3997 51.4286V46.8572C40.3997 45.6738 39.44 44.7141 38.2566 44.7141H33.6852C32.5011 44.7141 31.5426 45.6744 31.5426 46.8572V51.4286C31.5426 52.6121 32.5017 53.5712 33.6852 53.5712Z" fill="white" stroke="#4171D6" stroke-width="2"/>
<path d="M11.9713 53.5712H16.5427C17.7261 53.5712 18.6852 52.6121 18.6852 51.4286V46.8572C18.6852 45.6741 17.7259 44.7141 16.5427 44.7141H11.9713C10.7878 44.7141 9.82812 45.6738 9.82812 46.8572V51.4286C9.82812 52.6127 10.7884 53.5712 11.9713 53.5712Z" fill="white" stroke="#4171D6" stroke-width="2"/>
<path d="M55.3997 53.5712H59.9711C61.1539 53.5712 62.1142 52.6127 62.1142 51.4286V46.8572C62.1142 45.6738 61.1545 44.7141 59.9711 44.7141H55.3997C54.2162 44.7141 53.2565 45.6738 53.2565 46.8572V51.4286C53.2565 52.6127 54.2168 53.5712 55.3997 53.5712Z" fill="white" stroke="#4171D6" stroke-width="2"/>
</g>
<defs>
<clipPath id="clip0">
<rect width="72" height="72" fill="white"/>
</clipPath>
</defs>
</svg>
