<svg width="61" height="69" viewBox="0 0 61 69" fill="none" xmlns="http://www.w3.org/2000/svg">
<rect x="1" y="1" width="59" height="59" rx="4" fill="white" stroke="#4171D6" stroke-width="2"/>
<path d="M9 33L5 37L9 41" stroke="#4171D6" stroke-width="2" stroke-linecap="round" stroke-linejoin="round"/>
<path d="M50 33L54 37L50 41" stroke="#4171D6" stroke-width="2" stroke-linecap="round" stroke-linejoin="round"/>
<path d="M45.6847 31.0985L44.4055 25.9816C44.1221 24.8475 43.1858 23.994 42.0304 23.8163C34.9564 22.7279 27.7574 22.7279 20.6834 23.8163C19.5279 23.994 18.5918 24.8473 18.3082 25.9816L17.029 31.0985C16.919 31.5385 17.1293 31.9959 17.535 32.1987L22.6471 34.7547V51.0644C22.6471 51.5988 23.0803 52.0321 23.6148 52.0321H39.0987C39.6332 52.0321 40.0664 51.5988 40.0664 51.0644V34.7548L45.1786 32.1989C45.5844 31.9959 45.7948 31.5385 45.6847 31.0985Z" fill="white" stroke="#4171D6" stroke-width="2"/>
<path d="M24.5461 23.3438C25.8899 25.5489 28.0268 28.3641 30.9304 30.0197C31.0648 30.0964 31.2131 30.1346 31.3615 30.1346C31.51 30.1346 31.6583 30.0964 31.7928 30.0197C34.6962 28.3641 36.8325 25.5496 38.1763 23.3446C33.6431 22.9019 29.0794 22.9018 24.5461 23.3438Z" fill="white" stroke="#4171D6" stroke-width="2"/>
<path d="M1 5C1 2.79086 2.79086 1 5 1H56C58.2091 1 60 2.79086 60 5V14H1V5Z" fill="#D8E7FE" stroke="#4171D6" stroke-width="2"/>
<path d="M35 10.039H42.5581M48.8563 5L53.8954 10.039M53.8954 5L51.3758 7.51951L48.8563 10.039" stroke="#4171D6" stroke-width="2" stroke-linecap="round" stroke-linejoin="round"/>
<path d="M40.0489 39.927C40.3483 39.0057 41.6517 39.0057 41.9511 39.9271L44.3677 47.3647C44.5016 47.7768 44.8855 48.0557 45.3188 48.0557H53.1392C54.1079 48.0557 54.5107 49.2953 53.727 49.8647L47.4001 54.4615C47.0496 54.7161 46.903 55.1675 47.0369 55.5795L49.4535 63.0172C49.7529 63.9385 48.6984 64.7047 47.9147 64.1353L41.5878 59.5385C41.2373 59.2839 40.7627 59.2839 40.4122 59.5385L34.0853 64.1353C33.3016 64.7047 32.2471 63.9385 32.5465 63.0172L34.9631 55.5795C35.097 55.1675 34.9504 54.7161 34.5999 54.4615L28.273 49.8647C27.4893 49.2953 27.8921 48.0557 28.8608 48.0557H36.6812C37.1145 48.0557 37.4984 47.7768 37.6323 47.3647L40.0489 39.927Z" fill="#D8E7FE" stroke="#4171D6" stroke-width="2" stroke-linecap="round" stroke-linejoin="round"/>
</svg>
