<svg width="83" height="71" viewBox="0 0 83 71" fill="none" xmlns="http://www.w3.org/2000/svg">
<rect x="1" y="6" width="59" height="59" rx="4" fill="white" stroke="#4171D6" stroke-width="2"/>
<path fill-rule="evenodd" clip-rule="evenodd" d="M53.039 13L48 18.039L53.039 13Z" fill="white"/>
<path d="M48 13L53.039 18.039M53.039 13L48 18.039" stroke="#4171D6" stroke-width="2" stroke-linecap="round" stroke-linejoin="round"/>
<rect x="23" y="1" width="59" height="59" rx="4" fill="#D8E7FE" stroke="#4171D6" stroke-width="2"/>
<rect x="32" y="37" width="41" height="10" rx="4" fill="#4171D6" stroke="#4171D6" stroke-width="2"/>
<path fill-rule="evenodd" clip-rule="evenodd" d="M75.039 8L70 13.039L75.039 8Z" fill="#D8E7FE"/>
<path d="M70 8L75.039 13.039M75.039 8L70 13.039" stroke="#4171D6" stroke-width="2" stroke-linecap="round" stroke-linejoin="round"/>
<rect x="12" y="11" width="59" height="59" rx="4" fill="white" stroke="#4171D6" stroke-width="2"/>
<path d="M59 18L64.039 23.039M64.039 18L59 23.039" stroke="#4171D6" stroke-width="2" stroke-linecap="round" stroke-linejoin="round"/>
<path d="M29.4826 37.2535L28.2542 40.6601H30.7678L29.4826 37.2535ZM31.2592 33.2394L36.0598 45.4292L32.6767 45.7606L31.7506 43.2932H27.3092L26.4209 45.7606H23L27.8195 33.2394H31.2592Z" fill="#4171D6"/>
<path d="M37.5706 45.7606V33.2394H43.2028C45.1809 33.2394 46.6866 33.8286 47.7198 35.0071C48.753 36.1733 49.2696 37.6464 49.2696 39.4263C49.2696 41.3782 48.6963 42.9249 47.5497 44.0666C46.4031 45.1959 44.9289 45.7606 43.1272 45.7606H37.5706ZM43.0327 35.8725H41.0104V43.1275H42.9004C43.6942 43.1275 44.3619 42.8206 44.9037 42.2068C45.4455 41.593 45.7164 40.6662 45.7164 39.4263C45.7164 38.3952 45.4833 37.5482 45.0171 36.8853C44.5635 36.2101 43.9021 35.8725 43.0327 35.8725Z" fill="#4171D6"/>
<path d="M54.4623 40.8258C53.6055 40.4084 52.7488 39.8683 51.892 39.2054C51.0352 38.5302 50.6068 37.6586 50.6068 36.5907C50.6194 35.5595 51.0541 34.7063 51.9109 34.0312C52.7677 33.3437 53.9268 33 55.3884 33C56.031 33 56.6925 33.0921 57.3729 33.2762C58.0659 33.4481 58.6644 33.6997 59.1684 34.0312L58.1478 36.296C57.4674 36.0628 56.9508 35.9155 56.598 35.8541C56.2452 35.7805 55.8546 35.7436 55.4262 35.7436C55.0356 35.7436 54.7269 35.8357 54.5001 36.0198C54.2733 36.1917 54.1599 36.3942 54.1599 36.6275C54.1599 36.8975 54.3489 37.1369 54.7269 37.3456C55.1175 37.542 55.5774 37.7753 56.1066 38.0453C57.0138 38.4995 57.8895 39.0703 58.7337 39.7578C59.5779 40.4452 60 41.2984 60 42.3173C60 43.373 59.5401 44.2507 58.6203 44.9504C57.7131 45.6501 56.4657 46 54.8781 46C54.2229 46 53.4795 45.9079 52.648 45.7238C51.829 45.5274 51.1675 45.2819 50.6635 44.9873L51.7975 42.4646C52.1251 42.661 52.585 42.8451 53.1772 43.017C53.7819 43.1766 54.3174 43.2564 54.7836 43.2564C55.3254 43.2564 55.7349 43.152 56.0121 42.9433C56.3019 42.7347 56.4468 42.5137 56.4468 42.2805C56.4468 42.0595 56.2389 41.8201 55.8231 41.5623C55.4073 41.3045 54.9537 41.059 54.4623 40.8258Z" fill="#4171D6"/>
</svg>
