<svg width="69" height="60" viewBox="0 0 69 60" fill="none" xmlns="http://www.w3.org/2000/svg">
<path d="M28.0387 21.4852H30.6087L28.7912 23.3061C28.526 23.5762 28.3779 23.9403 28.3794 24.3192C28.3809 24.6981 28.5318 25.061 28.7993 25.3289C29.0667 25.5969 29.4289 25.748 29.8071 25.7496C30.1853 25.7511 30.5487 25.6028 30.8183 25.337L32.6357 23.5161V26.0909C32.6357 26.4718 32.7867 26.837 33.0555 27.1064C33.3243 27.3757 33.6889 27.527 34.0691 27.527C34.4492 27.527 34.8138 27.3757 35.0826 27.1064C35.3514 26.837 35.5025 26.4718 35.5025 26.0909V23.5148L37.3199 25.337C37.4527 25.4708 37.6107 25.577 37.7846 25.6494C37.9585 25.7219 38.145 25.7592 38.3334 25.7592C38.5218 25.7592 38.7083 25.7219 38.8822 25.6494C39.0562 25.577 39.2141 25.4708 39.3469 25.337C39.9067 24.7761 39.9067 23.867 39.3469 23.3061L37.5295 21.4852H40.0981C40.4783 21.4852 40.8429 21.3339 41.1117 21.0646C41.3805 20.7953 41.5315 20.43 41.5315 20.0492C41.5315 19.6683 41.3805 19.303 41.1117 19.0337C40.8429 18.7644 40.4783 18.6131 40.0981 18.6131H37.066C37.0871 18.4019 37.0611 18.1887 36.99 17.9888C36.9188 17.7889 36.8042 17.6073 36.6545 17.4572C36.5048 17.3071 36.3236 17.1921 36.1242 17.1207C35.9247 17.0492 35.7119 17.023 35.5012 17.0439V14.0087C35.5012 13.6278 35.3501 13.2626 35.0813 12.9933C34.8125 12.7239 34.4479 12.5726 34.0678 12.5726C33.6876 12.5726 33.323 12.7239 33.0542 12.9933C32.7854 13.2626 32.6344 13.6278 32.6344 14.0087V16.5835L30.817 14.7626C30.5474 14.4968 30.184 14.3486 29.8058 14.3501C29.4276 14.3516 29.0654 14.5027 28.798 14.7707C28.5305 15.0386 28.3796 15.4015 28.3781 15.7804C28.3766 16.1593 28.5247 16.5235 28.7899 16.7935L30.6074 18.6144H28.0374C27.8492 18.6144 27.6628 18.6515 27.4889 18.7237C27.315 18.7959 27.157 18.9016 27.0239 19.035C26.8908 19.1683 26.7852 19.3267 26.7132 19.5009C26.6411 19.6751 26.6041 19.8619 26.6041 20.0505C26.6041 20.239 26.6411 20.4258 26.7132 20.6C26.7852 20.7743 26.8908 20.9326 27.0239 21.0659C27.157 21.1993 27.315 21.3051 27.4889 21.3772C27.6628 21.4494 27.8492 21.4865 28.0374 21.4865L28.0387 21.4852Z" fill="#4171D6"/>
<path d="M38.2911 17.2539C38.6556 17.2539 39.0214 17.1144 39.3014 16.8365L39.343 16.7961C39.4766 16.6632 39.5828 16.5052 39.6555 16.3312C39.7281 16.1571 39.7659 15.9705 39.7665 15.7818C39.7672 15.5932 39.7308 15.4063 39.6593 15.2317C39.5879 15.0572 39.4828 14.8985 39.3502 14.7646C39.2175 14.6307 39.0598 14.5244 38.8861 14.4515C38.7124 14.3787 38.5261 14.3409 38.3378 14.3403C38.1495 14.3396 37.9629 14.3761 37.7887 14.4477C37.6145 14.5192 37.4561 14.6245 37.3225 14.7574L37.2821 14.7992C37.0808 14.9995 36.9434 15.2553 36.8873 15.534C36.8313 15.8127 36.859 16.1018 36.967 16.3647C37.0751 16.6276 37.2586 16.8524 37.4943 17.0107C37.73 17.169 38.0073 17.2537 38.2911 17.2539ZM23.4418 20.0478C23.4418 19.8593 23.4047 19.6726 23.3326 19.4985C23.2606 19.3243 23.155 19.1661 23.0219 19.0328C22.8887 18.8996 22.7307 18.7939 22.5568 18.7219C22.3829 18.6499 22.1966 18.6129 22.0084 18.6131H19.4372L21.2546 16.7922C21.5199 16.5222 21.6679 16.158 21.6664 15.7791C21.6649 15.4002 21.514 15.0373 21.2466 14.7694C20.9792 14.5014 20.6169 14.3503 20.2387 14.3488C19.8605 14.3472 19.4971 14.4955 19.2276 14.7613L17.4101 16.5822V14.0074C17.3989 13.6342 17.243 13.28 16.9756 13.02C16.7081 12.76 16.3501 12.6146 15.9774 12.6146C15.6047 12.6146 15.2467 12.76 14.9792 13.02C14.7118 13.28 14.5559 13.6342 14.5447 14.0074V16.5822L12.7272 14.7613C12.4584 14.4918 12.0938 14.3404 11.7135 14.3403C11.3333 14.3401 10.9685 14.4914 10.6995 14.7607C10.4306 15.03 10.2794 15.3953 10.2793 15.7763C10.2792 16.1573 10.4301 16.5227 10.6989 16.7922L12.5163 18.6131H9.94641C9.56625 18.6131 9.20167 18.7644 8.93286 19.0337C8.66405 19.303 8.51303 19.6683 8.51303 20.0492C8.51303 20.43 8.66405 20.7953 8.93286 21.0646C9.20167 21.3339 9.56625 21.4852 9.94641 21.4852H12.5176L10.7002 23.3061C10.4349 23.5762 10.2869 23.9403 10.2884 24.3192C10.2899 24.6981 10.4408 25.061 10.7082 25.3289C10.9756 25.5969 11.3379 25.748 11.7161 25.7496C12.0943 25.7511 12.4577 25.6028 12.7272 25.337L14.5434 23.5161V26.0909C14.5434 26.4718 14.6944 26.837 14.9632 27.1064C15.232 27.3757 15.5966 27.527 15.9767 27.527C16.3569 27.527 16.7215 27.3757 16.9903 27.1064C17.2591 26.837 17.4101 26.4718 17.4101 26.0909V23.5161L19.2276 25.337C19.3604 25.4708 19.5183 25.577 19.6923 25.6494C19.8662 25.7219 20.0527 25.7592 20.2411 25.7592C20.4294 25.7592 20.616 25.7219 20.7899 25.6494C20.9638 25.577 21.1218 25.4708 21.2546 25.337C21.8144 24.7761 21.8144 23.867 21.2546 23.3061L19.4372 21.4852H22.0084C22.1966 21.4852 22.3829 21.4481 22.5567 21.3759C22.7306 21.3037 22.8885 21.1979 23.0215 21.0645C23.1545 20.9312 23.2599 20.7728 23.3318 20.5986C23.4037 20.4244 23.4406 20.2377 23.4405 20.0492L23.4418 20.0478ZM46.1297 21.4852H48.6997L46.8822 23.3061C46.617 23.5762 46.4689 23.9403 46.4704 24.3192C46.4719 24.6981 46.6228 25.061 46.8903 25.3289C47.1577 25.5969 47.5199 25.748 47.8981 25.7496C48.2763 25.7511 48.6397 25.6028 48.9093 25.337L50.7267 23.5161V26.0909C50.7267 26.4718 50.8777 26.837 51.1465 27.1064C51.4153 27.3757 51.7799 27.527 52.1601 27.527C52.5402 27.527 52.9048 27.3757 53.1736 27.1064C53.4424 26.837 53.5935 26.4718 53.5935 26.0909V23.5148L55.4109 25.337C55.5437 25.4708 55.7017 25.577 55.8756 25.6494C56.0495 25.7219 56.236 25.7592 56.4244 25.7592C56.6128 25.7592 56.7993 25.7219 56.9732 25.6494C57.1472 25.577 57.3051 25.4708 57.4379 25.337C57.9977 24.7761 57.9977 23.867 57.4379 23.3061L55.6205 21.4852H58.1904C58.5706 21.4852 58.9352 21.3339 59.204 21.0646C59.4728 20.7953 59.6238 20.43 59.6238 20.0492C59.6238 19.6683 59.4728 19.303 59.204 19.0337C58.9352 18.7644 58.5706 18.6131 58.1904 18.6131H55.6205L57.4379 16.7922C57.7032 16.5222 57.8512 16.158 57.8497 15.7791C57.8482 15.4002 57.6973 15.0373 57.4299 14.7694C57.1625 14.5014 56.8002 14.3503 56.4221 14.3488C56.0439 14.3472 55.6804 14.4955 55.4109 14.7613L53.5935 16.5822V14.0087C53.5935 13.6278 53.4424 13.2626 53.1736 12.9933C52.9048 12.7239 52.5402 12.5726 52.1601 12.5726C51.7799 12.5726 51.4153 12.7239 51.1465 12.9933C50.8777 13.2626 50.7267 13.6278 50.7267 14.0087V16.5835L48.9093 14.7626C48.6397 14.4968 48.2763 14.3486 47.8981 14.3501C47.5199 14.3516 47.1577 14.5027 46.8903 14.7707C46.6228 15.0386 46.4719 15.4015 46.4704 15.7804C46.4689 16.1593 46.617 16.5235 46.8822 16.7935L48.6997 18.6144H46.1297C45.7496 18.6144 45.385 18.7657 45.1162 19.035C44.8474 19.3043 44.6964 19.6696 44.6964 20.0505C44.6964 20.4313 44.8474 20.7966 45.1162 21.0659C45.385 21.3352 45.7496 21.4865 46.1297 21.4865V21.4852Z" fill="#4171D6"/>
<path d="M62.2823 34.1321C64.1382 32.2884 65.6112 30.0947 66.6163 27.6775C67.6214 25.2603 68.1386 22.6676 68.1382 20.0491C68.1382 9.0665 59.2202 0.131714 48.2583 0.131714H19.8798C8.91792 0.131714 0 9.0665 0 20.0491C0 31.0317 8.91792 39.9665 19.8798 39.9665H40.9092C40.1303 41.7553 39.7291 43.6862 39.731 45.6378C39.731 53.4848 46.1024 59.8682 53.9346 59.8682C61.7667 59.8682 68.1382 53.4848 68.1382 45.6378C68.1382 40.9148 65.8286 36.7213 62.2823 34.1321ZM19.8798 37.093C10.4984 37.093 2.86675 29.4469 2.86675 20.0491C2.86675 10.65 10.4984 3.00389 19.8798 3.00389H48.2583C57.6397 3.00389 65.2714 10.65 65.2714 20.0491C65.2709 22.4202 64.7749 24.7649 63.8152 26.9323C62.8555 29.0997 61.4535 31.0418 59.6993 32.6335C57.8852 31.8232 55.9208 31.4054 53.9346 31.4074H24.0901C23.71 31.4074 23.3454 31.5587 23.0766 31.828C22.8078 32.0973 22.6567 32.4626 22.6567 32.8435C22.6567 33.2243 22.8078 33.5896 23.0766 33.8589C23.3454 34.1282 23.71 34.2795 24.0901 34.2795H45.3864C44.3259 35.0825 43.3821 36.0294 42.5821 37.093H19.8772H19.8798ZM53.9346 56.9974C47.6829 56.9974 42.5964 51.9013 42.5964 45.6365C42.5964 39.3756 47.6829 34.2795 53.9346 34.2795C60.1849 34.2795 65.2714 39.3743 65.2714 45.6378C65.2714 51.9013 60.1849 56.9961 53.9346 56.9961V56.9974Z" fill="#4171D6"/>
<path fill-rule="evenodd" clip-rule="evenodd" d="M53.9346 56.9961C47.6829 56.9961 42.5964 51.9013 42.5964 45.6378C42.5964 39.3743 47.6829 34.2795 53.9346 34.2795C60.1849 34.2795 65.2714 39.3743 65.2714 45.6378C65.2714 51.9013 60.1849 56.9961 53.9346 56.9961Z" fill="#D8E7FE"/>
<path d="M19.984 31.4073H19.8798C19.4997 31.4073 19.1351 31.5587 18.8663 31.828C18.5975 32.0973 18.4464 32.4626 18.4464 32.8434C18.4464 33.2243 18.5975 33.5896 18.8663 33.8589C19.1351 34.1282 19.4997 34.2795 19.8798 34.2795H19.984C20.3641 34.2795 20.7287 34.1282 20.9975 33.8589C21.2663 33.5896 21.4173 33.2243 21.4173 32.8434C21.4173 32.4626 21.2663 32.0973 20.9975 31.828C20.7287 31.5587 20.3641 31.4073 19.984 31.4073ZM57.1659 43.9747V42.4095C57.1648 41.5406 56.82 40.7075 56.207 40.0929C55.594 39.4782 54.7628 39.1321 53.8955 39.1304C53.0278 39.1314 52.1959 39.4772 51.5823 40.092C50.9688 40.7067 50.6236 41.5402 50.6226 42.4095V43.9747C50.2762 44.1537 49.9856 44.4247 49.7826 44.758C49.5796 45.0914 49.4721 45.4742 49.4717 45.8647V48.1682C49.4717 49.3421 50.4247 50.2943 51.5938 50.2943H56.1933C57.3637 50.2943 58.3154 49.3421 58.3154 48.1682V45.8647C58.3154 45.043 57.8493 44.3295 57.1672 43.9747H57.1659ZM52.5689 42.4095C52.59 42.0717 52.7389 41.7547 52.9851 41.523C53.2313 41.2913 53.5564 41.1624 53.8942 41.1624C54.232 41.1624 54.5571 41.2913 54.8033 41.523C55.0496 41.7547 55.1984 42.0717 55.2195 42.4095V43.7373H52.5689V42.4095ZM56.3691 48.1682C56.3678 48.2145 56.3489 48.2585 56.3162 48.2913C56.2835 48.324 56.2395 48.343 56.1933 48.3443H51.5938C51.5476 48.343 51.5036 48.324 51.471 48.2913C51.4383 48.2585 51.4193 48.2145 51.418 48.1682V45.8647C51.418 45.7695 51.4987 45.6887 51.5938 45.6887H56.192C56.2871 45.6887 56.3678 45.7695 56.3678 45.8647V48.1682H56.3691Z" fill="#4171D6"/>
</svg>
