<svg width="61" height="61" viewBox="0 0 61 61" fill="none" xmlns="http://www.w3.org/2000/svg">
<rect x="1" y="1" width="59" height="59" rx="4" fill="white" stroke="#4171D6" stroke-width="2"/>
<path d="M15.326 45.547H47.091C47.825 45.547 48.425 44.955 48.425 44.213C48.425 34.722 40.703 27 31.213 27C21.722 27 14 34.722 14 44.213C14 44.947 14.592 45.547 15.326 45.547ZM28.362 42.887C28.6146 42.3456 29.0161 41.8872 29.5195 41.5654C30.0229 41.2437 30.6075 41.0719 31.205 41.07C31.8035 41.0707 32.3894 41.2418 32.8941 41.5635C33.3989 41.8851 33.8015 42.3438 34.055 42.886H28.362V42.887ZM31.212 29.661C38.792 29.661 45.03 35.488 45.702 42.886H36.858C36.5981 41.7907 36.0247 40.7948 35.208 40.02L37.964 35.077C38.1345 34.7667 38.1754 34.4016 38.0776 34.0613C37.9798 33.7211 37.7513 33.4333 37.442 33.261C37.1319 33.0904 36.7668 33.0494 36.4266 33.147C36.0863 33.2446 35.7985 33.4729 35.626 33.782L32.902 38.67C32.3536 38.5054 31.7845 38.4202 31.212 38.417C28.472 38.417 26.175 40.336 25.567 42.894H16.724C17.395 35.488 23.633 29.661 31.213 29.661H31.212Z" fill="#4171D6"/>
<path d="M1 5C1 2.79086 2.79086 1 5 1H56C58.2091 1 60 2.79086 60 5V14H1V5Z" fill="#D8E7FE" stroke="#4171D6" stroke-width="2"/>
<path d="M53.8954 5L48.8563 10.039M35 10.039H42.5581H35ZM48.8563 5L53.8954 10.039L48.8563 5Z" stroke="#4171D6" stroke-width="2" stroke-linecap="round" stroke-linejoin="round"/>
</svg>
