<svg width="59" height="58" viewBox="0 0 59 58" fill="none" xmlns="http://www.w3.org/2000/svg">
<path d="M58.2279 26.796C58.2614 26.7061 58.2804 26.6111 58.2847 26.5147C58.2847 26.4125 58.268 26.311 58.2367 26.2145L58.1616 26.0036C57.7692 22.2268 56.6332 18.5639 54.8185 15.2241C53.0038 11.8844 50.546 8.93306 47.5853 6.53875C47.1578 6.1922 46.7113 5.879 46.2647 5.55855C46.2422 5.5397 46.2305 5.5136 46.2065 5.4962C46.1817 5.4788 46.1628 5.48098 46.1424 5.46793C41.1987 1.94069 35.2716 0.0386402 29.189 0.0275284C28.9384 0.0275284 28.6864 0.0275284 28.4992 0.0471034C25.2548 0.109982 22.0451 0.724703 19.0089 1.86468C17.7187 0.863135 16.1716 0.242643 14.5442 0.0739619C12.9167 -0.0947187 11.2744 0.195202 9.80454 0.910661C8.33465 1.62612 7.09633 2.73832 6.23082 4.12043C5.3653 5.50254 4.90742 7.09892 4.90939 8.72753C4.96766 9.83315 5.22551 10.9192 5.67129 11.932C4.68014 13.2806 3.80769 14.7117 3.06363 16.2095C3.04907 16.232 3.04033 16.2574 3.02721 16.2813C-3.85758 30.4522 1.87198 47.5034 15.9373 54.6991C30.0026 61.8961 47.2677 56.6101 54.838 42.7895C56.9112 38.9876 58.0893 34.7664 58.2833 30.4449C58.3146 29.9787 58.3248 29.5038 58.3248 29.0275C58.3248 28.2786 58.2862 27.5362 58.2272 26.7967L58.2279 26.796ZM55.4054 21.8355C55.2816 21.7268 55.1687 21.6006 55.0397 21.5006C53.7704 20.5411 52.3321 19.8261 50.799 19.3923C49.403 19.0436 47.9439 19.0284 46.5408 19.3481C45.3462 19.6163 44.1094 19.6236 42.9134 19.3662C40.5913 18.8616 38.7565 18.4636 37.7833 16.9164C36.3892 14.6928 37.0425 11.5681 38.5132 10.4683C38.7533 10.3034 39.0237 10.1874 39.3089 10.1268C39.5941 10.0662 39.8886 10.0623 40.1754 10.1152C41.2054 10.199 42.2402 10.0256 43.1858 9.61058C44.1921 9.14133 45.0862 8.46356 45.808 7.62263C45.9916 7.764 46.1861 7.89088 46.3653 8.0366C50.7477 11.5879 53.9079 16.4117 55.4054 21.8355ZM13.6501 1.9611C15.4522 1.96398 17.1797 2.67779 18.4539 3.94612C19.7282 5.21445 20.4454 6.93384 20.4482 8.72753C20.4482 11.6196 16.0852 18.2395 13.6501 21.5948C11.3408 18.4889 9.33445 15.1708 7.65835 11.6855C7.20164 10.76 6.92766 9.75585 6.85129 8.72753C6.85341 6.93348 7.57042 5.21353 8.84501 3.94502C10.1196 2.6765 11.8477 1.96302 13.6501 1.9611ZM1.99581 29.0275C1.99945 27.2266 2.18155 25.4301 2.54065 23.664C2.64408 25.0074 2.82035 26.2037 2.97768 27.2404C3.57934 31.204 4.14821 34.9399 7.08292 38.3568C8.31026 39.7967 10.3651 42.2037 13.5438 42.5589C16.721 42.9149 20.7003 41.0959 21.8497 40.5289L22.2903 40.3078C22.901 39.9251 23.5992 39.7026 24.3197 39.6611C25.5484 39.7721 26.6868 40.3507 27.4976 41.2764C29.1547 43.1027 29.5758 46.152 28.3972 47.8014C28.0198 48.2913 27.4984 48.6519 26.9055 48.8331C25.8897 49.1712 25.0269 49.8562 24.4697 50.7667C24.0638 51.4981 23.8168 52.3062 23.7445 53.1387C23.6722 53.9712 23.7764 54.8096 24.0502 55.5995C11.2595 53.1331 2.01547 41.9956 1.99581 29.029V29.0275ZM29.189 56.0947C28.2508 56.0947 27.3126 56.0461 26.3788 55.9504C26.2994 55.8489 26.2259 55.7431 26.1574 55.6336C25.8341 55.0384 25.6633 54.3731 25.6602 53.6965C25.657 53.0199 25.8215 52.353 26.1392 51.7548C26.4897 51.201 27.0326 50.7948 27.6644 50.6137C28.5909 50.2958 29.3987 49.7055 29.9807 48.9208C31.6699 46.5573 31.1913 42.461 28.9413 39.983C28.3619 39.3236 27.6571 38.7849 26.8675 38.3979C26.0779 38.0109 25.2192 37.7833 24.3408 37.7283H24.2978C23.275 37.7587 22.2778 38.0541 21.4046 38.5852L20.9902 38.794C18.8684 39.8351 15.8484 40.8646 13.7587 40.6304C11.3477 40.3622 9.67236 38.3974 8.56083 37.0968C5.98523 34.1003 5.48118 30.7842 4.89846 26.9468C4.27374 23.6639 4.24881 20.2958 4.82489 17.0041C5.34513 15.9558 5.93296 14.9421 6.5847 13.9693C6.61674 14.0331 6.65244 14.0991 6.68157 14.1629C6.74349 14.2854 6.80758 14.4072 6.87533 14.5297L7.16668 15.0793C7.3344 15.3893 7.50656 15.697 7.68312 16.0022C7.75304 16.124 7.82297 16.2458 7.89435 16.3676C8.07274 16.6706 8.25265 16.9726 8.43409 17.2738C8.54918 17.4674 8.66499 17.6479 8.78081 17.835C8.84636 17.9401 8.91192 18.0474 8.97456 18.1518C9.11805 18.3816 9.26082 18.6035 9.40431 18.829L9.51649 19.0051C9.69421 19.2792 9.87049 19.5467 10.0438 19.8077C10.1094 19.9041 10.1735 20.0013 10.2383 20.0977C10.3447 20.2572 10.4517 20.4167 10.5559 20.569L10.7861 20.9054L11.0352 21.2679L11.2683 21.6014L11.481 21.9037L11.6995 22.2111C11.7716 22.3104 11.8204 22.38 11.8779 22.4605L12.0717 22.7273L12.2298 22.9455L12.3849 23.1572L12.5109 23.3276L12.6296 23.4878L12.7003 23.5849L12.8715 23.8133C12.9618 23.9334 13.0791 24.0308 13.2138 24.0979C13.3486 24.165 13.4972 24.2 13.6479 24.2C13.7986 24.2 13.9473 24.165 14.0821 24.0979C14.2168 24.0308 14.334 23.9334 14.4244 23.8133C15.2402 22.7382 22.3909 13.1957 22.3909 8.72753C22.3909 8.4455 22.3727 8.16493 22.3457 7.88653C22.3377 7.80098 22.3239 7.7147 22.3129 7.62915C22.2888 7.43456 22.2564 7.24106 22.2161 7.04915C22.1583 6.75884 22.0858 6.47162 21.999 6.18858C21.975 6.111 21.9553 6.0327 21.9291 5.95658C21.8417 5.69775 21.7441 5.44183 21.6326 5.1917C21.6108 5.14458 21.5853 5.09528 21.5634 5.05178C21.4686 4.85002 21.3666 4.65173 21.2575 4.45728C21.2087 4.37028 21.1555 4.28618 21.1031 4.20063C21.0098 4.04838 20.9122 3.8983 20.8117 3.75113C20.7513 3.66467 20.6896 3.57911 20.6267 3.49448C20.5939 3.4517 20.5655 3.40675 20.5298 3.3647C22.5506 2.68736 24.646 2.25504 26.7707 2.0771C25.2564 4.922 24.7618 7.55375 25.327 9.9071C25.7488 11.4841 26.5489 12.9355 27.6586 14.1368C28.5728 15.2627 29.2298 16.0747 29.1882 17.4C29.1052 20.2036 25.925 22.5366 24.721 23.4182C23.1423 24.5497 21.3774 25.3983 19.5057 25.926C17.743 26.4987 16.2206 26.9939 15.6386 28.7223C15.3578 29.8361 15.4336 31.0094 15.8555 32.0783C16.2773 33.1471 17.024 34.0581 17.9914 34.684C18.5792 34.9999 19.2256 35.1931 19.8911 35.2515C20.5565 35.31 21.227 35.2326 21.8613 35.024C23.2659 34.6992 24.7179 34.6302 26.1472 34.8203C27.9922 35.0798 29.583 35.3031 30.3377 36.3551C30.7856 36.983 30.7623 37.6325 30.6749 38.8237C30.4758 40.5102 30.6476 42.2196 31.1782 43.8335C31.6211 45.1566 32.2905 47.154 33.8981 47.3838C34.0022 47.4005 34.1086 47.4092 34.2135 47.4092C35.3512 47.4092 36.0475 46.4087 36.7796 45.3574C37.1245 44.8498 37.494 44.3591 37.8867 43.8871C39.8855 47.1018 41.9162 49.7843 42.0102 49.9119C42.1006 50.0321 42.2179 50.1296 42.3528 50.1968C42.4877 50.264 42.6365 50.299 42.7874 50.299C42.9382 50.299 43.087 50.264 43.2219 50.1968C43.3568 50.1296 43.4742 50.0321 43.5646 49.9119C45.6716 47.1026 47.5916 44.1591 49.3124 41.1002C50.5053 41.4441 51.6414 41.9594 52.6848 42.63C50.2972 46.7266 46.8698 50.1268 42.7461 52.4897C38.6224 54.8526 33.9472 56.0953 29.189 56.0932V56.0947ZM47.3166 29.7888C48.03 30.4221 48.6008 31.1985 48.9916 32.0668C49.3824 32.9352 49.5843 33.876 49.584 34.8275C49.584 35.5235 49.3 36.901 47.9539 39.519C46.4168 42.355 44.6903 45.0852 42.7859 47.6912C41.8718 46.4239 40.2992 44.1749 38.8927 41.81C38.1086 40.5143 37.4079 39.1703 36.7949 37.7863C36.3379 36.8608 36.0637 35.8566 35.9871 34.8283C35.9881 33.8874 36.1861 32.9571 36.5683 32.0967C36.9505 31.2362 37.5085 30.4644 38.2069 29.8304C38.9053 29.1964 39.7288 28.7142 40.6247 28.4145C41.5207 28.1147 42.4696 28.004 43.4109 28.0894C44.8632 28.2202 46.2337 28.8165 47.3166 29.7888ZM56.3487 30.3456C56.1813 34.0225 55.25 37.6249 53.6135 40.9255C52.5491 40.2559 51.403 39.7245 50.2032 39.3443C50.9537 37.9461 51.4043 36.4081 51.5267 34.8275C51.5227 33.2011 51.0625 31.608 50.1981 30.2277C49.3337 28.8474 48.0994 27.7348 46.634 27.0149L46.5729 26.9881C46.3558 26.8837 46.1358 26.7866 45.91 26.6981C45.7556 26.6387 45.5954 26.5915 45.4366 26.5415C45.3397 26.5125 45.2523 26.4763 45.1583 26.4451C44.9074 26.3748 44.6534 26.316 44.3971 26.2689H44.384C44.2289 26.2399 44.0715 26.2247 43.9142 26.2037C42.68 26.0336 41.4234 26.1299 40.2299 26.4863C39.0365 26.8426 37.9341 27.4505 36.9977 28.2687C36.0613 29.0869 35.3129 30.0962 34.8033 31.2279C34.2937 32.3597 34.0349 33.5874 34.0445 34.8275C34.1198 36.1164 34.4463 37.3784 35.0059 38.5431C35.5504 39.7769 36.1647 40.9789 36.8459 42.1435C36.239 42.8046 35.6832 43.5104 35.1829 44.2547C34.916 44.7103 34.5788 45.1213 34.1836 45.4727C33.9891 45.443 33.63 45.0304 33.0182 43.2216C32.5723 41.8485 32.4328 40.3952 32.6095 38.9629C32.8617 37.6768 32.6139 36.3433 31.9161 35.2321C30.6764 33.5059 28.5116 33.2021 26.4051 32.9048C24.7678 32.682 23.1035 32.7562 21.4928 33.1238C20.2501 33.3601 19.6732 33.4486 19.014 33.0397C18.4242 32.6372 17.965 32.0724 17.6924 31.4144C17.4198 30.7563 17.3458 30.0335 17.4793 29.3342C17.7386 28.5613 18.5158 28.2815 20.1015 27.7631C22.1723 27.1717 24.1244 26.2276 25.8711 24.9726C27.2864 23.9395 31.0187 21.1975 31.1316 17.4573C31.1935 15.4106 30.165 14.1476 29.1708 12.9275C28.2516 11.9477 27.5826 10.7624 27.2201 9.47138C26.7044 7.31813 27.344 4.7915 29.0775 1.9611H29.189C34.5354 1.96835 39.7624 3.5416 44.218 6.48365C43.7035 7.05417 43.0806 7.51766 42.3853 7.84738C41.7082 8.13888 40.9678 8.25414 40.2336 8.18233C39.2121 8.05696 38.1808 8.32117 37.347 8.92183C35.1443 10.5712 34.1581 14.7798 36.1371 17.9394C37.5459 20.1796 39.9525 20.7016 42.5805 21.2715C43.9951 21.5687 45.4577 21.5629 46.8693 21.2526C48.0028 20.9834 49.1844 20.9871 50.3161 21.2635C51.5894 21.6292 52.7844 22.2247 53.8415 23.0202C54.9398 23.9267 55.7728 25.1107 56.2532 26.448C56.3334 27.302 56.3822 28.1582 56.3822 29.0275C56.3822 29.4604 56.3741 29.8975 56.3443 30.3456H56.3479H56.3487Z" fill="#4171D6"/>
<path d="M13.6501 11.6275C14.6804 11.6275 15.6684 11.2201 16.3969 10.4951C17.1254 9.76996 17.5347 8.78652 17.5347 7.76108C17.5347 6.73564 17.1254 5.7522 16.3969 5.0271C15.6684 4.30201 14.6804 3.89465 13.6501 3.89465C12.6199 3.89465 11.6318 4.30201 10.9033 5.0271C10.1749 5.7522 9.76559 6.73564 9.76559 7.76108C9.76559 8.78652 10.1749 9.76996 10.9033 10.4951C11.6318 11.2201 12.6199 11.6275 13.6501 11.6275ZM13.6501 5.8275C14.1653 5.8275 14.6595 6.03122 15.0238 6.39383C15.3881 6.75645 15.5928 7.24826 15.5928 7.76108C15.5928 8.27389 15.3881 8.76571 15.0238 9.12832C14.6595 9.49094 14.1653 9.69465 13.6501 9.69465C13.1349 9.69465 12.6408 9.49094 12.2765 9.12832C11.9122 8.76571 11.7075 8.27389 11.7075 7.76108C11.7075 7.24826 11.9122 6.75645 12.2765 6.39383C12.6408 6.03122 13.1349 5.8275 13.6501 5.8275ZM38.9007 33.8611C38.9007 34.8866 39.31 35.8701 40.0385 36.5953C40.7671 37.3205 41.7552 37.7279 42.7856 37.7279C43.8159 37.7279 44.804 37.3205 45.5326 36.5953C46.2612 35.8701 46.6705 34.8866 46.6705 33.8611C46.6705 32.8355 46.2612 31.852 45.5326 31.1268C44.804 30.4017 43.8159 29.9943 42.7856 29.9943C41.7552 29.9943 40.7671 30.4017 40.0385 31.1268C39.31 31.852 38.9007 32.8355 38.9007 33.8611ZM44.7278 33.8611C44.7328 34.1181 44.6863 34.3735 44.5909 34.6124C44.4956 34.8513 44.3533 35.0689 44.1725 35.2525C43.9916 35.436 43.7758 35.5818 43.5377 35.6813C43.2995 35.7808 43.0438 35.8321 42.7856 35.8321C42.5273 35.8321 42.2716 35.7808 42.0335 35.6813C41.7953 35.5818 41.5795 35.436 41.3987 35.2525C41.2178 35.0689 41.0756 34.8513 40.9802 34.6124C40.8848 34.3735 40.8383 34.1181 40.8433 33.8611C40.8532 33.3548 41.0621 32.8726 41.4253 32.5181C41.7885 32.1635 42.2769 31.9649 42.7856 31.9649C43.2943 31.9649 43.7827 32.1635 44.1459 32.5181C44.509 32.8726 44.718 33.3548 44.7278 33.8611Z" fill="#D8E7FE"/>
</svg>
