<svg width="73" height="73" viewBox="0 0 73 73" fill="none" xmlns="http://www.w3.org/2000/svg">
<path d="M1.21664 40.7583L19.1031 20.4861C19.3342 20.2247 19.6663 20.075 20.0156 20.075H21.0766C21.5738 20.075 22.0218 20.3779 22.2053 20.8401L23.8491 24.9487C24.123 25.6325 23.826 26.4125 23.1677 26.7423C22.4679 27.0928 21.6166 26.8082 21.2673 26.1084C20.991 25.5559 20.2407 25.4662 19.8427 25.9379L7.29998 40.7583H1.21664Z" fill="#4171D6"/>
<path d="M71.7833 40.7583L53.8969 20.4861C53.6658 20.2247 53.3337 20.075 52.9844 20.075H51.9234C51.4261 20.075 50.9782 20.3779 50.7946 20.8401L49.1508 24.9487C48.877 25.6325 49.174 26.4125 49.8322 26.7423C50.5321 27.0928 51.3834 26.8082 51.7327 26.1084C52.0089 25.5559 52.7592 25.4662 53.1573 25.9379L65.7 40.7583H71.7833Z" fill="#4171D6"/>
<path d="M12.8088 32.7426V32.3918L12.5897 32.1179L3.15414 20.3235H3.17169H3.2006H3.22965H3.25886H3.28821H3.31771H3.34736H3.37715H3.40708H3.43716H3.46738H3.49774H3.52824H3.55888H3.58965H3.62057H3.65162H3.6828H3.71412H3.74557H3.77715H3.80886H3.84071H3.87268H3.90478H3.937H3.96936H4.00183H4.03443H4.06715H4.1H4.13296H4.16605H4.19925H4.23257H4.266H4.29956H4.33322H4.367H4.40089H4.4349H4.46901H4.50323H4.53756H4.572H4.60655H4.6412H4.67595H4.71081H4.74577H4.78083H4.81599H4.85125H4.88661H4.92206H4.95761H4.99326H5.029H5.06483H5.10076H5.13677H5.17288H5.20907H5.24536H5.28173H5.31818H5.35472H5.39135H5.42805H5.46484H5.50171H5.53866H5.57569H5.6128H5.64998H5.68724H5.72457H5.76198H5.79945H5.83701H5.87463H5.91232H5.95008H5.9879H6.0258H6.06376H6.10178H6.13986H6.17801H6.21622H6.25449H6.29282H6.33121H6.36966H6.40816H6.44672H6.48533H6.52399H6.56271H6.60148H6.6403H6.67917H6.71808H6.75704H6.79605H6.83511H6.8742H6.91335H6.95253H6.99175H7.03102H7.07032H7.10966H7.14904H7.18845H7.2279H7.26738H7.3069H7.34645H7.38602H7.42563H7.46527H7.50493H7.54462H7.58434H7.62408H7.66385H7.70363H7.74344H7.78327H7.82312H7.86299H7.90288H7.94278H7.9827H8.02263H8.06257H8.10253H8.1425H8.18248H8.22247H8.26247H8.30247H8.34248H8.3825H8.42252H8.46254H8.50257H8.5426H8.58263H8.62265H8.66268H8.7027H8.74272H8.78273H8.82274H8.86274H8.90274H8.94272H8.98269H9.02266H9.06261H9.10254H9.14247H9.18238H9.22227H9.26215H9.302H9.34184H9.38166H9.42146H9.46123H9.50098H9.54071H9.58041H9.62009H9.65973H9.69936H9.73895H9.77851H9.81804H9.85753H9.89699H9.93642H9.97582H10.0152H10.0545H10.0938H10.133H10.1722H10.2114H10.2505H10.2896H10.3286H10.3676H10.4065H10.4454H10.4842H10.523H10.5618H10.6004H10.6391H10.6777H10.7162H10.7547H10.7931H10.8314H10.8697H10.908H10.9461H10.9842H11.0223H11.0603H11.0982H11.1361H11.1738H11.2116H11.2492H11.2868H11.3243H11.3617H11.3991H11.4364H11.4736H11.5107H11.5478H11.5848H11.6217H11.6585H11.6953H11.7319H11.7685H11.805H11.8414H11.8777H11.9139H11.9501H11.9861H12.0221H12.058H12.0938H12.1294H12.165H12.2005H12.2359H12.2712H12.3064H12.3415H12.3765H12.4114H12.4462H12.4809H12.5155H12.55H12.5844H12.6186H12.6528H12.6869H12.7208H12.7546H12.7883H12.8219H12.8554H12.8888H12.922H12.9552H12.9882H13.0211H13.0539H13.0865H13.119H13.1514H13.1837H13.2159H13.2479H13.2798H13.3116H13.3432H13.3747H13.4061H13.4373H13.4684H13.4994H13.5302H13.5609H13.5915H13.6219H13.6522H13.6823H13.7123H13.7422H13.7719H13.8014H13.8308H13.8601H13.8892H13.9182H13.947H13.9757H14.0042H14.0326H14.0608H14.0888H14.1167H14.1444H14.172H14.1994H14.2267H14.2538H14.2807H14.3075H14.3341H14.3605H14.3868H14.4129H14.4388H14.4646H14.4902H14.5156H14.5408H14.5659H14.5908H14.6155H14.64H14.6644H14.6886H14.7126H14.7364H14.7601H14.7835H14.8068H14.8299H14.8528H14.8755H14.898H14.9204H14.9425H14.9645H14.9862H15.0078H15.0292H15.0503H15.0713H15.0921H15.1127H15.1331H15.1533H15.1732H15.193H15.2126H15.232H15.2511H15.2701H15.2888H15.3074H15.3257H15.3438H15.3618H15.3795H15.3969H15.4142H15.4313H15.4481H15.4647H15.4811H15.4973H15.5133H15.529H15.5445H15.5598H15.5749H15.5897H15.6043H15.6187H15.6328H15.6468H15.6604H15.6739H15.6871H15.7001H15.7129H58.6577C60.2624 20.3235 61.5617 21.6229 61.5617 23.2276V46.652C61.5617 48.2567 60.2624 49.5561 58.6577 49.5561H15.7129C14.1082 49.5561 12.8088 48.2567 12.8088 46.652V32.7426Z" fill="white" stroke="#4171D6" stroke-width="2"/>
<path d="M37.1853 42.7479C45.9695 42.7479 50.8496 34.9397 50.8496 34.9397C50.8496 34.9397 45.9695 27.1316 37.1853 27.1316C28.4011 27.1316 23.5211 34.9397 23.5211 34.9397C23.5211 34.9397 28.4011 42.7479 37.1853 42.7479Z" fill="white" stroke="#4171D6" stroke-width="2"/>
<path d="M41.8676 34.8897C41.8676 37.5576 39.7046 39.7206 37.0368 39.7206C34.3689 39.7206 32.2059 37.5576 32.2059 34.8897C32.2059 32.2219 34.3689 30.0588 37.0368 30.0588C39.7046 30.0588 41.8676 32.2219 41.8676 34.8897Z" fill="#4171D6"/>
<path d="M46.3928 23.6666C46.8586 23.2008 47.6138 23.2007 48.0797 23.6664C48.5459 24.1323 48.546 24.8879 48.08 25.3539L28.2948 45.1381C27.829 45.6039 27.0739 45.6039 26.6081 45.1381C26.1423 44.6723 26.1423 43.9171 26.6081 43.4513L46.3928 23.6666Z" fill="#4171D6"/>
<path d="M71.7833 40.7585H46.7466C44.8254 40.7585 42.9469 41.3277 41.3471 42.394L39.1983 43.8258C37.5634 44.9159 35.4342 44.9159 33.7987 43.8258L31.6506 42.394C30.0531 41.3277 28.1746 40.7585 26.2534 40.7585H1.21667C0.545361 40.7585 0 41.3039 0 41.9752V44.4085C0 45.0799 0.545361 45.6252 1.21667 45.6252C2.56106 45.6252 3.65 46.7142 3.65 48.0585V54.7686C3.65 56.7041 4.41873 58.5606 5.78748 59.9294L6.378 60.5211C7.74793 61.8898 9.60442 62.6586 11.5399 62.6586H26.1768C28.1122 62.6586 29.9687 61.8898 31.3375 60.5211L31.9292 59.9294C33.2979 58.5606 34.0667 56.7041 34.0667 54.7686V53.0553C34.0667 51.8434 34.8954 50.7194 36.0913 50.5246C37.6157 50.278 38.9333 51.4472 38.9333 52.9252V54.7686C38.9333 56.7041 39.7021 58.5618 41.072 59.9306L41.6625 60.5211C43.0313 61.8898 44.8878 62.6586 46.8244 62.6586H61.4601C63.3956 62.6586 65.2533 61.8898 66.622 60.5199L67.2125 59.9294C68.5813 58.5606 69.35 56.7041 69.35 54.7686V48.0585C69.35 46.7142 70.4389 45.6252 71.7833 45.6252C72.4546 45.6252 73 45.0799 73 44.4085V41.9752C73 41.3039 72.4546 40.7585 71.7833 40.7585Z" fill="#4171D6"/>
<path d="M8.09964 58.7993L7.50912 58.2088C6.59544 57.2963 6.08334 56.0594 6.08334 54.7685V46.8418C6.08334 45.4974 7.17228 44.4084 8.51668 44.4084H26.51C27.4713 44.4084 28.4105 44.693 29.2095 45.2259L29.4668 45.3976C30.8206 46.2994 31.6333 47.819 31.6333 49.4468V54.7685C31.6333 56.0594 31.1213 57.2963 30.2076 58.2088L29.6171 58.7993C28.7046 59.713 27.4677 60.2251 26.1768 60.2251H11.5399C10.249 60.2251 9.01214 59.713 8.09964 58.7993Z" fill="#D8E7FF"/>
<path d="M64.9004 58.7993L65.4909 58.2088C66.4034 57.2963 66.9167 56.0583 66.9167 54.7685V46.8418C66.9167 45.4974 65.8277 44.4084 64.4833 44.4084H46.49C45.5288 44.4084 44.5895 44.693 43.7905 45.2259L43.5333 45.3976C42.1794 46.2994 41.3667 47.819 41.3667 49.4468V54.7685C41.3667 56.0594 41.8788 57.2963 42.7925 58.2088L43.383 58.7993C44.2955 59.7118 45.5335 60.2251 46.8233 60.2251H61.4601C62.751 60.2251 63.9879 59.713 64.9004 58.7993Z" fill="#D8E7FF"/>
</svg>
