<svg width="71" height="65" viewBox="0 0 71 65" fill="none" xmlns="http://www.w3.org/2000/svg">
<path d="M67.45 31.3393V5.80357C67.45 2.60422 64.796 0 61.5333 0H9.46667C6.20405 0 3.55 2.60338 3.55 5.80357V23.2143C1.59243 23.2143 0 24.776 0 26.6964V61.5179C0 63.4375 1.59243 65 3.55 65H29.5833C31.5409 65 33.1333 63.4383 33.1333 61.5179H43.0505C44.1662 61.5179 45.1949 61.019 45.8719 60.1495C46.2043 59.7276 46.4323 59.2333 46.5371 58.7069C46.642 58.1804 46.6209 57.6366 46.4754 57.1198L44.1493 48.75H50.8833V61.5179C50.8833 63.4375 52.4758 65 54.4333 65H67.45C69.4076 65 71 63.4383 71 61.5179V34.8214C71 32.9018 69.4076 31.3393 67.45 31.3393ZM30.7667 61.5179C30.7667 62.1577 30.235 62.6786 29.5833 62.6786H3.55C2.89832 62.6786 2.36667 62.1577 2.36667 61.5179V59.1964H30.7667V61.5179ZM30.7667 56.875H2.36667V31.3393H30.7667V56.875ZM30.7667 29.0179H2.36667V26.6964C2.36667 26.0566 2.89832 25.5357 3.55 25.5357H29.5833C30.235 25.5357 30.7667 26.0566 30.7667 26.6964V29.0179ZM44.1924 57.7301C44.2913 58.0821 44.2178 58.4502 43.9913 58.7406C43.7656 59.0301 43.4233 59.1964 43.0505 59.1964H33.1333V56.875H43.9549L44.1924 57.7301ZM33.1333 54.5536V48.75H41.6956L43.31 54.5536H33.1333ZM50.8833 46.4286H33.1333V39.4643H50.8833V46.4286ZM50.8833 34.8214V37.1429H33.1333V26.6964C33.1333 24.7768 31.5409 23.2143 29.5833 23.2143H5.91667V5.80357C5.91667 3.88396 7.5091 2.32143 9.46667 2.32143H61.5333C63.4909 2.32143 65.0833 3.88312 65.0833 5.80357V31.3393H54.4333C52.4758 31.3393 50.8833 32.901 50.8833 34.8214ZM68.6333 61.5179C68.6333 62.1577 68.1017 62.6786 67.45 62.6786H54.4333C53.7817 62.6786 53.25 62.1577 53.25 61.5179V59.1964H68.6333V61.5179ZM68.6333 56.875H53.25V39.4643H68.6333V56.875ZM68.6333 37.1429H53.25V34.8214C53.25 34.1816 53.7817 33.6607 54.4333 33.6607H67.45C68.1017 33.6607 68.6333 34.1816 68.6333 34.8214V37.1429Z" fill="#4171D6"/>
<path fill-rule="evenodd" clip-rule="evenodd" d="M68.4643 37.1429H53.25V34.8915C53.25 34.2728 53.7757 33.7663 54.4207 33.7663H67.2936C67.9385 33.7663 68.4643 34.2719 68.4643 34.8915V37.1429ZM31.2738 61.3423C31.2738 61.9611 30.7362 62.4676 30.0761 62.4676H3.73342C3.07413 62.4676 2.53571 61.9619 2.53571 61.3423V59.0909H31.2738V61.3423ZM31.2738 28.7013H2.53571V26.45C2.53571 25.8312 3.07328 25.3247 3.73342 25.3247H30.0761C30.7354 25.3247 31.2738 25.8304 31.2738 26.45V28.7013ZM68.4643 61.3423C68.4643 61.9611 67.9385 62.4676 67.2936 62.4676H54.4207C53.7757 62.4676 53.25 61.9619 53.25 61.3423V59.0909H68.4643V61.3423ZM50.7143 46.4286H32.9643V39.6754H50.7143V46.4286Z" fill="#D8E7FE"/>
</svg>
