<svg width="52" height="64" viewBox="0 0 52 64" fill="none" xmlns="http://www.w3.org/2000/svg">
<g clip-path="url(#clip0)">
<path d="M38.8219 1.07861H4.63013C2.66308 1.07861 1.06848 2.68838 1.06848 4.67412V57.1685C1.06848 59.1542 2.66308 60.764 4.63013 60.764H38.8219C40.7889 60.764 42.3836 59.1542 42.3836 57.1685V4.67412C42.3836 2.68838 40.7889 1.07861 38.8219 1.07861Z" stroke="#4171D6" stroke-width="3"/>
<path d="M7.8356 39.5506H36.8609M7.8356 11.5056H36.8609H7.8356ZM7.8356 20.8539H36.8609H7.8356ZM7.8356 30.2022H36.8609H7.8356Z" stroke="#4171D6" stroke-width="4" stroke-linecap="round" stroke-linejoin="round"/>
<path fill-rule="evenodd" clip-rule="evenodd" d="M41.3151 63.2808C38.7578 63.2808 36.4285 62.2957 34.6619 60.6906C34.4432 60.4931 34.2333 60.2858 34.0329 60.0693C33.9888 60.0219 33.946 59.973 33.9026 59.9248C33.7139 59.7123 33.534 59.4921 33.3633 59.2646C33.1519 58.9821 32.9553 58.6885 32.7742 58.3852C32.7443 58.3356 32.713 58.2874 32.6845 58.2363C32.5349 57.9775 32.4003 57.7114 32.2756 57.441C32.2557 57.3979 32.2336 57.3569 32.2144 57.313C32.0892 57.0299 31.9775 56.741 31.8796 56.4472C31.8675 56.4105 31.8518 56.3753 31.8404 56.3393C31.744 56.0399 31.6613 55.7361 31.5925 55.429C31.5847 55.393 31.5726 55.3585 31.5654 55.3218C31.5017 55.0178 31.4525 54.7109 31.418 54.4021C31.4123 54.3589 31.4037 54.3172 31.3987 54.2726C31.3613 53.9208 31.3425 53.5672 31.3425 53.2134C31.3425 47.662 35.8159 43.146 41.3151 43.146C41.6684 43.146 42.0196 43.1654 42.3679 43.2035C42.4085 43.2086 42.4477 43.2179 42.4883 43.2229C42.7967 43.2603 43.1037 43.3078 43.4058 43.374C43.4399 43.3811 43.4727 43.3934 43.5069 43.4006C43.8132 43.471 44.1167 43.5523 44.4137 43.6515C44.4472 43.6623 44.48 43.676 44.5134 43.6875C44.8076 43.7882 45.0968 43.9018 45.3796 44.0298C45.4195 44.0485 45.458 44.0693 45.4979 44.0873C45.7686 44.2153 46.035 44.3534 46.2943 44.5044C46.3413 44.5317 46.3869 44.5619 46.4339 44.5907C46.7341 44.7733 47.0249 44.9713 47.305 45.1839C47.533 45.358 47.7545 45.542 47.9689 45.7362C48.0138 45.7772 48.0594 45.8175 48.1029 45.8599C48.3194 46.0634 48.5281 46.2791 48.7283 46.5042C50.3139 48.2861 51.2877 50.634 51.2877 53.2134C51.2877 58.7649 46.8143 63.2808 41.3151 63.2808Z" fill="#D8E7FE" stroke="#4171D6" stroke-width="2"/>
<path d="M37.7534 53.5464C37.7534 52.3261 38.0939 51.3661 38.7749 50.6671C39.4559 49.9674 40.3071 49.6179 41.3293 49.6179C42.36 49.6179 43.2099 49.9559 43.8766 50.6333C44.544 51.3107 44.8774 52.2728 44.8774 53.5198C44.8774 54.7494 44.5348 55.7245 43.8488 56.4458C43.1628 57.167 42.318 57.528 41.3151 57.528C40.3028 57.528 39.4559 57.1785 38.7749 56.4789C38.0939 55.7806 37.7534 54.8026 37.7534 53.5464ZM39.1781 53.5119C39.1781 54.3532 39.3889 54.9932 39.812 55.4319C40.2337 55.8705 40.7352 56.0898 41.3151 56.0898C41.875 56.0898 42.3707 55.8727 42.8038 55.4383C43.2355 55.0047 43.452 54.3848 43.452 53.5794C43.452 52.7474 43.2412 52.119 42.8181 51.694C42.6216 51.4889 42.3856 51.3266 42.1247 51.2169C41.8638 51.1072 41.5834 51.0525 41.3008 51.0561C40.731 51.0561 40.2345 51.2661 39.812 51.6868C39.3896 52.1074 39.1788 52.7158 39.1788 53.5119H39.1781Z" fill="#4171D6"/>
</g>
<defs>
<clipPath id="clip0">
<rect width="52" height="64" fill="white"/>
</clipPath>
</defs>
</svg>
