<svg width="67" height="67" viewBox="0 0 67 67" fill="none" xmlns="http://www.w3.org/2000/svg">
<rect x="1" y="1" width="65" height="65" rx="4" fill="#F6F9FC" stroke="#4171D6" stroke-width="2"/>
<path d="M32.2929 43.7071C32.6834 44.0976 33.3166 44.0976 33.7071 43.7071L40.0711 37.3431C40.4616 36.9526 40.4616 36.3195 40.0711 35.9289C39.6805 35.5384 39.0474 35.5384 38.6569 35.9289L33 41.5858L27.3431 35.9289C26.9526 35.5384 26.3195 35.5384 25.9289 35.9289C25.5384 36.3195 25.5384 36.9526 25.9289 37.3431L32.2929 43.7071ZM32 24L32 43L34 43L34 24L32 24Z" fill="#4171D6"/>
<path d="M48 46V51C48 52.6569 46.6569 54 45 54H21C19.3431 54 18 52.6569 18 51V46" stroke="#4171D6" stroke-width="2" stroke-linecap="round" stroke-linejoin="round"/>
<path d="M1 5C1 2.79086 2.79086 1 5 1H62C64.2091 1 66 2.79086 66 5V15.322H1V5Z" fill="#D8E7FE" stroke="#4171D6" stroke-width="2"/>
<path d="M59.2746 5.40674L53.7231 10.9582M38.4576 10.9582H46.7844H38.4576ZM53.7231 5.40674L59.2746 10.9582L53.7231 5.40674Z" stroke="#4171D6" stroke-width="2" stroke-linecap="round" stroke-linejoin="round"/>
</svg>
