<svg width="65" height="64" viewBox="0 0 65 64" fill="none" xmlns="http://www.w3.org/2000/svg">
<rect x="0.965515" y="50.1724" width="63.069" height="2.13793" rx="1.06897" fill="#4171D6"/>
<rect x="28.7586" y="46.9656" width="9.62069" height="2.13793" rx="1.06897" transform="rotate(-90 28.7586 46.9656)" fill="#4171D6"/>
<rect x="34.1035" y="46.9656" width="9.62069" height="2.13793" rx="1.06897" transform="rotate(-90 34.1035 46.9656)" fill="#4171D6"/>
<rect x="0.965515" y="58.7241" width="63.069" height="2.13793" rx="1.06897" fill="#4171D6"/>
<path fill-rule="evenodd" clip-rule="evenodd" d="M28.6896 45.8965C28.1374 45.8965 27.6896 46.3442 27.6896 46.8965V48.0344H22.2758C21.7236 48.0344 21.2758 48.4821 21.2758 49.0344V61.9999C21.2758 62.5522 21.7236 62.9999 22.2758 62.9999H42.7241C43.2764 62.9999 43.7241 62.5522 43.7241 61.9999V49.0344C43.7241 48.4821 43.2764 48.0344 42.7241 48.0344H37.3103V46.8965C37.3103 46.3442 36.8626 45.8965 36.3103 45.8965H28.6896Z" fill="white"/>
<path d="M27.6896 48.0344V49.0344C28.2419 49.0344 28.6896 48.5867 28.6896 48.0344H27.6896ZM37.3103 48.0344H36.3103C36.3103 48.5867 36.758 49.0344 37.3103 49.0344V48.0344ZM28.6896 46.8965V46.8965V44.8965C27.5851 44.8965 26.6896 45.7919 26.6896 46.8965H28.6896ZM28.6896 48.0344V46.8965H26.6896V48.0344H28.6896ZM22.2758 49.0344H27.6896V47.0344H22.2758V49.0344ZM22.2758 49.0344V49.0344V47.0344C21.1713 47.0344 20.2758 47.9298 20.2758 49.0344H22.2758ZM22.2758 61.9999V49.0344H20.2758V61.9999H22.2758ZM22.2758 61.9999H22.2758H20.2758C20.2758 63.1045 21.1713 63.9999 22.2758 63.9999V61.9999ZM42.7241 61.9999H22.2758V63.9999H42.7241V61.9999ZM42.7241 61.9999V63.9999C43.8287 63.9999 44.7241 63.1045 44.7241 61.9999H42.7241ZM42.7241 49.0344V61.9999H44.7241V49.0344H42.7241ZM42.7241 49.0344H42.7241H44.7241C44.7241 47.9298 43.8287 47.0344 42.7241 47.0344V49.0344ZM37.3103 49.0344H42.7241V47.0344H37.3103V49.0344ZM36.3103 46.8965V48.0344H38.3103V46.8965H36.3103ZM36.3103 46.8965H36.3103H38.3103C38.3103 45.7919 37.4149 44.8965 36.3103 44.8965V46.8965ZM28.6896 46.8965H36.3103V44.8965H28.6896V46.8965Z" fill="#4171D6"/>
<rect x="12.7241" y="1" width="38.4828" height="38.4828" rx="6" fill="#D8E7FF" stroke="#4171D6" stroke-width="2"/>
<rect x="24.269" y="16.6782" width="14.5379" height="12.1149" rx="2" fill="#4171D6"/>
<path d="M27.9034 17.8896V12.6206C27.9034 11.516 28.7989 10.6206 29.9034 10.6206H33.1724C34.277 10.6206 35.1724 11.516 35.1724 12.6206V18.5" stroke="#4171D6" stroke-width="2" stroke-linecap="round"/>
</svg>
