<svg width="728" height="245" viewBox="0 0 728 245" fill="none" xmlns="http://www.w3.org/2000/svg">
<path d="M725.358 243.275H712.392M31.5513 242.882H704.589H31.5513ZM15.7595 243.275H2.79354H15.7595Z" stroke="#4171D6" stroke-width="3" stroke-linecap="round"/>
<path d="M228.996 65.5634H106.957C104.417 65.5634 102.357 67.6233 102.357 70.1643V236.891C102.357 239.432 104.417 241.492 106.957 241.492H228.996C231.536 241.492 233.596 239.432 233.596 236.891V70.1643C233.596 67.6233 231.536 65.5634 228.996 65.5634Z" fill="white" stroke="#4171D6" stroke-width="2"/>
<path fill-rule="evenodd" clip-rule="evenodd" d="M163.654 232.696C163.656 233.841 164.113 234.937 164.923 235.746C165.734 236.554 166.831 237.008 167.976 237.007C169.12 237.008 170.218 236.554 171.029 235.746C171.839 234.937 172.295 233.841 172.298 232.696C172.296 231.551 171.839 230.454 171.029 229.645C170.219 228.837 169.121 228.383 167.976 228.384C166.831 228.383 165.733 228.837 164.923 229.645C164.112 230.454 163.656 231.551 163.654 232.696V232.696Z" stroke="#4171D6"/>
<path fill-rule="evenodd" clip-rule="evenodd" d="M110 82.733H225.568V223.476H110V82.733Z" fill="#F6F9FC" stroke="#D8E7FE"/>
<path d="M187.69 137.295C181.41 135.543 174.828 132.702 169.153 129.291C168.836 129.101 168.473 129 168.104 129C167.734 129 167.372 129.101 167.055 129.291C161.134 132.849 155.07 135.467 148.518 137.294C148.079 137.42 147.692 137.686 147.418 138.052C147.144 138.418 146.997 138.864 147 139.321V149.598C147 160.559 151.971 167.819 156.142 171.979C160.946 176.77 166.12 179 168.104 179C170.089 179 175.263 176.77 180.067 171.979C184.237 167.819 189.209 160.559 189.209 149.596V139.321C189.209 138.374 188.587 137.545 187.69 137.294V137.295Z" fill="#42D185"/>
<path d="M156.276 158.013L152.554 148.425L154.886 148.165L157.449 155.073L159.926 148.165H162.301L158.564 158.013H156.276Z" fill="white"/>
<path d="M163.524 158.013V148.165H167.304C168.395 148.165 169.331 148.445 170.113 149.005C170.905 149.555 171.301 150.415 171.301 151.583C171.301 152.732 170.881 153.582 170.041 154.132C169.201 154.682 168.25 154.957 167.188 154.957H165.899V158.013H163.524ZM167.231 150.062H165.899V153.06H167.26C167.714 153.06 168.091 152.935 168.39 152.684C168.689 152.423 168.839 152.07 168.839 151.626C168.839 151.124 168.694 150.738 168.404 150.468C168.124 150.197 167.733 150.062 167.231 150.062Z" fill="white"/>
<path d="M181.562 148.165V158.013H179.303C178.627 157.077 177.946 156.121 177.261 155.146C176.585 154.171 175.914 153.215 175.248 152.278V158.013H172.872V148.165H175.132L179.187 154.016V148.165H181.562Z" fill="white"/>
<path fill-rule="evenodd" clip-rule="evenodd" d="M168.956 74.3604C168.955 73.9746 169.031 73.5924 169.178 73.2359C169.326 72.8794 169.542 72.5555 169.815 72.283C170.089 72.0104 170.413 71.7945 170.769 71.6477C171.126 71.5008 171.508 71.4259 171.894 71.4273C172.28 71.4259 172.662 71.5008 173.019 71.6477C173.376 71.7945 173.7 72.0104 173.973 72.283C174.246 72.5555 174.463 72.8794 174.61 73.2359C174.758 73.5924 174.833 73.9746 174.833 74.3604C174.833 74.7461 174.757 75.1282 174.61 75.4845C174.462 75.8409 174.246 76.1646 173.973 76.4371C173.7 76.7095 173.375 76.9253 173.019 77.0721C172.662 77.2188 172.28 77.2937 171.894 77.2923C171.508 77.2937 171.126 77.2188 170.769 77.072C170.413 76.9251 170.089 76.7092 169.815 76.4366C169.542 76.1641 169.326 75.8402 169.178 75.4837C169.031 75.1272 168.955 74.7451 168.956 74.3592V74.3604ZM163.079 74.3604C163.079 73.8198 163.514 73.3827 164.059 73.3827C164.599 73.3827 165.039 73.8163 165.039 74.3604C165.039 74.8999 164.604 75.3381 164.059 75.3381C163.93 75.3385 163.803 75.3136 163.684 75.2646C163.565 75.2157 163.457 75.1437 163.366 75.0529C163.275 74.962 163.202 74.8541 163.153 74.7353C163.104 74.6164 163.079 74.489 163.079 74.3604Z" fill="#4171D6"/>
<path fill-rule="evenodd" clip-rule="evenodd" d="M396.674 235.522H396.692C397.631 235.522 398.667 236.242 398.995 237.1L399.687 238.918V241.184H309.018V238.918L309.711 237.1C310.044 236.228 311.075 235.521 312.013 235.521H311.785C314.815 233.257 319.14 230.075 320.655 224.306C322.168 218.538 323.376 193.629 323.376 193.629H385.329C385.329 193.629 386.614 218.44 388.427 224.306C390.238 230.172 393.646 233.257 396.675 235.521L396.674 235.522Z" fill="white" stroke="#4171D6" stroke-width="2" stroke-linecap="round" stroke-linejoin="round"/>
<path d="M494.79 1.15024H213.915C210.104 1.15024 207.014 4.2401 207.014 8.05165V186.728C207.014 190.54 210.104 193.629 213.915 193.629H494.79C498.601 193.629 501.691 190.54 501.691 186.728V8.05165C501.691 4.2401 498.601 1.15024 494.79 1.15024Z" fill="white" stroke="#4171D6" stroke-width="2"/>
<path fill-rule="evenodd" clip-rule="evenodd" d="M354.262 8.78203C354.262 7.53173 355.269 6.51837 356.528 6.51837C357.782 6.51837 358.796 7.52253 358.796 8.78203C358.797 9.07982 358.738 9.37479 358.625 9.64999C358.511 9.92519 358.344 10.1752 358.133 10.3857C357.923 10.5961 357.672 10.7629 357.397 10.8763C357.122 10.9898 356.827 11.0478 356.529 11.0468C356.231 11.0478 355.936 10.9898 355.661 10.8763C355.386 10.7629 355.136 10.5961 354.925 10.3857C354.714 10.1752 354.547 9.92519 354.434 9.64999C354.32 9.37479 354.262 9.07982 354.262 8.78203ZM348.888 8.72337C348.888 8.09879 349.391 7.59154 350.021 7.59154C350.648 7.59154 351.155 8.09419 351.155 8.72337C351.155 8.87238 351.126 9.02001 351.069 9.15775C351.013 9.29549 350.929 9.42062 350.824 9.52594C350.718 9.63125 350.593 9.71466 350.455 9.77137C350.317 9.82808 350.17 9.85696 350.021 9.85635C349.872 9.85681 349.724 9.82781 349.587 9.77104C349.449 9.71426 349.324 9.63082 349.219 9.52553C349.113 9.42023 349.03 9.29515 348.973 9.15748C348.916 9.01982 348.887 8.87228 348.888 8.72337Z" fill="#4171D6"/>
<path fill-rule="evenodd" clip-rule="evenodd" d="M222 16.1804H484.943V176.957H222V16.1804Z" fill="#F6F9FC" stroke="#D8E7FE"/>
<path d="M379.083 74.6173C371.045 72.3753 362.62 68.738 355.355 64.3727C354.95 64.1289 354.486 64 354.013 64C353.54 64 353.076 64.1289 352.67 64.3727C345.091 68.9269 337.33 72.2778 328.943 74.6158C328.381 74.777 327.886 75.118 327.535 75.5866C327.184 76.0552 326.996 76.6258 327 77.2112V90.365C327 104.396 333.363 113.689 338.702 119.014C344.85 125.146 351.473 128 354.014 128C356.554 128 363.177 125.146 369.325 119.014C374.663 113.689 381.027 104.396 381.027 90.3634V77.2112C381.027 75.9988 380.231 74.9372 379.083 74.6158V74.6173Z" fill="#42D185"/>
<path d="M338.873 101.137L334.109 88.8646L337.094 88.5309L340.375 97.3738L343.545 88.5309H346.585L341.802 101.137H338.873Z" fill="white"/>
<path d="M348.15 101.137V88.5309H352.989C354.385 88.5309 355.584 88.8893 356.585 89.6061C357.599 90.3106 358.105 91.4106 358.105 92.906C358.105 94.3768 357.568 95.4644 356.493 96.1688C355.417 96.8733 354.2 97.2255 352.84 97.2255H351.19V101.137H348.15ZM352.896 90.9595H351.19V94.797H352.933C353.514 94.797 353.996 94.6363 354.379 94.315C354.762 93.9813 354.954 93.5302 354.954 92.9616C354.954 92.319 354.768 91.8246 354.398 91.4785C354.039 91.1325 353.539 90.9595 352.896 90.9595Z" fill="white"/>
<path d="M371.24 88.5309V101.137H368.348C367.483 99.9384 366.611 98.7148 365.734 97.4665C364.869 96.2183 364.01 94.9947 363.157 93.7959V101.137H360.117V88.5309H363.009L368.199 96.0205V88.5309H371.24Z" fill="white"/>
<path d="M381.375 234.276H655.206C655.206 234.276 647.382 242.103 636.037 242.103H400.544C388.808 242.103 381.375 234.276 381.375 234.276Z" fill="white"/>
<path d="M383.114 235.821C382.428 235.272 382.826 234.276 383.704 234.276H652.792C653.683 234.276 654.078 235.295 653.373 235.841C650.424 238.125 644.125 242.103 636.037 242.103H400.544C392.153 242.103 385.961 238.101 383.114 235.821Z" stroke="#4171D6" stroke-width="2"/>
<path fill-rule="evenodd" clip-rule="evenodd" d="M500.687 235.43C500.687 234.793 501.21 234.276 501.837 234.276H538.657C539.292 234.276 539.807 234.788 539.807 235.43V237.037C539.807 237.673 539.282 238.189 538.657 238.189H501.837C501.202 238.189 500.687 237.678 500.687 237.037V235.43Z" fill="#4171D6"/>
<path fill-rule="evenodd" clip-rule="evenodd" d="M410.715 85.1266C410.714 84.2119 411.075 83.3339 411.72 82.6853C412.365 82.0366 413.24 81.6703 414.155 81.6667H626.337C627.251 81.67 628.127 82.0362 628.772 82.6849C629.418 83.3335 629.779 84.2117 629.778 85.1266V224.494H410.715V85.1266ZM410.715 224.494H629.779V234.276H410.715V224.494Z" fill="white" stroke="#4171D6" stroke-width="2"/>
<path fill-rule="evenodd" clip-rule="evenodd" d="M508.511 229.386C508.511 228.845 508.959 228.408 509.49 228.408H531.003C531.544 228.408 531.982 228.842 531.982 229.386C531.982 229.926 531.534 230.363 531.004 230.363H509.49C509.361 230.363 509.234 230.338 509.115 230.289C508.997 230.24 508.889 230.168 508.798 230.077C508.707 229.986 508.635 229.879 508.586 229.76C508.537 229.641 508.512 229.514 508.512 229.386H508.511Z" fill="#4171D6"/>
<path fill-rule="evenodd" clip-rule="evenodd" d="M422.45 95.3625H618.043V218.624H422.449L422.45 95.3625Z" fill="#F6F9FC" stroke="#D8E7FE"/>
<path d="M539.089 140.973C533.019 139.28 526.657 136.533 521.171 133.236C520.865 133.052 520.514 132.955 520.157 132.955C519.8 132.955 519.449 133.052 519.143 133.236C513.419 136.675 507.559 139.206 501.225 140.972C500.8 141.093 500.427 141.351 500.162 141.705C499.897 142.059 499.755 142.49 499.758 142.932V152.865C499.758 163.461 504.563 170.479 508.595 174.5C513.238 179.131 518.239 181.286 520.158 181.286C522.076 181.286 527.078 179.131 531.721 174.5C535.752 170.479 540.558 163.461 540.558 152.864V142.932C540.558 142.016 539.956 141.214 539.089 140.972V140.973Z" fill="#42D185"/>
<path d="M508.724 161L505.126 151.732L507.38 151.48L509.858 158.158L512.252 151.48H514.548L510.936 161H508.724Z" fill="white"/>
<path d="M515.73 161V151.48H519.384C520.438 151.48 521.344 151.751 522.1 152.292C522.865 152.824 523.248 153.655 523.248 154.784C523.248 155.895 522.842 156.716 522.03 157.248C521.218 157.78 520.298 158.046 519.272 158.046H518.026V161H515.73ZM519.314 153.314H518.026V156.212H519.342C519.78 156.212 520.144 156.091 520.434 155.848C520.723 155.596 520.868 155.255 520.868 154.826C520.868 154.341 520.728 153.967 520.448 153.706C520.177 153.445 519.799 153.314 519.314 153.314Z" fill="white"/>
<path d="M533.166 151.48V161H530.982C530.329 160.095 529.671 159.171 529.008 158.228C528.355 157.285 527.706 156.361 527.062 155.456V161H524.766V151.48H526.95L530.87 157.136V151.48H533.166Z" fill="white"/>
<path d="M521.225 89.6643C521.86 89.6643 522.375 89.1493 522.375 88.514C522.375 87.8788 521.86 87.3638 521.225 87.3638C520.59 87.3638 520.075 87.8788 520.075 88.514C520.075 89.1493 520.59 89.6643 521.225 89.6643Z" fill="#4171D6"/>
<path d="M305.04 139.178H256.468C255.197 139.178 254.167 140.208 254.167 141.479V238.952C254.167 240.223 255.197 241.253 256.468 241.253H305.04C306.31 241.253 307.34 240.223 307.34 238.952V141.479C307.34 140.208 306.31 139.178 305.04 139.178Z" fill="white" stroke="#4171D6" stroke-width="2"/>
<path fill-rule="evenodd" clip-rule="evenodd" d="M278.374 234.382C278.374 235.697 279.435 236.752 280.754 236.752C281.066 236.753 281.375 236.693 281.664 236.575C281.952 236.456 282.215 236.282 282.436 236.062C282.657 235.841 282.832 235.58 282.952 235.291C283.071 235.003 283.133 234.694 283.132 234.382C283.132 233.067 282.072 232.013 280.754 232.013C280.442 232.011 280.132 232.071 279.844 232.189C279.555 232.308 279.292 232.482 279.071 232.702C278.85 232.923 278.675 233.184 278.555 233.473C278.435 233.761 278.374 234.07 278.374 234.382V234.382Z" stroke="#4171D6"/>
<path fill-rule="evenodd" clip-rule="evenodd" d="M258 153.187H303.295V227.78H258V153.187Z" fill="#F6F9FC" stroke="#D8E7FE"/>
<path d="M290.345 183.147C287.205 182.272 283.914 180.851 281.076 179.146C280.918 179.05 280.737 179 280.552 179C280.367 179 280.186 179.05 280.028 179.146C277.067 180.925 274.035 182.234 270.759 183.147C270.539 183.21 270.346 183.343 270.209 183.526C270.072 183.709 269.999 183.932 270 184.161V189.299C270 194.78 272.485 198.41 274.571 200.49C276.973 202.885 279.56 204 280.552 204C281.545 204 284.132 202.885 286.533 200.49C288.618 198.41 291.104 194.78 291.104 189.298V184.161C291.104 183.687 290.793 183.272 290.345 183.147V183.147Z" fill="#42D185"/>
<path d="M274.638 193.507L272.777 188.713L273.943 188.582L275.225 192.037L276.463 188.582H277.651L275.782 193.507H274.638Z" fill="white"/>
<path d="M278.262 193.507V188.582H280.152C280.697 188.582 281.166 188.722 281.557 189.002C281.953 189.278 282.151 189.707 282.151 190.291C282.151 190.866 281.941 191.291 281.521 191.566C281.101 191.841 280.625 191.979 280.094 191.979H279.449V193.507H278.262ZM280.116 189.531H279.449V191.03H280.13C280.357 191.03 280.545 190.967 280.695 190.842C280.845 190.711 280.919 190.535 280.919 190.313C280.919 190.062 280.847 189.869 280.702 189.734C280.562 189.599 280.367 189.531 280.116 189.531Z" fill="white"/>
<path d="M287.281 188.582V193.507H286.151C285.814 193.038 285.473 192.56 285.13 192.073C284.792 191.585 284.457 191.107 284.124 190.639V193.507H282.936V188.582H284.066L286.094 191.508V188.582H287.281Z" fill="white"/>
<path fill-rule="evenodd" clip-rule="evenodd" d="M271.891 146.049C271.891 145.507 272.328 145.068 272.876 145.068C273.136 145.068 273.386 145.171 273.57 145.355C273.754 145.539 273.857 145.789 273.857 146.049C273.857 146.31 273.754 146.559 273.57 146.744C273.386 146.928 273.136 147.031 272.876 147.031C272.747 147.032 272.619 147.006 272.499 146.957C272.38 146.908 272.271 146.836 272.179 146.745C272.088 146.653 272.015 146.545 271.966 146.425C271.917 146.306 271.891 146.178 271.891 146.049ZM275.83 146.049C275.83 145.507 276.279 145.068 276.81 145.068H284.697C284.826 145.067 284.954 145.092 285.073 145.142C285.192 145.191 285.3 145.263 285.391 145.354C285.482 145.446 285.555 145.554 285.604 145.673C285.653 145.792 285.678 145.92 285.677 146.049C285.677 146.591 285.229 147.03 284.697 147.03H276.81C276.681 147.03 276.554 147.005 276.435 146.956C276.316 146.907 276.207 146.834 276.116 146.743C276.025 146.652 275.953 146.544 275.904 146.424C275.855 146.305 275.83 146.178 275.83 146.049Z" fill="#4171D6"/>
</svg>
