<svg width="867" height="333" viewBox="0 0 867 333" fill="none" xmlns="http://www.w3.org/2000/svg">
<path d="M74.691 192.747H3.49692C2.11791 192.747 1 193.865 1 195.244V292.591C1 293.97 2.11791 295.088 3.49692 295.088H74.691C76.07 295.088 77.188 293.97 77.188 292.591V195.244C77.188 193.865 76.07 192.747 74.691 192.747Z" fill="white" stroke="#4171D6" stroke-width="2"/>
<path fill-rule="evenodd" clip-rule="evenodd" d="M38.9682 287.443C38.2989 287.476 37.6972 287.77 37.263 288.225C36.8298 288.679 36.5633 289.294 36.5633 289.971C36.5633 290.668 36.8469 291.301 37.3053 291.76C37.7652 292.22 38.4015 292.499 39.2196 292.498C39.889 292.465 40.4908 292.172 40.925 291.716C41.3602 291.26 41.6229 290.642 41.6217 289.845C41.5886 289.171 41.2904 288.566 40.8137 288.132C40.3433 287.704 39.7002 287.443 38.9682 287.443Z" stroke="#4171D6"/>
<path fill-rule="evenodd" clip-rule="evenodd" d="M5.50381 202.754H72.5947V284.626H5.50381V202.754Z" fill="#F6F9FC" stroke="#D8E7FE"/>
<path fill-rule="evenodd" clip-rule="evenodd" d="M39.6626 197.864C39.6626 196.922 40.4282 196.159 41.3683 196.159C42.3103 196.159 43.074 196.924 43.074 197.864C43.074 198.806 42.3084 199.57 41.3683 199.57C40.4262 199.57 39.6626 198.805 39.6626 197.864Z" fill="#4171D6"/>
<path fill-rule="evenodd" clip-rule="evenodd" d="M36.2512 197.864C36.2512 197.55 36.5035 197.296 36.8197 197.296C37.1337 197.296 37.3883 197.548 37.3883 197.864C37.3883 198.178 37.1359 198.433 36.8197 198.433C36.5057 198.433 36.2512 198.181 36.2512 197.864Z" fill="#4171D6"/>
<path d="M45.3039 289.718H236.852C236.852 289.718 231.379 295.191 223.444 295.191H58.7122C50.503 295.191 45.3039 289.718 45.3039 289.718Z" fill="white"/>
<path d="M47.0753 291.226C46.37 290.702 46.7546 289.718 47.6332 289.718H234.438C235.329 289.718 235.711 290.726 234.988 291.247C232.742 292.866 228.616 295.191 223.444 295.191H58.7122C53.3392 295.191 49.2556 292.846 47.0753 291.226Z" stroke="#4171D6" stroke-width="2"/>
<path fill-rule="evenodd" clip-rule="evenodd" d="M128.764 290.466C128.764 290.053 129.1 289.718 129.51 289.718H155.382C155.794 289.718 156.128 290.053 156.128 290.466V291.706C156.128 292.119 155.792 292.454 155.382 292.454H129.51C129.098 292.454 128.764 292.119 128.764 291.706V290.466Z" fill="#4171D6"/>
<path fill-rule="evenodd" clip-rule="evenodd" d="M65.8269 185.25C65.8269 184.007 66.8357 183 68.082 183H216.81C218.056 183 219.065 184.005 219.065 185.25V282.877H65.8269V185.25Z" fill="white" stroke="#4171D6" stroke-width="2"/>
<path fill-rule="evenodd" clip-rule="evenodd" d="M65.8269 282.877H219.065V289.718H65.8269V282.877Z" fill="white" stroke="#4171D6" stroke-width="2"/>
<path fill-rule="evenodd" clip-rule="evenodd" d="M134.237 286.297C134.237 285.92 134.55 285.613 134.921 285.613H149.971C150.349 285.613 150.655 285.917 150.655 286.297C150.655 286.675 150.342 286.982 149.971 286.982H134.921C134.543 286.982 134.237 286.678 134.237 286.297Z" fill="#4171D6"/>
<path d="M210.856 192.577H74.036V278.772H210.856V192.577Z" fill="#F6F9FC" stroke="#D8E7FE"/>
<path d="M143.13 188.54C143.545 188.54 143.881 188.203 143.881 187.789C143.881 187.374 143.545 187.038 143.13 187.038C142.715 187.038 142.379 187.374 142.379 187.789C142.379 188.203 142.715 188.54 143.13 188.54Z" fill="#4171D6"/>
<path d="M128.438 223.936H94.5006C93.671 223.936 92.9985 224.609 92.9985 225.439V293.58C92.9985 294.409 93.671 295.082 94.5006 295.082H128.438C129.267 295.082 129.94 294.409 129.94 293.58V225.439C129.94 224.609 129.267 223.936 128.438 223.936Z" fill="white" stroke="#4171D6" stroke-width="2"/>
<path fill-rule="evenodd" clip-rule="evenodd" d="M111.356 288.62C110.921 288.649 110.53 288.845 110.248 289.145C109.966 289.445 109.792 289.849 109.792 290.293C109.792 290.755 109.98 291.175 110.284 291.478C110.59 291.785 111.016 291.967 111.581 291.966C112.017 291.937 112.408 291.741 112.69 291.441C112.976 291.138 113.143 290.728 113.142 290.181C113.113 289.742 112.914 289.349 112.596 289.068C112.281 288.788 111.85 288.621 111.356 288.62Z" stroke="#4171D6"/>
<path fill-rule="evenodd" clip-rule="evenodd" d="M95.7349 233.514H127.204V285.504H95.7349V233.514Z" fill="#F6F9FC" stroke="#D8E7FE"/>
<path fill-rule="evenodd" clip-rule="evenodd" d="M105.312 228.725C105.312 228.347 105.616 228.041 105.996 228.041C106.374 228.041 106.68 228.345 106.68 228.725C106.68 229.103 106.377 229.409 105.996 229.409C105.619 229.409 105.312 229.106 105.312 228.725Z" fill="#4171D6"/>
<path fill-rule="evenodd" clip-rule="evenodd" d="M108.049 228.725C108.049 228.347 108.36 228.041 108.73 228.041H114.209C114.585 228.041 114.89 228.345 114.89 228.725C114.89 229.103 114.578 229.409 114.209 229.409H108.73C108.354 229.409 108.049 229.106 108.049 228.725Z" fill="#4171D6"/>
<path d="M780.5 317C819.436 317 851 285.436 851 246.5C851 207.564 819.436 176 780.5 176C741.564 176 710 207.564 710 246.5C710 285.436 741.564 317 780.5 317Z" fill="#F6F9FC"/>
<path d="M789.71 256.201C789.71 253.312 787.36 250.961 784.47 250.961C784.36 250.961 784.25 250.966 784.141 250.972V251.636C784.251 251.628 784.359 251.619 784.47 251.619C786.997 251.619 789.052 253.675 789.052 256.201C789.052 258.728 786.997 260.783 784.47 260.783C784.396 260.783 784.324 260.775 784.251 260.772V261.019V261.435V262.738H782.624V263.616H786.317V262.738H784.909V261.421C787.594 261.197 789.71 258.942 789.71 256.201Z" fill="#6B7C93"/>
<path d="M803.001 219.166L803.091 219.893L802.001 220.124L801.854 221.679H803.168L804.912 221.512L805.809 220.439L804.854 220.068L804.328 219.464L803.54 218.187L803.168 216.386L801.681 216.684L801.271 217.322V218.036L801.982 218.525L803.001 219.166Z" fill="#6B7C93"/>
<path d="M801.739 219.762L801.815 218.788L800.95 218.414L799.735 218.697L798.828 220.14V221.079H799.883L801.739 219.762Z" fill="#6B7C93"/>
<path d="M776.735 223.908L776.466 224.597H775.17V225.267H775.479C775.479 225.267 775.498 225.408 775.525 225.595L776.318 225.53L776.81 225.22L776.939 224.6L777.583 224.544L777.834 224.023L777.244 223.901L776.735 223.908Z" fill="#6B7C93"/>
<path d="M773.394 225.122L773.346 225.775L774.287 225.696L774.383 225.041L773.819 224.597L773.394 225.122Z" fill="#6B7C93"/>
<path d="M829.702 245.985C829.689 244.544 829.615 243.117 829.48 241.708C829.022 237.016 827.903 232.519 826.218 228.305C826.096 227.994 825.981 227.675 825.849 227.364C823.609 222.073 820.462 217.256 816.616 213.098C816.366 212.825 816.109 212.559 815.853 212.293C815.122 211.538 814.382 210.799 813.603 210.094C804.854 202.125 793.228 197.262 780.49 197.262C767.645 197.262 755.935 202.215 747.16 210.301C745.115 212.186 743.237 214.247 741.531 216.448C735.101 224.768 731.262 235.188 731.262 246.49C731.262 273.632 753.346 295.718 780.49 295.718C799.585 295.718 816.161 284.782 824.321 268.851C826.064 265.45 827.423 261.819 828.339 258.012C828.57 257.05 828.775 256.076 828.948 255.092C829.445 252.296 829.717 249.421 829.717 246.487C829.711 246.323 829.702 246.155 829.702 245.985ZM820.436 226.31L820.718 225.989C821.093 226.717 821.449 227.452 821.779 228.204L821.308 228.185L820.433 228.305V226.31H820.436V226.31ZM813.321 217.717L813.327 215.519C814.103 216.339 814.847 217.184 815.558 218.06L814.673 219.379L811.571 219.348L811.379 218.703L813.321 217.717ZM753.94 212.258V212.175H754.924L755.014 211.836H756.624V212.54L756.158 213.157H753.937V212.258H753.94V212.258ZM755.515 214.453C755.515 214.453 756.502 214.285 756.589 214.285C756.671 214.285 756.589 215.271 756.589 215.271L754.36 215.412L753.937 214.902L755.515 214.453ZM823.571 233.992H819.968L817.77 232.359L815.462 232.582V233.992H814.732L813.946 233.431L809.943 232.419V229.826L804.873 230.218L803.299 231.063H801.29L800.299 230.964L797.857 232.322V234.875L792.865 238.479L793.279 240.019H794.293L794.027 241.485L793.316 241.748L793.279 245.578L797.591 250.494H799.472L799.585 250.196H802.963L803.937 249.295H805.853L806.905 250.347L809.753 250.642L809.379 254.436L812.552 260.03L810.879 263.222L810.991 264.723L812.308 266.033V269.645L814.032 271.966V274.972H815.519C807.231 285.154 794.604 291.67 780.48 291.67C755.568 291.67 735.302 271.408 735.302 246.493C735.302 240.222 736.588 234.245 738.909 228.814V227.406L740.524 225.445C741.085 224.384 741.686 223.353 742.328 222.345L742.397 223.166L740.524 225.445C739.943 226.544 739.398 227.666 738.909 228.815V231.383L740.782 232.287V235.86L742.585 238.932L744.051 239.155L744.239 238.102L742.516 235.437L742.175 232.848H743.189L743.619 235.516L746.116 239.155L745.473 240.333L747.055 242.759L750.997 243.733V243.097L752.572 243.32L752.425 244.445L753.662 244.673L755.578 245.193L758.281 248.275L761.731 248.534L762.073 251.35L759.706 253.001L759.598 255.515L759.257 257.056L762.674 261.332L762.935 262.799C762.935 262.799 764.173 263.133 764.327 263.133C764.475 263.133 767.103 265.126 767.103 265.126V272.857L768.039 273.122L767.406 276.686L768.981 278.792L768.686 282.33L770.773 285.991L773.447 288.327L776.131 288.381L776.394 287.513L774.418 285.85L774.533 285.026L774.884 284.01L774.96 282.978L773.625 282.939L772.952 282.094L774.061 281.023L774.212 280.219L772.971 279.863L773.043 279.113L774.809 278.844L777.493 277.555L778.394 275.898L781.206 272.296L780.569 269.479L781.432 267.979L784.025 268.055L785.77 266.671L786.336 261.238L788.278 258.79L788.619 257.216L786.857 256.652L785.691 254.737L781.714 254.697L778.557 253.497L778.41 251.246L777.359 249.404L774.508 249.364L772.854 246.776L771.393 246.063L771.317 246.852L768.649 247.009L767.675 245.65L764.895 245.086L762.605 247.735L759.001 247.12L758.738 243.057L756.11 242.607L757.16 240.615L756.859 239.471L753.402 241.78L751.229 241.514L750.452 239.815L750.931 238.062L752.128 235.854L754.886 234.455H760.216L760.198 236.08L762.115 236.973L761.961 234.197L763.342 232.808L766.129 230.976L766.323 229.691L769.1 226.798L772.053 225.161L771.794 224.948L773.795 223.065L774.528 223.259L774.863 223.678L775.624 222.834L775.811 222.752L774.978 222.633L774.127 222.361V221.544L774.578 221.177H775.565L776.021 221.377L776.413 222.166L776.892 222.092V222.025L777.03 222.07L778.414 221.857L778.611 221.177L779.398 221.378V222.113L778.663 222.615H778.668L778.772 223.422L781.286 224.193C781.286 224.193 781.286 224.203 781.292 224.223L781.866 224.174L781.906 223.087L779.917 222.182L779.808 221.659L781.456 221.099L781.531 219.52L779.808 218.471L779.695 215.804L777.328 216.968H776.461L776.691 214.939L773.467 214.181L772.139 215.189V218.256L769.747 219.015L768.785 221.014L767.748 221.18V218.621L765.497 218.309L764.367 217.573L763.915 215.916L767.945 213.56L769.915 212.959L770.113 214.284L771.214 214.225L771.299 213.56L772.448 213.395L772.468 213.163L771.976 212.959L771.863 212.257L773.275 212.139L774.128 211.252L774.177 211.187L774.187 211.19L774.447 210.921L777.413 210.547L778.722 211.66L775.283 213.491L779.661 214.525L780.225 213.06H782.142L782.815 211.784L781.462 211.446V209.831L777.225 207.954L774.296 208.292L772.641 209.154L772.753 211.258L771.027 210.996L770.761 209.834L772.418 208.331L769.412 208.183L768.55 208.446L768.175 209.46L769.302 209.649L769.077 210.776L767.164 210.888L766.863 211.64L764.084 211.716C764.084 211.716 764.008 210.141 763.89 210.141C763.782 210.141 766.069 210.101 766.069 210.101L767.723 208.487L766.821 208.037L765.624 209.202L763.632 209.09L762.417 207.429H759.864L757.199 209.418H759.64L759.86 210.135L759.223 210.734L761.929 210.811L762.339 211.785L759.296 211.673L759.145 210.921L757.235 210.508L756.217 209.947L753.94 209.966C761.4 204.532 770.569 201.316 780.483 201.316C791.904 201.316 802.348 205.585 810.309 212.602L809.777 213.56L807.69 214.377L806.809 215.332L807.014 216.441L808.088 216.592L808.738 218.21L810.588 217.462L810.899 219.63H810.334L808.812 219.404L807.126 219.686L805.492 221.997L803.159 222.361L802.822 224.361L803.809 224.593L803.521 225.88L801.2 225.413L799.075 225.88L798.623 227.064L798.989 229.549L800.239 230.133L802.338 230.12L803.751 229.992L804.187 228.867L806.398 225.992L807.85 226.29L809.283 224.994L809.552 226.008L813.077 228.386L812.648 228.968L811.058 228.883L811.673 229.748L812.654 229.966L813.801 229.487L813.776 228.107L814.289 227.852L813.878 227.418L811.526 226.105L810.904 224.364H812.863L813.481 224.984L815.173 226.434L815.241 228.19L816.987 230.048L817.635 227.501L818.846 226.841L819.068 228.924L820.25 230.221L822.606 230.182C823.064 231.354 823.474 232.544 823.827 233.762L823.571 233.992ZM758.108 219.631L759.286 219.067L760.357 219.323L759.991 220.76L758.837 221.124L758.108 219.631ZM764.383 223.012V223.942H761.685L760.667 223.658L760.92 223.012L762.217 222.477H763.992V223.012H764.383V223.012ZM765.627 224.308V225.207L764.948 225.643L764.108 225.802V224.308H765.627V224.308ZM764.866 223.942V222.868L765.793 223.714L764.866 223.942ZM765.289 226.106V226.983L764.641 227.63H763.204L763.428 226.645L764.107 226.585L764.245 226.247L765.289 226.106ZM761.712 224.308H763.204L761.287 226.983L760.501 226.56L760.671 225.433L761.712 224.308ZM767.819 225.802V226.675H766.382L765.991 226.106V225.292H766.103L767.819 225.802ZM766.5 224.597L766.907 224.167L767.596 224.597L767.045 225.054L766.5 224.597ZM824.301 236.274L824.442 236.106C824.506 236.362 824.564 236.618 824.625 236.875L824.301 236.274Z" fill="#6B7C93"/>
<path d="M738.912 227.403V228.811C739.401 227.659 739.946 226.541 740.527 225.44L738.912 227.403Z" fill="#6B7C93"/>
<circle cx="781" cy="176" r="16" fill="white"/>
<path d="M797 176C797 167.165 789.835 160 781 160C772.165 160 765 167.165 765 176C765 184.835 772.165 192 781 192C781.094 192 781.188 191.998 781.281 191.996V179.541H777.844V175.535H781.281V172.587C781.281 169.168 783.368 167.307 786.418 167.307C787.879 167.307 789.134 167.416 789.5 167.465V171.038H787.397C785.738 171.038 785.417 171.826 785.417 172.983V175.535H789.384L788.867 179.541H785.417V191.382C792.104 189.465 797 183.303 797 176Z" fill="#4171D6"/>
<path d="M297.5 246.5C297.5 252.677 296.72 258.25 295.472 262.261C294.847 264.27 294.114 265.859 293.322 266.936C292.523 268.022 291.732 268.5 291 268.5C290.268 268.5 289.477 268.022 288.678 266.936C287.886 265.859 287.153 264.27 286.528 262.261C285.28 258.25 284.5 252.677 284.5 246.5C284.5 240.323 285.28 234.75 286.528 230.739C287.153 228.73 287.886 227.141 288.678 226.064C289.477 224.978 290.268 224.5 291 224.5C291.732 224.5 292.523 224.978 293.322 226.064C294.114 227.141 294.847 228.73 295.472 230.739C296.72 234.75 297.5 240.323 297.5 246.5Z" fill="#52C086" stroke="#42D185"/>
<path d="M265.04 244H261.022L260.896 243.02H262.408V237.658L261.512 238.232L260.882 237.308L262.856 236.076H263.752V243.02H264.914L265.04 244ZM266.568 239.996C266.568 238.717 266.89 237.714 267.534 236.986C268.187 236.258 269.027 235.894 270.054 235.894C271.08 235.894 271.916 236.249 272.56 236.958C273.204 237.658 273.526 238.661 273.526 239.968C273.526 241.247 273.194 242.269 272.532 243.034C271.869 243.799 271.043 244.182 270.054 244.182C269.046 244.182 268.21 243.813 267.548 243.076C266.894 242.329 266.568 241.303 266.568 239.996ZM267.856 239.954C267.856 240.925 268.066 241.681 268.486 242.222C268.906 242.763 269.428 243.034 270.054 243.034C270.66 243.034 271.178 242.768 271.608 242.236C272.037 241.695 272.252 240.957 272.252 240.024C272.252 239.053 272.042 238.316 271.622 237.812C271.202 237.299 270.679 237.042 270.054 237.042C269.438 237.042 268.915 237.294 268.486 237.798C268.066 238.302 267.856 239.021 267.856 239.954ZM279.382 244H275.364L275.238 243.02H276.75V237.658L275.854 238.232L275.224 237.308L277.198 236.076H278.094V243.02H279.256L279.382 244ZM280.909 239.996C280.909 238.717 281.231 237.714 281.875 236.986C282.529 236.258 283.369 235.894 284.395 235.894C285.422 235.894 286.257 236.249 286.901 236.958C287.545 237.658 287.867 238.661 287.867 239.968C287.867 241.247 287.536 242.269 286.873 243.034C286.211 243.799 285.385 244.182 284.395 244.182C283.387 244.182 282.552 243.813 281.889 243.076C281.236 242.329 280.909 241.303 280.909 239.996ZM282.197 239.954C282.197 240.925 282.407 241.681 282.827 242.222C283.247 242.763 283.77 243.034 284.395 243.034C285.002 243.034 285.52 242.768 285.949 242.236C286.379 241.695 286.593 240.957 286.593 240.024C286.593 239.053 286.383 238.316 285.963 237.812C285.543 237.299 285.021 237.042 284.395 237.042C283.779 237.042 283.257 237.294 282.827 237.798C282.407 238.302 282.197 239.021 282.197 239.954ZM293.724 244H289.706L289.58 243.02H291.092V237.658L290.196 238.232L289.566 237.308L291.54 236.076H292.436V243.02H293.598L293.724 244ZM295.251 239.996C295.251 238.717 295.573 237.714 296.217 236.986C296.87 236.258 297.71 235.894 298.737 235.894C299.764 235.894 300.599 236.249 301.243 236.958C301.887 237.658 302.209 238.661 302.209 239.968C302.209 241.247 301.878 242.269 301.215 243.034C300.552 243.799 299.726 244.182 298.737 244.182C297.729 244.182 296.894 243.813 296.231 243.076C295.578 242.329 295.251 241.303 295.251 239.996ZM296.539 239.954C296.539 240.925 296.749 241.681 297.169 242.222C297.589 242.763 298.112 243.034 298.737 243.034C299.344 243.034 299.862 242.768 300.291 242.236C300.72 241.695 300.935 240.957 300.935 240.024C300.935 239.053 300.725 238.316 300.305 237.812C299.885 237.299 299.362 237.042 298.737 237.042C298.121 237.042 297.598 237.294 297.169 237.798C296.749 238.302 296.539 239.021 296.539 239.954ZM308.065 244H304.047L303.921 243.02H305.433V237.658L304.537 238.232L303.907 237.308L305.881 236.076H306.777V243.02H307.939L308.065 244ZM309.593 239.996C309.593 238.717 309.915 237.714 310.559 236.986C311.212 236.258 312.052 235.894 313.079 235.894C314.106 235.894 314.941 236.249 315.585 236.958C316.229 237.658 316.551 238.661 316.551 239.968C316.551 241.247 316.22 242.269 315.557 243.034C314.894 243.799 314.068 244.182 313.079 244.182C312.071 244.182 311.236 243.813 310.573 243.076C309.92 242.329 309.593 241.303 309.593 239.996ZM310.881 239.954C310.881 240.925 311.091 241.681 311.511 242.222C311.931 242.763 312.454 243.034 313.079 243.034C313.686 243.034 314.204 242.768 314.633 242.236C315.062 241.695 315.277 240.957 315.277 240.024C315.277 239.053 315.067 238.316 314.647 237.812C314.227 237.299 313.704 237.042 313.079 237.042C312.463 237.042 311.94 237.294 311.511 237.798C311.091 238.302 310.881 239.021 310.881 239.954ZM322.407 244H318.389L318.263 243.02H319.775V237.658L318.879 238.232L318.249 237.308L320.223 236.076H321.119V243.02H322.281L322.407 244ZM323.935 239.996C323.935 238.717 324.257 237.714 324.901 236.986C325.554 236.258 326.394 235.894 327.421 235.894C328.447 235.894 329.283 236.249 329.927 236.958C330.571 237.658 330.893 238.661 330.893 239.968C330.893 241.247 330.561 242.269 329.899 243.034C329.236 243.799 328.41 244.182 327.421 244.182C326.413 244.182 325.577 243.813 324.915 243.076C324.261 242.329 323.935 241.303 323.935 239.996ZM325.223 239.954C325.223 240.925 325.433 241.681 325.853 242.222C326.273 242.763 326.795 243.034 327.421 243.034C328.027 243.034 328.545 242.768 328.975 242.236C329.404 241.695 329.619 240.957 329.619 240.024C329.619 239.053 329.409 238.316 328.989 237.812C328.569 237.299 328.046 237.042 327.421 237.042C326.805 237.042 326.282 237.294 325.853 237.798C325.433 238.302 325.223 239.021 325.223 239.954ZM336.749 244H332.731L332.605 243.02H334.117V237.658L333.221 238.232L332.591 237.308L334.565 236.076H335.461V243.02H336.623L336.749 244ZM338.277 239.996C338.277 238.717 338.599 237.714 339.243 236.986C339.896 236.258 340.736 235.894 341.763 235.894C342.789 235.894 343.625 236.249 344.269 236.958C344.913 237.658 345.235 238.661 345.235 239.968C345.235 241.247 344.903 242.269 344.241 243.034C343.578 243.799 342.752 244.182 341.763 244.182C340.755 244.182 339.919 243.813 339.257 243.076C338.603 242.329 338.277 241.303 338.277 239.996ZM339.565 239.954C339.565 240.925 339.775 241.681 340.195 242.222C340.615 242.763 341.137 243.034 341.763 243.034C342.369 243.034 342.887 242.768 343.317 242.236C343.746 241.695 343.961 240.957 343.961 240.024C343.961 239.053 343.751 238.316 343.331 237.812C342.911 237.299 342.388 237.042 341.763 237.042C341.147 237.042 340.624 237.294 340.195 237.798C339.775 238.302 339.565 239.021 339.565 239.954ZM351.091 244H347.073L346.947 243.02H348.459V237.658L347.563 238.232L346.933 237.308L348.907 236.076H349.803V243.02H350.965L351.091 244ZM352.618 239.996C352.618 238.717 352.94 237.714 353.584 236.986C354.238 236.258 355.078 235.894 356.104 235.894C357.131 235.894 357.966 236.249 358.61 236.958C359.254 237.658 359.576 238.661 359.576 239.968C359.576 241.247 359.245 242.269 358.582 243.034C357.92 243.799 357.094 244.182 356.104 244.182C355.096 244.182 354.261 243.813 353.598 243.076C352.945 242.329 352.618 241.303 352.618 239.996ZM353.906 239.954C353.906 240.925 354.116 241.681 354.536 242.222C354.956 242.763 355.479 243.034 356.104 243.034C356.711 243.034 357.229 242.768 357.658 242.236C358.088 241.695 358.302 240.957 358.302 240.024C358.302 239.053 358.092 238.316 357.672 237.812C357.252 237.299 356.73 237.042 356.104 237.042C355.488 237.042 354.966 237.294 354.536 237.798C354.116 238.302 353.906 239.021 353.906 239.954ZM361.191 239.996C361.191 238.717 361.513 237.714 362.157 236.986C362.81 236.258 363.65 235.894 364.677 235.894C365.703 235.894 366.539 236.249 367.183 236.958C367.827 237.658 368.149 238.661 368.149 239.968C368.149 241.247 367.817 242.269 367.155 243.034C366.492 243.799 365.666 244.182 364.677 244.182C363.669 244.182 362.833 243.813 362.171 243.076C361.517 242.329 361.191 241.303 361.191 239.996ZM362.479 239.954C362.479 240.925 362.689 241.681 363.109 242.222C363.529 242.763 364.051 243.034 364.677 243.034C365.283 243.034 365.801 242.768 366.231 242.236C366.66 241.695 366.875 240.957 366.875 240.024C366.875 239.053 366.665 238.316 366.245 237.812C365.825 237.299 365.302 237.042 364.677 237.042C364.061 237.042 363.538 237.294 363.109 237.798C362.689 238.302 362.479 239.021 362.479 239.954ZM374.005 244H369.987L369.861 243.02H371.373V237.658L370.477 238.232L369.847 237.308L371.821 236.076H372.717V243.02H373.879L374.005 244ZM375.532 239.996C375.532 238.717 375.854 237.714 376.498 236.986C377.152 236.258 377.992 235.894 379.018 235.894C380.045 235.894 380.88 236.249 381.524 236.958C382.168 237.658 382.49 238.661 382.49 239.968C382.49 241.247 382.159 242.269 381.496 243.034C380.834 243.799 380.008 244.182 379.018 244.182C378.01 244.182 377.175 243.813 376.512 243.076C375.859 242.329 375.532 241.303 375.532 239.996ZM376.82 239.954C376.82 240.925 377.03 241.681 377.45 242.222C377.87 242.763 378.393 243.034 379.018 243.034C379.625 243.034 380.143 242.768 380.572 242.236C381.002 241.695 381.216 240.957 381.216 240.024C381.216 239.053 381.006 238.316 380.586 237.812C380.166 237.299 379.644 237.042 379.018 237.042C378.402 237.042 377.88 237.294 377.45 237.798C377.03 238.302 376.82 239.021 376.82 239.954ZM388.347 244H384.329L384.203 243.02H385.715V237.658L384.819 238.232L384.189 237.308L386.163 236.076H387.059V243.02H388.221L388.347 244ZM394.116 244H390.098L389.972 243.02H391.484V237.658L390.588 238.232L389.958 237.308L391.932 236.076H392.828V243.02H393.99L394.116 244ZM399.886 244H395.868L395.742 243.02H397.254V237.658L396.358 238.232L395.728 237.308L397.702 236.076H398.598V243.02H399.76L399.886 244ZM401.413 239.996C401.413 238.717 401.735 237.714 402.379 236.986C403.033 236.258 403.873 235.894 404.899 235.894C405.926 235.894 406.761 236.249 407.405 236.958C408.049 237.658 408.371 238.661 408.371 239.968C408.371 241.247 408.04 242.269 407.377 243.034C406.715 243.799 405.889 244.182 404.899 244.182C403.891 244.182 403.056 243.813 402.393 243.076C401.74 242.329 401.413 241.303 401.413 239.996ZM402.701 239.954C402.701 240.925 402.911 241.681 403.331 242.222C403.751 242.763 404.274 243.034 404.899 243.034C405.506 243.034 406.024 242.768 406.453 242.236C406.883 241.695 407.097 240.957 407.097 240.024C407.097 239.053 406.887 238.316 406.467 237.812C406.047 237.299 405.525 237.042 404.899 237.042C404.283 237.042 403.761 237.294 403.331 237.798C402.911 238.302 402.701 239.021 402.701 239.954ZM414.228 244H410.21L410.084 243.02H411.596V237.658L410.7 238.232L410.07 237.308L412.044 236.076H412.94V243.02H414.102L414.228 244ZM419.997 244H415.979L415.853 243.02H417.365V237.658L416.469 238.232L415.839 237.308L417.813 236.076H418.709V243.02H419.871L419.997 244ZM425.767 244H421.749L421.623 243.02H423.135V237.658L422.239 238.232L421.609 237.308L423.583 236.076H424.479V243.02H425.641L425.767 244ZM427.294 239.996C427.294 238.717 427.616 237.714 428.26 236.986C428.913 236.258 429.753 235.894 430.78 235.894C431.807 235.894 432.642 236.249 433.286 236.958C433.93 237.658 434.252 238.661 434.252 239.968C434.252 241.247 433.921 242.269 433.258 243.034C432.595 243.799 431.769 244.182 430.78 244.182C429.772 244.182 428.937 243.813 428.274 243.076C427.621 242.329 427.294 241.303 427.294 239.996ZM428.582 239.954C428.582 240.925 428.792 241.681 429.212 242.222C429.632 242.763 430.155 243.034 430.78 243.034C431.387 243.034 431.905 242.768 432.334 242.236C432.763 241.695 432.978 240.957 432.978 240.024C432.978 239.053 432.768 238.316 432.348 237.812C431.928 237.299 431.405 237.042 430.78 237.042C430.164 237.042 429.641 237.294 429.212 237.798C428.792 238.302 428.582 239.021 428.582 239.954ZM440.108 244H436.09L435.964 243.02H437.476V237.658L436.58 238.232L435.95 237.308L437.924 236.076H438.82V243.02H439.982L440.108 244ZM441.636 239.996C441.636 238.717 441.958 237.714 442.602 236.986C443.255 236.258 444.095 235.894 445.122 235.894C446.149 235.894 446.984 236.249 447.628 236.958C448.272 237.658 448.594 238.661 448.594 239.968C448.594 241.247 448.263 242.269 447.6 243.034C446.937 243.799 446.111 244.182 445.122 244.182C444.114 244.182 443.279 243.813 442.616 243.076C441.963 242.329 441.636 241.303 441.636 239.996ZM442.924 239.954C442.924 240.925 443.134 241.681 443.554 242.222C443.974 242.763 444.497 243.034 445.122 243.034C445.729 243.034 446.247 242.768 446.676 242.236C447.105 241.695 447.32 240.957 447.32 240.024C447.32 239.053 447.11 238.316 446.69 237.812C446.27 237.299 445.747 237.042 445.122 237.042C444.506 237.042 443.983 237.294 443.554 237.798C443.134 238.302 442.924 239.021 442.924 239.954ZM454.45 244H450.432L450.306 243.02H451.818V237.658L450.922 238.232L450.292 237.308L452.266 236.076H453.162V243.02H454.324L454.45 244ZM455.978 239.996C455.978 238.717 456.3 237.714 456.944 236.986C457.597 236.258 458.437 235.894 459.464 235.894C460.49 235.894 461.326 236.249 461.97 236.958C462.614 237.658 462.936 238.661 462.936 239.968C462.936 241.247 462.604 242.269 461.942 243.034C461.279 243.799 460.453 244.182 459.464 244.182C458.456 244.182 457.62 243.813 456.958 243.076C456.304 242.329 455.978 241.303 455.978 239.996ZM457.266 239.954C457.266 240.925 457.476 241.681 457.896 242.222C458.316 242.763 458.838 243.034 459.464 243.034C460.07 243.034 460.588 242.768 461.018 242.236C461.447 241.695 461.662 240.957 461.662 240.024C461.662 239.053 461.452 238.316 461.032 237.812C460.612 237.299 460.089 237.042 459.464 237.042C458.848 237.042 458.325 237.294 457.896 237.798C457.476 238.302 457.266 239.021 457.266 239.954ZM468.792 244H464.774L464.648 243.02H466.16V237.658L465.264 238.232L464.634 237.308L466.608 236.076H467.504V243.02H468.666L468.792 244ZM470.319 239.996C470.319 238.717 470.641 237.714 471.285 236.986C471.939 236.258 472.779 235.894 473.805 235.894C474.832 235.894 475.667 236.249 476.311 236.958C476.955 237.658 477.277 238.661 477.277 239.968C477.277 241.247 476.946 242.269 476.283 243.034C475.621 243.799 474.795 244.182 473.805 244.182C472.797 244.182 471.962 243.813 471.299 243.076C470.646 242.329 470.319 241.303 470.319 239.996ZM471.607 239.954C471.607 240.925 471.817 241.681 472.237 242.222C472.657 242.763 473.18 243.034 473.805 243.034C474.412 243.034 474.93 242.768 475.359 242.236C475.789 241.695 476.003 240.957 476.003 240.024C476.003 239.053 475.793 238.316 475.373 237.812C474.953 237.299 474.431 237.042 473.805 237.042C473.189 237.042 472.667 237.294 472.237 237.798C471.817 238.302 471.607 239.021 471.607 239.954ZM483.134 244H479.116L478.99 243.02H480.502V237.658L479.606 238.232L478.976 237.308L480.95 236.076H481.846V243.02H483.008L483.134 244ZM488.903 244H484.885L484.759 243.02H486.271V237.658L485.375 238.232L484.745 237.308L486.719 236.076H487.615V243.02H488.777L488.903 244ZM490.431 239.996C490.431 238.717 490.753 237.714 491.397 236.986C492.05 236.258 492.89 235.894 493.917 235.894C494.943 235.894 495.779 236.249 496.423 236.958C497.067 237.658 497.389 238.661 497.389 239.968C497.389 241.247 497.057 242.269 496.395 243.034C495.732 243.799 494.906 244.182 493.917 244.182C492.909 244.182 492.073 243.813 491.411 243.076C490.757 242.329 490.431 241.303 490.431 239.996ZM491.719 239.954C491.719 240.925 491.929 241.681 492.349 242.222C492.769 242.763 493.291 243.034 493.917 243.034C494.523 243.034 495.041 242.768 495.471 242.236C495.9 241.695 496.115 240.957 496.115 240.024C496.115 239.053 495.905 238.316 495.485 237.812C495.065 237.299 494.542 237.042 493.917 237.042C493.301 237.042 492.778 237.294 492.349 237.798C491.929 238.302 491.719 239.021 491.719 239.954ZM503.245 244H499.227L499.101 243.02H500.613V237.658L499.717 238.232L499.087 237.308L501.061 236.076H501.957V243.02H503.119L503.245 244ZM504.773 239.996C504.773 238.717 505.095 237.714 505.739 236.986C506.392 236.258 507.232 235.894 508.259 235.894C509.285 235.894 510.121 236.249 510.765 236.958C511.409 237.658 511.731 238.661 511.731 239.968C511.731 241.247 511.399 242.269 510.737 243.034C510.074 243.799 509.248 244.182 508.259 244.182C507.251 244.182 506.415 243.813 505.753 243.076C505.099 242.329 504.773 241.303 504.773 239.996ZM506.061 239.954C506.061 240.925 506.271 241.681 506.691 242.222C507.111 242.763 507.633 243.034 508.259 243.034C508.865 243.034 509.383 242.768 509.813 242.236C510.242 241.695 510.457 240.957 510.457 240.024C510.457 239.053 510.247 238.316 509.827 237.812C509.407 237.299 508.884 237.042 508.259 237.042C507.643 237.042 507.12 237.294 506.691 237.798C506.271 238.302 506.061 239.021 506.061 239.954ZM517.587 244H513.569L513.443 243.02H514.955V237.658L514.059 238.232L513.429 237.308L515.403 236.076H516.299V243.02H517.461L517.587 244ZM519.114 239.996C519.114 238.717 519.436 237.714 520.08 236.986C520.734 236.258 521.574 235.894 522.6 235.894C523.627 235.894 524.462 236.249 525.106 236.958C525.75 237.658 526.072 238.661 526.072 239.968C526.072 241.247 525.741 242.269 525.078 243.034C524.416 243.799 523.59 244.182 522.6 244.182C521.592 244.182 520.757 243.813 520.094 243.076C519.441 242.329 519.114 241.303 519.114 239.996ZM520.402 239.954C520.402 240.925 520.612 241.681 521.032 242.222C521.452 242.763 521.975 243.034 522.6 243.034C523.207 243.034 523.725 242.768 524.154 242.236C524.584 241.695 524.798 240.957 524.798 240.024C524.798 239.053 524.588 238.316 524.168 237.812C523.748 237.299 523.226 237.042 522.6 237.042C521.984 237.042 521.462 237.294 521.032 237.798C520.612 238.302 520.402 239.021 520.402 239.954ZM531.929 244H527.911L527.785 243.02H529.297V237.658L528.401 238.232L527.771 237.308L529.745 236.076H530.641V243.02H531.803L531.929 244ZM533.456 239.996C533.456 238.717 533.778 237.714 534.422 236.986C535.076 236.258 535.916 235.894 536.942 235.894C537.969 235.894 538.804 236.249 539.448 236.958C540.092 237.658 540.414 238.661 540.414 239.968C540.414 241.247 540.083 242.269 539.42 243.034C538.758 243.799 537.932 244.182 536.942 244.182C535.934 244.182 535.099 243.813 534.436 243.076C533.783 242.329 533.456 241.303 533.456 239.996ZM534.744 239.954C534.744 240.925 534.954 241.681 535.374 242.222C535.794 242.763 536.317 243.034 536.942 243.034C537.549 243.034 538.067 242.768 538.496 242.236C538.926 241.695 539.14 240.957 539.14 240.024C539.14 239.053 538.93 238.316 538.51 237.812C538.09 237.299 537.568 237.042 536.942 237.042C536.326 237.042 535.804 237.294 535.374 237.798C534.954 238.302 534.744 239.021 534.744 239.954ZM546.27 244H542.252L542.126 243.02H543.638V237.658L542.742 238.232L542.112 237.308L544.086 236.076H544.982V243.02H546.144L546.27 244ZM547.798 239.996C547.798 238.717 548.12 237.714 548.764 236.986C549.417 236.258 550.257 235.894 551.284 235.894C552.311 235.894 553.146 236.249 553.79 236.958C554.434 237.658 554.756 238.661 554.756 239.968C554.756 241.247 554.425 242.269 553.762 243.034C553.099 243.799 552.273 244.182 551.284 244.182C550.276 244.182 549.441 243.813 548.778 243.076C548.125 242.329 547.798 241.303 547.798 239.996ZM549.086 239.954C549.086 240.925 549.296 241.681 549.716 242.222C550.136 242.763 550.659 243.034 551.284 243.034C551.891 243.034 552.409 242.768 552.838 242.236C553.267 241.695 553.482 240.957 553.482 240.024C553.482 239.053 553.272 238.316 552.852 237.812C552.432 237.299 551.909 237.042 551.284 237.042C550.668 237.042 550.145 237.294 549.716 237.798C549.296 238.302 549.086 239.021 549.086 239.954ZM556.37 239.996C556.37 238.717 556.692 237.714 557.336 236.986C557.99 236.258 558.83 235.894 559.856 235.894C560.883 235.894 561.718 236.249 562.362 236.958C563.006 237.658 563.328 238.661 563.328 239.968C563.328 241.247 562.997 242.269 562.334 243.034C561.672 243.799 560.846 244.182 559.856 244.182C558.848 244.182 558.013 243.813 557.35 243.076C556.697 242.329 556.37 241.303 556.37 239.996ZM557.658 239.954C557.658 240.925 557.868 241.681 558.288 242.222C558.708 242.763 559.231 243.034 559.856 243.034C560.463 243.034 560.981 242.768 561.41 242.236C561.84 241.695 562.054 240.957 562.054 240.024C562.054 239.053 561.844 238.316 561.424 237.812C561.004 237.299 560.482 237.042 559.856 237.042C559.24 237.042 558.718 237.294 558.288 237.798C557.868 238.302 557.658 239.021 557.658 239.954ZM564.943 239.996C564.943 238.717 565.265 237.714 565.909 236.986C566.562 236.258 567.402 235.894 568.429 235.894C569.455 235.894 570.291 236.249 570.935 236.958C571.579 237.658 571.901 238.661 571.901 239.968C571.901 241.247 571.569 242.269 570.907 243.034C570.244 243.799 569.418 244.182 568.429 244.182C567.421 244.182 566.585 243.813 565.923 243.076C565.269 242.329 564.943 241.303 564.943 239.996ZM566.231 239.954C566.231 240.925 566.441 241.681 566.861 242.222C567.281 242.763 567.803 243.034 568.429 243.034C569.035 243.034 569.553 242.768 569.983 242.236C570.412 241.695 570.627 240.957 570.627 240.024C570.627 239.053 570.417 238.316 569.997 237.812C569.577 237.299 569.054 237.042 568.429 237.042C567.813 237.042 567.29 237.294 566.861 237.798C566.441 238.302 566.231 239.021 566.231 239.954ZM577.757 244H573.739L573.613 243.02H575.125V237.658L574.229 238.232L573.599 237.308L575.573 236.076H576.469V243.02H577.631L577.757 244ZM579.284 239.996C579.284 238.717 579.606 237.714 580.25 236.986C580.904 236.258 581.744 235.894 582.77 235.894C583.797 235.894 584.632 236.249 585.276 236.958C585.92 237.658 586.242 238.661 586.242 239.968C586.242 241.247 585.911 242.269 585.248 243.034C584.586 243.799 583.76 244.182 582.77 244.182C581.762 244.182 580.927 243.813 580.264 243.076C579.611 242.329 579.284 241.303 579.284 239.996ZM580.572 239.954C580.572 240.925 580.782 241.681 581.202 242.222C581.622 242.763 582.145 243.034 582.77 243.034C583.377 243.034 583.895 242.768 584.324 242.236C584.754 241.695 584.968 240.957 584.968 240.024C584.968 239.053 584.758 238.316 584.338 237.812C583.918 237.299 583.396 237.042 582.77 237.042C582.154 237.042 581.632 237.294 581.202 237.798C580.782 238.302 580.572 239.021 580.572 239.954ZM592.099 244H588.081L587.955 243.02H589.467V237.658L588.571 238.232L587.941 237.308L589.915 236.076H590.811V243.02H591.973L592.099 244ZM593.626 239.996C593.626 238.717 593.948 237.714 594.592 236.986C595.245 236.258 596.085 235.894 597.112 235.894C598.139 235.894 598.974 236.249 599.618 236.958C600.262 237.658 600.584 238.661 600.584 239.968C600.584 241.247 600.253 242.269 599.59 243.034C598.927 243.799 598.101 244.182 597.112 244.182C596.104 244.182 595.269 243.813 594.606 243.076C593.953 242.329 593.626 241.303 593.626 239.996ZM594.914 239.954C594.914 240.925 595.124 241.681 595.544 242.222C595.964 242.763 596.487 243.034 597.112 243.034C597.719 243.034 598.237 242.768 598.666 242.236C599.095 241.695 599.31 240.957 599.31 240.024C599.31 239.053 599.1 238.316 598.68 237.812C598.26 237.299 597.737 237.042 597.112 237.042C596.496 237.042 595.973 237.294 595.544 237.798C595.124 238.302 594.914 239.021 594.914 239.954ZM606.44 244H602.422L602.296 243.02H603.808V237.658L602.912 238.232L602.282 237.308L604.256 236.076H605.152V243.02H606.314L606.44 244ZM612.21 244H608.192L608.066 243.02H609.578V237.658L608.682 238.232L608.052 237.308L610.026 236.076H610.922V243.02H612.084L612.21 244ZM617.979 244H613.961L613.835 243.02H615.347V237.658L614.451 238.232L613.821 237.308L615.795 236.076H616.691V243.02H617.853L617.979 244ZM623.749 244H619.731L619.605 243.02H621.117V237.658L620.221 238.232L619.591 237.308L621.565 236.076H622.461V243.02H623.623L623.749 244ZM625.277 239.996C625.277 238.717 625.599 237.714 626.243 236.986C626.896 236.258 627.736 235.894 628.763 235.894C629.789 235.894 630.625 236.249 631.269 236.958C631.913 237.658 632.235 238.661 632.235 239.968C632.235 241.247 631.903 242.269 631.241 243.034C630.578 243.799 629.752 244.182 628.763 244.182C627.755 244.182 626.919 243.813 626.257 243.076C625.603 242.329 625.277 241.303 625.277 239.996ZM626.565 239.954C626.565 240.925 626.775 241.681 627.195 242.222C627.615 242.763 628.137 243.034 628.763 243.034C629.369 243.034 629.887 242.768 630.317 242.236C630.746 241.695 630.961 240.957 630.961 240.024C630.961 239.053 630.751 238.316 630.331 237.812C629.911 237.299 629.388 237.042 628.763 237.042C628.147 237.042 627.624 237.294 627.195 237.798C626.775 238.302 626.565 239.021 626.565 239.954ZM638.091 244H634.073L633.947 243.02H635.459V237.658L634.563 238.232L633.933 237.308L635.907 236.076H636.803V243.02H637.965L638.091 244ZM639.618 239.996C639.618 238.717 639.94 237.714 640.584 236.986C641.238 236.258 642.078 235.894 643.104 235.894C644.131 235.894 644.966 236.249 645.61 236.958C646.254 237.658 646.576 238.661 646.576 239.968C646.576 241.247 646.245 242.269 645.582 243.034C644.92 243.799 644.094 244.182 643.104 244.182C642.096 244.182 641.261 243.813 640.598 243.076C639.945 242.329 639.618 241.303 639.618 239.996ZM640.906 239.954C640.906 240.925 641.116 241.681 641.536 242.222C641.956 242.763 642.479 243.034 643.104 243.034C643.711 243.034 644.229 242.768 644.658 242.236C645.088 241.695 645.302 240.957 645.302 240.024C645.302 239.053 645.092 238.316 644.672 237.812C644.252 237.299 643.73 237.042 643.104 237.042C642.488 237.042 641.966 237.294 641.536 237.798C641.116 238.302 640.906 239.021 640.906 239.954ZM652.433 244H648.415L648.289 243.02H649.801V237.658L648.905 238.232L648.275 237.308L650.249 236.076H651.145V243.02H652.307L652.433 244ZM653.96 239.996C653.96 238.717 654.282 237.714 654.926 236.986C655.579 236.258 656.419 235.894 657.446 235.894C658.473 235.894 659.308 236.249 659.952 236.958C660.596 237.658 660.918 238.661 660.918 239.968C660.918 241.247 660.587 242.269 659.924 243.034C659.261 243.799 658.435 244.182 657.446 244.182C656.438 244.182 655.603 243.813 654.94 243.076C654.287 242.329 653.96 241.303 653.96 239.996ZM655.248 239.954C655.248 240.925 655.458 241.681 655.878 242.222C656.298 242.763 656.821 243.034 657.446 243.034C658.053 243.034 658.571 242.768 659 242.236C659.429 241.695 659.644 240.957 659.644 240.024C659.644 239.053 659.434 238.316 659.014 237.812C658.594 237.299 658.071 237.042 657.446 237.042C656.83 237.042 656.307 237.294 655.878 237.798C655.458 238.302 655.248 239.021 655.248 239.954ZM666.774 244H662.756L662.63 243.02H664.142V237.658L663.246 238.232L662.616 237.308L664.59 236.076H665.486V243.02H666.648L666.774 244Z" fill="#6B7C93"/>
<path d="M260.798 254.996C260.798 253.717 261.12 252.714 261.764 251.986C262.417 251.258 263.257 250.894 264.284 250.894C265.311 250.894 266.146 251.249 266.79 251.958C267.434 252.658 267.756 253.661 267.756 254.968C267.756 256.247 267.425 257.269 266.762 258.034C266.099 258.799 265.273 259.182 264.284 259.182C263.276 259.182 262.441 258.813 261.778 258.076C261.125 257.329 260.798 256.303 260.798 254.996ZM262.086 254.954C262.086 255.925 262.296 256.681 262.716 257.222C263.136 257.763 263.659 258.034 264.284 258.034C264.891 258.034 265.409 257.768 265.838 257.236C266.267 256.695 266.482 255.957 266.482 255.024C266.482 254.053 266.272 253.316 265.852 252.812C265.432 252.299 264.909 252.042 264.284 252.042C263.668 252.042 263.145 252.294 262.716 252.798C262.296 253.302 262.086 254.021 262.086 254.954ZM273.612 259H269.594L269.468 258.02H270.98V252.658L270.084 253.232L269.454 252.308L271.428 251.076H272.324V258.02H273.486L273.612 259ZM275.14 254.996C275.14 253.717 275.462 252.714 276.106 251.986C276.759 251.258 277.599 250.894 278.626 250.894C279.652 250.894 280.488 251.249 281.132 251.958C281.776 252.658 282.098 253.661 282.098 254.968C282.098 256.247 281.766 257.269 281.104 258.034C280.441 258.799 279.615 259.182 278.626 259.182C277.618 259.182 276.782 258.813 276.12 258.076C275.466 257.329 275.14 256.303 275.14 254.996ZM276.428 254.954C276.428 255.925 276.638 256.681 277.058 257.222C277.478 257.763 278 258.034 278.626 258.034C279.232 258.034 279.75 257.768 280.18 257.236C280.609 256.695 280.824 255.957 280.824 255.024C280.824 254.053 280.614 253.316 280.194 252.812C279.774 252.299 279.251 252.042 278.626 252.042C278.01 252.042 277.487 252.294 277.058 252.798C276.638 253.302 276.428 254.021 276.428 254.954ZM287.954 259H283.936L283.81 258.02H285.322V252.658L284.426 253.232L283.796 252.308L285.77 251.076H286.666V258.02H287.828L287.954 259ZM289.482 254.996C289.482 253.717 289.804 252.714 290.448 251.986C291.101 251.258 291.941 250.894 292.968 250.894C293.994 250.894 294.83 251.249 295.474 251.958C296.118 252.658 296.44 253.661 296.44 254.968C296.44 256.247 296.108 257.269 295.446 258.034C294.783 258.799 293.957 259.182 292.968 259.182C291.96 259.182 291.124 258.813 290.462 258.076C289.808 257.329 289.482 256.303 289.482 254.996ZM290.77 254.954C290.77 255.925 290.98 256.681 291.4 257.222C291.82 257.763 292.342 258.034 292.968 258.034C293.574 258.034 294.092 257.768 294.522 257.236C294.951 256.695 295.166 255.957 295.166 255.024C295.166 254.053 294.956 253.316 294.536 252.812C294.116 252.299 293.593 252.042 292.968 252.042C292.352 252.042 291.829 252.294 291.4 252.798C290.98 253.302 290.77 254.021 290.77 254.954ZM298.054 254.996C298.054 253.717 298.376 252.714 299.02 251.986C299.673 251.258 300.513 250.894 301.54 250.894C302.567 250.894 303.402 251.249 304.046 251.958C304.69 252.658 305.012 253.661 305.012 254.968C305.012 256.247 304.681 257.269 304.018 258.034C303.355 258.799 302.529 259.182 301.54 259.182C300.532 259.182 299.697 258.813 299.034 258.076C298.381 257.329 298.054 256.303 298.054 254.996ZM299.342 254.954C299.342 255.925 299.552 256.681 299.972 257.222C300.392 257.763 300.915 258.034 301.54 258.034C302.147 258.034 302.665 257.768 303.094 257.236C303.523 256.695 303.738 255.957 303.738 255.024C303.738 254.053 303.528 253.316 303.108 252.812C302.688 252.299 302.165 252.042 301.54 252.042C300.924 252.042 300.401 252.294 299.972 252.798C299.552 253.302 299.342 254.021 299.342 254.954ZM310.868 259H306.85L306.724 258.02H308.236V252.658L307.34 253.232L306.71 252.308L308.684 251.076H309.58V258.02H310.742L310.868 259ZM312.396 254.996C312.396 253.717 312.718 252.714 313.362 251.986C314.015 251.258 314.855 250.894 315.882 250.894C316.908 250.894 317.744 251.249 318.388 251.958C319.032 252.658 319.354 253.661 319.354 254.968C319.354 256.247 319.022 257.269 318.36 258.034C317.697 258.799 316.871 259.182 315.882 259.182C314.874 259.182 314.038 258.813 313.376 258.076C312.722 257.329 312.396 256.303 312.396 254.996ZM313.684 254.954C313.684 255.925 313.894 256.681 314.314 257.222C314.734 257.763 315.256 258.034 315.882 258.034C316.488 258.034 317.006 257.768 317.436 257.236C317.865 256.695 318.08 255.957 318.08 255.024C318.08 254.053 317.87 253.316 317.45 252.812C317.03 252.299 316.507 252.042 315.882 252.042C315.266 252.042 314.743 252.294 314.314 252.798C313.894 253.302 313.684 254.021 313.684 254.954ZM325.21 259H321.192L321.066 258.02H322.578V252.658L321.682 253.232L321.052 252.308L323.026 251.076H323.922V258.02H325.084L325.21 259ZM326.737 254.996C326.737 253.717 327.059 252.714 327.703 251.986C328.357 251.258 329.197 250.894 330.223 250.894C331.25 250.894 332.085 251.249 332.729 251.958C333.373 252.658 333.695 253.661 333.695 254.968C333.695 256.247 333.364 257.269 332.701 258.034C332.039 258.799 331.213 259.182 330.223 259.182C329.215 259.182 328.38 258.813 327.717 258.076C327.064 257.329 326.737 256.303 326.737 254.996ZM328.025 254.954C328.025 255.925 328.235 256.681 328.655 257.222C329.075 257.763 329.598 258.034 330.223 258.034C330.83 258.034 331.348 257.768 331.777 257.236C332.207 256.695 332.421 255.957 332.421 255.024C332.421 254.053 332.211 253.316 331.791 252.812C331.371 252.299 330.849 252.042 330.223 252.042C329.607 252.042 329.085 252.294 328.655 252.798C328.235 253.302 328.025 254.021 328.025 254.954ZM339.552 259H335.534L335.408 258.02H336.92V252.658L336.024 253.232L335.394 252.308L337.368 251.076H338.264V258.02H339.426L339.552 259ZM341.079 254.996C341.079 253.717 341.401 252.714 342.045 251.986C342.699 251.258 343.539 250.894 344.565 250.894C345.592 250.894 346.427 251.249 347.071 251.958C347.715 252.658 348.037 253.661 348.037 254.968C348.037 256.247 347.706 257.269 347.043 258.034C346.381 258.799 345.555 259.182 344.565 259.182C343.557 259.182 342.722 258.813 342.059 258.076C341.406 257.329 341.079 256.303 341.079 254.996ZM342.367 254.954C342.367 255.925 342.577 256.681 342.997 257.222C343.417 257.763 343.94 258.034 344.565 258.034C345.172 258.034 345.69 257.768 346.119 257.236C346.549 256.695 346.763 255.957 346.763 255.024C346.763 254.053 346.553 253.316 346.133 252.812C345.713 252.299 345.191 252.042 344.565 252.042C343.949 252.042 343.427 252.294 342.997 252.798C342.577 253.302 342.367 254.021 342.367 254.954ZM353.894 259H349.876L349.75 258.02H351.262V252.658L350.366 253.232L349.736 252.308L351.71 251.076H352.606V258.02H353.768L353.894 259ZM355.421 254.996C355.421 253.717 355.743 252.714 356.387 251.986C357.04 251.258 357.88 250.894 358.907 250.894C359.934 250.894 360.769 251.249 361.413 251.958C362.057 252.658 362.379 253.661 362.379 254.968C362.379 256.247 362.048 257.269 361.385 258.034C360.722 258.799 359.896 259.182 358.907 259.182C357.899 259.182 357.064 258.813 356.401 258.076C355.748 257.329 355.421 256.303 355.421 254.996ZM356.709 254.954C356.709 255.925 356.919 256.681 357.339 257.222C357.759 257.763 358.282 258.034 358.907 258.034C359.514 258.034 360.032 257.768 360.461 257.236C360.89 256.695 361.105 255.957 361.105 255.024C361.105 254.053 360.895 253.316 360.475 252.812C360.055 252.299 359.532 252.042 358.907 252.042C358.291 252.042 357.768 252.294 357.339 252.798C356.919 253.302 356.709 254.021 356.709 254.954ZM368.235 259H364.217L364.091 258.02H365.603V252.658L364.707 253.232L364.077 252.308L366.051 251.076H366.947V258.02H368.109L368.235 259ZM374.005 259H369.987L369.861 258.02H371.373V252.658L370.477 253.232L369.847 252.308L371.821 251.076H372.717V258.02H373.879L374.005 259ZM375.532 254.996C375.532 253.717 375.854 252.714 376.498 251.986C377.152 251.258 377.992 250.894 379.018 250.894C380.045 250.894 380.88 251.249 381.524 251.958C382.168 252.658 382.49 253.661 382.49 254.968C382.49 256.247 382.159 257.269 381.496 258.034C380.834 258.799 380.008 259.182 379.018 259.182C378.01 259.182 377.175 258.813 376.512 258.076C375.859 257.329 375.532 256.303 375.532 254.996ZM376.82 254.954C376.82 255.925 377.03 256.681 377.45 257.222C377.87 257.763 378.393 258.034 379.018 258.034C379.625 258.034 380.143 257.768 380.572 257.236C381.002 256.695 381.216 255.957 381.216 255.024C381.216 254.053 381.006 253.316 380.586 252.812C380.166 252.299 379.644 252.042 379.018 252.042C378.402 252.042 377.88 252.294 377.45 252.798C377.03 253.302 376.82 254.021 376.82 254.954ZM384.105 254.996C384.105 253.717 384.427 252.714 385.071 251.986C385.724 251.258 386.564 250.894 387.591 250.894C388.617 250.894 389.453 251.249 390.097 251.958C390.741 252.658 391.063 253.661 391.063 254.968C391.063 256.247 390.731 257.269 390.069 258.034C389.406 258.799 388.58 259.182 387.591 259.182C386.583 259.182 385.747 258.813 385.085 258.076C384.431 257.329 384.105 256.303 384.105 254.996ZM385.393 254.954C385.393 255.925 385.603 256.681 386.023 257.222C386.443 257.763 386.965 258.034 387.591 258.034C388.197 258.034 388.715 257.768 389.145 257.236C389.574 256.695 389.789 255.957 389.789 255.024C389.789 254.053 389.579 253.316 389.159 252.812C388.739 252.299 388.216 252.042 387.591 252.042C386.975 252.042 386.452 252.294 386.023 252.798C385.603 253.302 385.393 254.021 385.393 254.954ZM396.919 259H392.901L392.775 258.02H394.287V252.658L393.391 253.232L392.761 252.308L394.735 251.076H395.631V258.02H396.793L396.919 259ZM398.446 254.996C398.446 253.717 398.768 252.714 399.412 251.986C400.066 251.258 400.906 250.894 401.932 250.894C402.959 250.894 403.794 251.249 404.438 251.958C405.082 252.658 405.404 253.661 405.404 254.968C405.404 256.247 405.073 257.269 404.41 258.034C403.748 258.799 402.922 259.182 401.932 259.182C400.924 259.182 400.089 258.813 399.426 258.076C398.773 257.329 398.446 256.303 398.446 254.996ZM399.734 254.954C399.734 255.925 399.944 256.681 400.364 257.222C400.784 257.763 401.307 258.034 401.932 258.034C402.539 258.034 403.057 257.768 403.486 257.236C403.916 256.695 404.13 255.957 404.13 255.024C404.13 254.053 403.92 253.316 403.5 252.812C403.08 252.299 402.558 252.042 401.932 252.042C401.316 252.042 400.794 252.294 400.364 252.798C399.944 253.302 399.734 254.021 399.734 254.954ZM411.261 259H407.243L407.117 258.02H408.629V252.658L407.733 253.232L407.103 252.308L409.077 251.076H409.973V258.02H411.135L411.261 259ZM412.788 254.996C412.788 253.717 413.11 252.714 413.754 251.986C414.408 251.258 415.248 250.894 416.274 250.894C417.301 250.894 418.136 251.249 418.78 251.958C419.424 252.658 419.746 253.661 419.746 254.968C419.746 256.247 419.415 257.269 418.752 258.034C418.09 258.799 417.264 259.182 416.274 259.182C415.266 259.182 414.431 258.813 413.768 258.076C413.115 257.329 412.788 256.303 412.788 254.996ZM414.076 254.954C414.076 255.925 414.286 256.681 414.706 257.222C415.126 257.763 415.649 258.034 416.274 258.034C416.881 258.034 417.399 257.768 417.828 257.236C418.258 256.695 418.472 255.957 418.472 255.024C418.472 254.053 418.262 253.316 417.842 252.812C417.422 252.299 416.9 252.042 416.274 252.042C415.658 252.042 415.136 252.294 414.706 252.798C414.286 253.302 414.076 254.021 414.076 254.954ZM421.361 254.996C421.361 253.717 421.683 252.714 422.327 251.986C422.98 251.258 423.82 250.894 424.847 250.894C425.873 250.894 426.709 251.249 427.353 251.958C427.997 252.658 428.319 253.661 428.319 254.968C428.319 256.247 427.987 257.269 427.325 258.034C426.662 258.799 425.836 259.182 424.847 259.182C423.839 259.182 423.003 258.813 422.341 258.076C421.687 257.329 421.361 256.303 421.361 254.996ZM422.649 254.954C422.649 255.925 422.859 256.681 423.279 257.222C423.699 257.763 424.221 258.034 424.847 258.034C425.453 258.034 425.971 257.768 426.401 257.236C426.83 256.695 427.045 255.957 427.045 255.024C427.045 254.053 426.835 253.316 426.415 252.812C425.995 252.299 425.472 252.042 424.847 252.042C424.231 252.042 423.708 252.294 423.279 252.798C422.859 253.302 422.649 254.021 422.649 254.954ZM434.175 259H430.157L430.031 258.02H431.543V252.658L430.647 253.232L430.017 252.308L431.991 251.076H432.887V258.02H434.049L434.175 259ZM439.944 259H435.926L435.8 258.02H437.312V252.658L436.416 253.232L435.786 252.308L437.76 251.076H438.656V258.02H439.818L439.944 259ZM441.472 254.996C441.472 253.717 441.794 252.714 442.438 251.986C443.091 251.258 443.931 250.894 444.958 250.894C445.984 250.894 446.82 251.249 447.464 251.958C448.108 252.658 448.43 253.661 448.43 254.968C448.43 256.247 448.098 257.269 447.436 258.034C446.773 258.799 445.947 259.182 444.958 259.182C443.95 259.182 443.114 258.813 442.452 258.076C441.798 257.329 441.472 256.303 441.472 254.996ZM442.76 254.954C442.76 255.925 442.97 256.681 443.39 257.222C443.81 257.763 444.332 258.034 444.958 258.034C445.564 258.034 446.082 257.768 446.512 257.236C446.941 256.695 447.156 255.957 447.156 255.024C447.156 254.053 446.946 253.316 446.526 252.812C446.106 252.299 445.583 252.042 444.958 252.042C444.342 252.042 443.819 252.294 443.39 252.798C442.97 253.302 442.76 254.021 442.76 254.954ZM454.286 259H450.268L450.142 258.02H451.654V252.658L450.758 253.232L450.128 252.308L452.102 251.076H452.998V258.02H454.16L454.286 259ZM460.056 259H456.038L455.912 258.02H457.424V252.658L456.528 253.232L455.898 252.308L457.872 251.076H458.768V258.02H459.93L460.056 259ZM465.825 259H461.807L461.681 258.02H463.193V252.658L462.297 253.232L461.667 252.308L463.641 251.076H464.537V258.02H465.699L465.825 259ZM471.595 259H467.577L467.451 258.02H468.963V252.658L468.067 253.232L467.437 252.308L469.411 251.076H470.307V258.02H471.469L471.595 259ZM473.122 254.996C473.122 253.717 473.444 252.714 474.088 251.986C474.742 251.258 475.582 250.894 476.608 250.894C477.635 250.894 478.47 251.249 479.114 251.958C479.758 252.658 480.08 253.661 480.08 254.968C480.08 256.247 479.749 257.269 479.086 258.034C478.424 258.799 477.598 259.182 476.608 259.182C475.6 259.182 474.765 258.813 474.102 258.076C473.449 257.329 473.122 256.303 473.122 254.996ZM474.41 254.954C474.41 255.925 474.62 256.681 475.04 257.222C475.46 257.763 475.983 258.034 476.608 258.034C477.215 258.034 477.733 257.768 478.162 257.236C478.592 256.695 478.806 255.957 478.806 255.024C478.806 254.053 478.596 253.316 478.176 252.812C477.756 252.299 477.234 252.042 476.608 252.042C475.992 252.042 475.47 252.294 475.04 252.798C474.62 253.302 474.41 254.021 474.41 254.954ZM485.936 259H481.918L481.792 258.02H483.304V252.658L482.408 253.232L481.778 252.308L483.752 251.076H484.648V258.02H485.81L485.936 259ZM491.706 259H487.688L487.562 258.02H489.074V252.658L488.178 253.232L487.548 252.308L489.522 251.076H490.418V258.02H491.58L491.706 259ZM493.234 254.996C493.234 253.717 493.556 252.714 494.2 251.986C494.853 251.258 495.693 250.894 496.72 250.894C497.746 250.894 498.582 251.249 499.226 251.958C499.87 252.658 500.192 253.661 500.192 254.968C500.192 256.247 499.86 257.269 499.198 258.034C498.535 258.799 497.709 259.182 496.72 259.182C495.712 259.182 494.876 258.813 494.214 258.076C493.56 257.329 493.234 256.303 493.234 254.996ZM494.522 254.954C494.522 255.925 494.732 256.681 495.152 257.222C495.572 257.763 496.094 258.034 496.72 258.034C497.326 258.034 497.844 257.768 498.274 257.236C498.703 256.695 498.918 255.957 498.918 255.024C498.918 254.053 498.708 253.316 498.288 252.812C497.868 252.299 497.345 252.042 496.72 252.042C496.104 252.042 495.581 252.294 495.152 252.798C494.732 253.302 494.522 254.021 494.522 254.954ZM506.048 259H502.03L501.904 258.02H503.416V252.658L502.52 253.232L501.89 252.308L503.864 251.076H504.76V258.02H505.922L506.048 259ZM511.817 259H507.799L507.673 258.02H509.185V252.658L508.289 253.232L507.659 252.308L509.633 251.076H510.529V258.02H511.691L511.817 259ZM517.587 259H513.569L513.443 258.02H514.955V252.658L514.059 253.232L513.429 252.308L515.403 251.076H516.299V258.02H517.461L517.587 259ZM523.356 259H519.338L519.212 258.02H520.724V252.658L519.828 253.232L519.198 252.308L521.172 251.076H522.068V258.02H523.23L523.356 259ZM524.884 254.996C524.884 253.717 525.206 252.714 525.85 251.986C526.503 251.258 527.343 250.894 528.37 250.894C529.397 250.894 530.232 251.249 530.876 251.958C531.52 252.658 531.842 253.661 531.842 254.968C531.842 256.247 531.511 257.269 530.848 258.034C530.185 258.799 529.359 259.182 528.37 259.182C527.362 259.182 526.527 258.813 525.864 258.076C525.211 257.329 524.884 256.303 524.884 254.996ZM526.172 254.954C526.172 255.925 526.382 256.681 526.802 257.222C527.222 257.763 527.745 258.034 528.37 258.034C528.977 258.034 529.495 257.768 529.924 257.236C530.353 256.695 530.568 255.957 530.568 255.024C530.568 254.053 530.358 253.316 529.938 252.812C529.518 252.299 528.995 252.042 528.37 252.042C527.754 252.042 527.231 252.294 526.802 252.798C526.382 253.302 526.172 254.021 526.172 254.954ZM537.698 259H533.68L533.554 258.02H535.066V252.658L534.17 253.232L533.54 252.308L535.514 251.076H536.41V258.02H537.572L537.698 259ZM539.226 254.996C539.226 253.717 539.548 252.714 540.192 251.986C540.845 251.258 541.685 250.894 542.712 250.894C543.738 250.894 544.574 251.249 545.218 251.958C545.862 252.658 546.184 253.661 546.184 254.968C546.184 256.247 545.852 257.269 545.19 258.034C544.527 258.799 543.701 259.182 542.712 259.182C541.704 259.182 540.868 258.813 540.206 258.076C539.552 257.329 539.226 256.303 539.226 254.996ZM540.514 254.954C540.514 255.925 540.724 256.681 541.144 257.222C541.564 257.763 542.086 258.034 542.712 258.034C543.318 258.034 543.836 257.768 544.266 257.236C544.695 256.695 544.91 255.957 544.91 255.024C544.91 254.053 544.7 253.316 544.28 252.812C543.86 252.299 543.337 252.042 542.712 252.042C542.096 252.042 541.573 252.294 541.144 252.798C540.724 253.302 540.514 254.021 540.514 254.954ZM547.798 254.996C547.798 253.717 548.12 252.714 548.764 251.986C549.417 251.258 550.257 250.894 551.284 250.894C552.311 250.894 553.146 251.249 553.79 251.958C554.434 252.658 554.756 253.661 554.756 254.968C554.756 256.247 554.425 257.269 553.762 258.034C553.099 258.799 552.273 259.182 551.284 259.182C550.276 259.182 549.441 258.813 548.778 258.076C548.125 257.329 547.798 256.303 547.798 254.996ZM549.086 254.954C549.086 255.925 549.296 256.681 549.716 257.222C550.136 257.763 550.659 258.034 551.284 258.034C551.891 258.034 552.409 257.768 552.838 257.236C553.267 256.695 553.482 255.957 553.482 255.024C553.482 254.053 553.272 253.316 552.852 252.812C552.432 252.299 551.909 252.042 551.284 252.042C550.668 252.042 550.145 252.294 549.716 252.798C549.296 253.302 549.086 254.021 549.086 254.954ZM556.37 254.996C556.37 253.717 556.692 252.714 557.336 251.986C557.99 251.258 558.83 250.894 559.856 250.894C560.883 250.894 561.718 251.249 562.362 251.958C563.006 252.658 563.328 253.661 563.328 254.968C563.328 256.247 562.997 257.269 562.334 258.034C561.672 258.799 560.846 259.182 559.856 259.182C558.848 259.182 558.013 258.813 557.35 258.076C556.697 257.329 556.37 256.303 556.37 254.996ZM557.658 254.954C557.658 255.925 557.868 256.681 558.288 257.222C558.708 257.763 559.231 258.034 559.856 258.034C560.463 258.034 560.981 257.768 561.41 257.236C561.84 256.695 562.054 255.957 562.054 255.024C562.054 254.053 561.844 253.316 561.424 252.812C561.004 252.299 560.482 252.042 559.856 252.042C559.24 252.042 558.718 252.294 558.288 252.798C557.868 253.302 557.658 254.021 557.658 254.954ZM569.185 259H565.167L565.041 258.02H566.553V252.658L565.657 253.232L565.027 252.308L567.001 251.076H567.897V258.02H569.059L569.185 259ZM570.712 254.996C570.712 253.717 571.034 252.714 571.678 251.986C572.331 251.258 573.171 250.894 574.198 250.894C575.225 250.894 576.06 251.249 576.704 251.958C577.348 252.658 577.67 253.661 577.67 254.968C577.67 256.247 577.339 257.269 576.676 258.034C576.013 258.799 575.187 259.182 574.198 259.182C573.19 259.182 572.355 258.813 571.692 258.076C571.039 257.329 570.712 256.303 570.712 254.996ZM572 254.954C572 255.925 572.21 256.681 572.63 257.222C573.05 257.763 573.573 258.034 574.198 258.034C574.805 258.034 575.323 257.768 575.752 257.236C576.181 256.695 576.396 255.957 576.396 255.024C576.396 254.053 576.186 253.316 575.766 252.812C575.346 252.299 574.823 252.042 574.198 252.042C573.582 252.042 573.059 252.294 572.63 252.798C572.21 253.302 572 254.021 572 254.954ZM583.526 259H579.508L579.382 258.02H580.894V252.658L579.998 253.232L579.368 252.308L581.342 251.076H582.238V258.02H583.4L583.526 259ZM585.054 254.996C585.054 253.717 585.376 252.714 586.02 251.986C586.673 251.258 587.513 250.894 588.54 250.894C589.567 250.894 590.402 251.249 591.046 251.958C591.69 252.658 592.012 253.661 592.012 254.968C592.012 256.247 591.681 257.269 591.018 258.034C590.355 258.799 589.529 259.182 588.54 259.182C587.532 259.182 586.697 258.813 586.034 258.076C585.381 257.329 585.054 256.303 585.054 254.996ZM586.342 254.954C586.342 255.925 586.552 256.681 586.972 257.222C587.392 257.763 587.915 258.034 588.54 258.034C589.147 258.034 589.665 257.768 590.094 257.236C590.523 256.695 590.738 255.957 590.738 255.024C590.738 254.053 590.528 253.316 590.108 252.812C589.688 252.299 589.165 252.042 588.54 252.042C587.924 252.042 587.401 252.294 586.972 252.798C586.552 253.302 586.342 254.021 586.342 254.954ZM597.868 259H593.85L593.724 258.02H595.236V252.658L594.34 253.232L593.71 252.308L595.684 251.076H596.58V258.02H597.742L597.868 259ZM599.396 254.996C599.396 253.717 599.718 252.714 600.362 251.986C601.015 251.258 601.855 250.894 602.882 250.894C603.908 250.894 604.744 251.249 605.388 251.958C606.032 252.658 606.354 253.661 606.354 254.968C606.354 256.247 606.022 257.269 605.36 258.034C604.697 258.799 603.871 259.182 602.882 259.182C601.874 259.182 601.038 258.813 600.376 258.076C599.722 257.329 599.396 256.303 599.396 254.996ZM600.684 254.954C600.684 255.925 600.894 256.681 601.314 257.222C601.734 257.763 602.256 258.034 602.882 258.034C603.488 258.034 604.006 257.768 604.436 257.236C604.865 256.695 605.08 255.957 605.08 255.024C605.08 254.053 604.87 253.316 604.45 252.812C604.03 252.299 603.507 252.042 602.882 252.042C602.266 252.042 601.743 252.294 601.314 252.798C600.894 253.302 600.684 254.021 600.684 254.954ZM612.21 259H608.192L608.066 258.02H609.578V252.658L608.682 253.232L608.052 252.308L610.026 251.076H610.922V258.02H612.084L612.21 259ZM613.737 254.996C613.737 253.717 614.059 252.714 614.703 251.986C615.357 251.258 616.197 250.894 617.223 250.894C618.25 250.894 619.085 251.249 619.729 251.958C620.373 252.658 620.695 253.661 620.695 254.968C620.695 256.247 620.364 257.269 619.701 258.034C619.039 258.799 618.213 259.182 617.223 259.182C616.215 259.182 615.38 258.813 614.717 258.076C614.064 257.329 613.737 256.303 613.737 254.996ZM615.025 254.954C615.025 255.925 615.235 256.681 615.655 257.222C616.075 257.763 616.598 258.034 617.223 258.034C617.83 258.034 618.348 257.768 618.777 257.236C619.207 256.695 619.421 255.957 619.421 255.024C619.421 254.053 619.211 253.316 618.791 252.812C618.371 252.299 617.849 252.042 617.223 252.042C616.607 252.042 616.085 252.294 615.655 252.798C615.235 253.302 615.025 254.021 615.025 254.954ZM626.552 259H622.534L622.408 258.02H623.92V252.658L623.024 253.232L622.394 252.308L624.368 251.076H625.264V258.02H626.426L626.552 259ZM628.079 254.996C628.079 253.717 628.401 252.714 629.045 251.986C629.699 251.258 630.539 250.894 631.565 250.894C632.592 250.894 633.427 251.249 634.071 251.958C634.715 252.658 635.037 253.661 635.037 254.968C635.037 256.247 634.706 257.269 634.043 258.034C633.381 258.799 632.555 259.182 631.565 259.182C630.557 259.182 629.722 258.813 629.059 258.076C628.406 257.329 628.079 256.303 628.079 254.996ZM629.367 254.954C629.367 255.925 629.577 256.681 629.997 257.222C630.417 257.763 630.94 258.034 631.565 258.034C632.172 258.034 632.69 257.768 633.119 257.236C633.549 256.695 633.763 255.957 633.763 255.024C633.763 254.053 633.553 253.316 633.133 252.812C632.713 252.299 632.191 252.042 631.565 252.042C630.949 252.042 630.427 252.294 629.997 252.798C629.577 253.302 629.367 254.021 629.367 254.954ZM640.894 259H636.876L636.75 258.02H638.262V252.658L637.366 253.232L636.736 252.308L638.71 251.076H639.606V258.02H640.768L640.894 259ZM642.421 254.996C642.421 253.717 642.743 252.714 643.387 251.986C644.04 251.258 644.88 250.894 645.907 250.894C646.934 250.894 647.769 251.249 648.413 251.958C649.057 252.658 649.379 253.661 649.379 254.968C649.379 256.247 649.048 257.269 648.385 258.034C647.722 258.799 646.896 259.182 645.907 259.182C644.899 259.182 644.064 258.813 643.401 258.076C642.748 257.329 642.421 256.303 642.421 254.996ZM643.709 254.954C643.709 255.925 643.919 256.681 644.339 257.222C644.759 257.763 645.282 258.034 645.907 258.034C646.514 258.034 647.032 257.768 647.461 257.236C647.89 256.695 648.105 255.957 648.105 255.024C648.105 254.053 647.895 253.316 647.475 252.812C647.055 252.299 646.532 252.042 645.907 252.042C645.291 252.042 644.768 252.294 644.339 252.798C643.919 253.302 643.709 254.021 643.709 254.954ZM655.235 259H651.217L651.091 258.02H652.603V252.658L651.707 253.232L651.077 252.308L653.051 251.076H653.947V258.02H655.109L655.235 259ZM656.763 254.996C656.763 253.717 657.085 252.714 657.729 251.986C658.382 251.258 659.222 250.894 660.249 250.894C661.276 250.894 662.111 251.249 662.755 251.958C663.399 252.658 663.721 253.661 663.721 254.968C663.721 256.247 663.39 257.269 662.727 258.034C662.064 258.799 661.238 259.182 660.249 259.182C659.241 259.182 658.406 258.813 657.743 258.076C657.09 257.329 656.763 256.303 656.763 254.996ZM658.051 254.954C658.051 255.925 658.261 256.681 658.681 257.222C659.101 257.763 659.624 258.034 660.249 258.034C660.856 258.034 661.374 257.768 661.803 257.236C662.232 256.695 662.447 255.957 662.447 255.024C662.447 254.053 662.237 253.316 661.817 252.812C661.397 252.299 660.874 252.042 660.249 252.042C659.633 252.042 659.11 252.294 658.681 252.798C658.261 253.302 658.051 254.021 658.051 254.954ZM669.577 259H665.559L665.433 258.02H666.945V252.658L666.049 253.232L665.419 252.308L667.393 251.076H668.289V258.02H669.451L669.577 259Z" fill="#6B7C93"/>
<mask id="path-32-inside-1" fill="white">
<path fill-rule="evenodd" clip-rule="evenodd" d="M291 269C294.866 269 298 258.926 298 246.5C298 234.074 294.866 224 291 224H634C637.866 224 641 234.074 641 246.5C641 258.926 637.866 269 634 269H291Z"/>
</mask>
<path fill-rule="evenodd" clip-rule="evenodd" d="M291 269C294.866 269 298 258.926 298 246.5C298 234.074 294.866 224 291 224H634C637.866 224 641 234.074 641 246.5C641 258.926 637.866 269 634 269H291Z" fill="#42D185" fill-opacity="0.7"/>
<path d="M297 246.5C297 252.641 296.224 258.161 294.995 262.113C294.378 264.095 293.665 265.626 292.919 266.639C292.159 267.673 291.498 268 291 268V270C292.435 270 293.616 269.067 294.53 267.824C295.46 266.561 296.254 264.797 296.905 262.707C298.209 258.515 299 252.785 299 246.5H297ZM291 225C291.498 225 292.159 225.327 292.919 226.361C293.665 227.374 294.378 228.905 294.995 230.887C296.224 234.839 297 240.359 297 246.5H299C299 240.215 298.209 234.485 296.905 230.293C296.254 228.203 295.46 226.439 294.53 225.176C293.616 223.933 292.435 223 291 223V225ZM634 223H291V225H634V223ZM642 246.5C642 240.215 641.209 234.485 639.905 230.293C639.254 228.203 638.46 226.439 637.53 225.176C636.616 223.933 635.435 223 634 223V225C634.498 225 635.159 225.327 635.919 226.361C636.665 227.374 637.378 228.905 637.995 230.887C639.224 234.839 640 240.359 640 246.5H642ZM634 270C635.435 270 636.616 269.067 637.53 267.824C638.46 266.561 639.254 264.797 639.905 262.707C641.209 258.515 642 252.785 642 246.5H640C640 252.641 639.224 258.161 637.995 262.113C637.378 264.095 636.665 265.626 635.919 266.639C635.159 267.673 634.498 268 634 268V270ZM291 270H634V268H291V270Z" fill="#42D185" mask="url(#path-32-inside-1)"/>
<path d="M506.34 212.885C493.324 209.32 479.679 203.535 467.92 196.594C466.577 195.802 464.911 195.802 463.569 196.594C451.296 203.838 438.728 209.166 425.149 212.885C423.289 213.394 422 215.084 422 217.011V237.931C422 260.248 432.305 275.026 440.949 283.494C450.906 293.246 461.63 297.789 465.744 297.789C469.858 297.789 480.583 293.246 490.539 283.494C499.183 275.026 509.489 260.248 509.489 237.931V217.011C509.488 215.084 508.199 213.394 506.34 212.885Z" fill="#42D185"/>
<path d="M444.902 255L437.594 236.464L441.654 235.96L446.834 249.68L451.846 235.96H455.962L448.654 255H444.902ZM458.396 255V235.96H465.032C467.122 235.96 468.914 236.464 470.408 237.472C471.92 238.48 472.676 240.095 472.676 242.316C472.676 244.519 471.873 246.143 470.268 247.188C468.662 248.215 466.842 248.728 464.808 248.728H462.512V255H458.396ZM464.92 239.32H462.512V245.396H464.976C465.965 245.396 466.758 245.144 467.356 244.64C467.972 244.136 468.308 243.408 468.364 242.456C468.364 241.373 468.056 240.58 467.44 240.076C466.842 239.572 466.002 239.32 464.92 239.32ZM492.359 235.96V255H488.355L480.011 243.016V255H475.923V235.96H479.899L488.243 248.028V235.96H492.359Z" fill="white"/>
<path d="M668.333 9.67125C667.516 9.67125 666.855 9.0103 666.855 8.19383V1.47742C666.855 0.661697 667.516 0 668.333 0C669.149 0 669.81 0.661697 669.81 1.47742V8.19383C669.81 9.0103 669.149 9.67125 668.333 9.67125Z" fill="#4171D6"/>
<path d="M672.458 18.4954H664.207V11.1479C664.207 9.51649 665.53 8.19385 667.161 8.19385H669.504C671.135 8.19385 672.458 9.51649 672.458 11.1479V18.4954Z" fill="white" stroke="#4171D6" stroke-width="2"/>
<mask id="path-38-inside-2" fill="white">
<path d="M651.542 34.5429C651.542 25.2694 659.059 17.7522 668.333 17.7522C677.606 17.7522 685.123 25.2694 685.123 34.5429"/>
</mask>
<path d="M651.542 34.5429C651.542 25.2694 659.059 17.7522 668.333 17.7522C677.606 17.7522 685.123 25.2694 685.123 34.5429" fill="white"/>
<path d="M653.542 34.5429C653.542 26.3739 660.164 19.7522 668.333 19.7522V15.7522C657.955 15.7522 649.542 24.1648 649.542 34.5429H653.542ZM668.333 19.7522C676.501 19.7522 683.123 26.3739 683.123 34.5429H687.123C687.123 24.1649 678.71 15.7522 668.333 15.7522V19.7522Z" fill="#4171D6" mask="url(#path-38-inside-2)"/>
<path d="M688.841 44.8638H647.825V35.7062C647.825 34.1361 649.097 32.8635 650.667 32.8635H685.998C687.568 32.8635 688.841 34.1361 688.841 35.7062V44.8638Z" fill="#D8E7FE" stroke="#4171D6" stroke-width="2"/>
<path d="M692.229 47.5428V60.5584H644.436V47.5428C644.436 46.0631 645.636 44.8631 647.114 44.8631H689.551C691.031 44.8631 692.229 46.0631 692.229 47.5428Z" fill="white" stroke="#4171D6" stroke-width="2"/>
<path d="M692.229 58.598V87.679H644.436V58.598L668.332 51.3088L692.229 58.598Z" fill="white" stroke="#4171D6" stroke-width="2"/>
<path d="M644.436 60.5584V87.679H627.49V63.0893C627.49 61.6911 628.623 60.5584 630.022 60.5584H644.436Z" fill="white" stroke="#4171D6" stroke-width="2"/>
<path d="M709.174 63.0893V87.679H692.229V60.5584H706.645C708.041 60.5584 709.174 61.6911 709.174 63.0893Z" fill="white" stroke="#4171D6" stroke-width="2"/>
<path d="M646 66C646 66.5536 645.318 67 644.476 67H627V65H644.476C645.318 65 646 65.4479 646 66Z" fill="#4171D6"/>
<path d="M709 65V67H692.444C691.647 67 691 66.5536 691 66C691 65.4479 691.647 65 692.444 65H709Z" fill="#4171D6"/>
<path d="M692.51 67H644.49C643.667 67 643 66.5522 643 66.0003C643 65.4478 643.667 65 644.49 65H692.51C693.333 65 694 65.4478 694 66.0003C694 66.5522 693.333 67 692.51 67Z" fill="#4171D6"/>
<path d="M656.249 62.5435C655.615 62.5435 655.029 62.1323 654.835 61.4938C654.598 60.7132 655.039 59.8885 655.82 59.6515L668.008 55.9565C668.284 55.8727 668.578 55.8712 668.855 55.9535L681.367 59.6485C682.149 59.8795 682.597 60.7012 682.365 61.4841C682.134 62.2661 681.313 62.714 680.53 62.4822L668.442 58.912L656.678 62.4792C656.535 62.5226 656.39 62.5435 656.249 62.5435Z" fill="#4171D6"/>
<path d="M655 67.4657V88H653V67.4657C653 66.6564 653.448 66 654 66C654.552 66 655 66.6564 655 67.4657Z" fill="#4171D6"/>
<path d="M665 67.4657V88H663V67.4657C663 66.6564 663.448 66 664 66C664.552 66 665 66.6564 665 67.4657Z" fill="#4171D6"/>
<path d="M674 66.5323V88H672V66.5323C672 65.6863 672.448 65 673 65C673.552 65 674 65.6863 674 66.5323Z" fill="#4171D6"/>
<path d="M684 66.5323V88H682V66.5323C682 65.6863 682.448 65 683 65C683.553 65 684 65.6863 684 66.5323Z" fill="#4171D6"/>
<path d="M653.684 41.6742C652.868 41.6742 652.206 41.0133 652.206 40.1968V38.048C652.206 37.2315 652.868 36.5706 653.684 36.5706C654.5 36.5706 655.162 37.2315 655.162 38.048V40.1968C655.162 41.0133 654.5 41.6742 653.684 41.6742Z" fill="#4171D6"/>
<path d="M659.543 41.6742C658.727 41.6742 658.066 41.0133 658.066 40.1968V38.048C658.066 37.2315 658.727 36.5706 659.543 36.5706C660.36 36.5706 661.021 37.2315 661.021 38.048V40.1968C661.021 41.0133 660.36 41.6742 659.543 41.6742Z" fill="#4171D6"/>
<path d="M665.403 41.6742C664.587 41.6742 663.925 41.0133 663.925 40.1968V38.048C663.925 37.2315 664.587 36.5706 665.403 36.5706C666.219 36.5706 666.88 37.2315 666.88 38.048V40.1968C666.881 41.0133 666.219 41.6742 665.403 41.6742Z" fill="#4171D6"/>
<path d="M671.262 41.6742C670.447 41.6742 669.785 41.0133 669.785 40.1968V38.048C669.785 37.2315 670.447 36.5706 671.262 36.5706C672.078 36.5706 672.74 37.2315 672.74 38.048V40.1968C672.74 41.0133 672.078 41.6742 671.262 41.6742Z" fill="#4171D6"/>
<path d="M677.122 41.6742C676.306 41.6742 675.644 41.0133 675.644 40.1968V38.048C675.644 37.2315 676.306 36.5706 677.122 36.5706C677.938 36.5706 678.599 37.2315 678.599 38.048V40.1968C678.599 41.0133 677.938 41.6742 677.122 41.6742Z" fill="#4171D6"/>
<path d="M682.981 41.6742C682.166 41.6742 681.504 41.0133 681.504 40.1968V38.048C681.504 37.2315 682.166 36.5706 682.981 36.5706C683.797 36.5706 684.459 37.2315 684.459 38.048V40.1968C684.459 41.0133 683.797 41.6742 682.981 41.6742Z" fill="#4171D6"/>
<path d="M622 93C622 89.6863 624.686 87 628 87H709C712.314 87 715 89.6863 715 93V98H622V93Z" fill="#D8E7FE" stroke="#4171D6" stroke-width="2"/>
<path d="M201.777 65.6176L201.777 65.6176C204.326 53.7006 214.027 44.6191 226.152 42.7425C226.149 42.7429 226.151 42.7428 226.156 42.7423C226.17 42.7411 226.216 42.737 226.309 42.7318C226.421 42.7256 226.572 42.7194 226.762 42.7132C227.142 42.7008 227.66 42.6892 228.3 42.6784C229.58 42.6568 231.331 42.6388 233.398 42.6244C237.532 42.5955 242.922 42.5811 248.312 42.5811C253.702 42.5811 259.092 42.5955 263.226 42.6244C265.293 42.6388 267.044 42.6568 268.323 42.6784C268.964 42.6892 269.482 42.7008 269.862 42.7132C270.052 42.7194 270.203 42.7256 270.315 42.7318C270.408 42.737 270.454 42.7411 270.468 42.7423C270.473 42.7428 270.474 42.7429 270.472 42.7425C282.597 44.6191 292.298 53.7006 294.847 65.6176L299.391 86.8638C300.56 92.3292 297.208 97.7422 291.737 99.1777L282.11 101.704H214.514L204.887 99.1777C199.416 97.7422 196.063 92.3292 197.232 86.8638L201.777 65.6176Z" fill="white" stroke="#4171D6" stroke-width="2"/>
<path d="M262.719 59.3466C271.593 49.1902 274.729 39.5032 275.006 38.6486C275.012 38.6275 275.018 38.6118 275.021 38.6016C275.236 37.9644 275.236 37.2747 275.025 36.6355M262.719 59.3466V58.3466H262.263M262.719 59.3466H233.904M262.719 59.3466L261.966 58.6887C262.066 58.5746 262.165 58.4606 262.263 58.3466M262.263 58.3466C270.786 48.4578 273.803 39.1201 274.058 38.3293C274.064 38.3098 274.069 38.2955 274.072 38.2865L274.073 38.2817C274.218 37.8529 274.219 37.3863 274.076 36.9508M262.263 58.3466H234.361M274.076 36.9508L274.077 36.9525L275.025 36.6355M274.076 36.9508C274.076 36.9501 274.076 36.9495 274.076 36.9488L275.025 36.6355M274.076 36.9508L274.076 36.9494C273.959 36.6006 271.43 29.0337 267.171 21.3602L267.171 21.36C260.955 10.1556 254.463 4.99721 248.307 5.00031C242.15 5.00341 235.662 10.169 229.453 21.36L229.453 21.3602C225.194 29.0338 222.665 36.6007 222.548 36.9494L222.547 36.9525L221.599 36.6355L222.549 36.9488C222.405 37.3848 222.406 37.8522 222.551 38.2817L222.552 38.287C222.555 38.2958 222.56 38.3098 222.566 38.3289C222.819 39.1131 225.834 48.4541 234.361 58.3466M275.025 36.6355L275.024 36.6322C274.901 36.2647 272.349 28.6291 268.045 20.8749L221.603 38.6016C221.606 38.6116 221.611 38.627 221.618 38.6477C221.892 39.4958 225.027 49.1863 233.904 59.3466M234.361 58.3466H233.904V59.3466M234.361 58.3466C234.459 58.4606 234.558 58.5746 234.657 58.6887L233.904 59.3466" fill="#D8E7FE" stroke="#4171D6" stroke-width="2"/>
<path d="M235.992 43.1967C234.663 37.0405 234.02 33.8935 233.721 32.1983C233.597 31.5006 233.536 31.0698 233.507 30.7873C237.465 29.7321 242.867 29.1922 248.317 29.1927C253.767 29.1932 259.164 29.7342 263.116 30.7879C263.088 31.0682 263.027 31.4955 262.905 32.1863C262.606 33.8784 261.964 37.0265 260.631 43.1967C259.399 48.902 254.219 53.059 248.312 53.059C242.405 53.059 237.225 48.902 235.992 43.1967Z" fill="white" stroke="#4171D6" stroke-width="2"/>
<path d="M213.031 102.687V97.2098H283.593V102.687C283.593 106.165 280.744 109 277.21 109H219.413C215.879 109 213.031 106.165 213.031 102.687Z" fill="#D8E7FE" stroke="#4171D6" stroke-width="2"/>
<path d="M217.304 58.3019H279.32C281.689 58.3019 283.593 60.2019 283.593 62.5255V97.2545H213.031V62.5255C213.031 60.2019 214.935 58.3019 217.304 58.3019Z" fill="white" stroke="#4171D6" stroke-width="2"/>
<path d="M253.796 74.6441H242.827C241.08 74.6441 239.663 76.0472 239.663 77.7782C239.663 79.5093 241.08 80.9124 242.827 80.9124H253.796C255.544 80.9124 256.96 79.5093 256.96 77.7782C256.96 76.0472 255.544 74.6441 253.796 74.6441Z" fill="#4171D6"/>
<path d="M273.854 38.9243C272.335 35.0938 269.105 32.7949 265.127 31.4162C260.297 29.7426 254.209 29.359 248.344 29.1713L248.312 29.1702L248.28 29.1713C242.414 29.359 236.326 29.7431 231.496 31.4173C227.518 32.7964 224.288 35.0957 222.769 38.9264C222.668 38.6541 222.593 38.4217 222.54 38.217C222.386 37.631 222.422 37.3321 222.548 36.9488L221.599 36.6355L222.547 36.9525L222.548 36.9494C222.665 36.6007 225.194 29.0338 229.453 21.3602L229.453 21.36C235.662 10.1688 242.15 5.0031 248.307 5C254.463 4.9969 260.955 10.1553 267.171 21.36L267.171 21.3602C271.43 29.0337 273.959 36.6006 274.076 36.9494L273.854 38.9243Z" fill="white" stroke="#4171D6" stroke-width="2"/>
<path d="M497.357 73.102H431C429.343 73.102 428 74.4451 428 76.102V95.951C428 97.6078 429.343 98.951 431 98.951H497.357C499.014 98.951 500.357 97.6078 500.357 95.951V76.102C500.357 74.4451 499.014 73.102 497.357 73.102Z" fill="white" stroke="#4171D6" stroke-width="2"/>
<path d="M491.023 85.043C491.671 85.043 492.196 84.5156 492.196 83.865C492.196 83.2144 491.671 82.687 491.023 82.687C490.375 82.687 489.85 83.2144 489.85 83.865C489.85 84.5156 490.375 85.043 491.023 85.043Z" fill="#42D185"/>
<path d="M486.269 85.043C486.917 85.043 487.442 84.5156 487.442 83.865C487.442 83.2144 486.917 82.687 486.269 82.687C485.621 82.687 485.096 83.2144 485.096 83.865C485.096 84.5156 485.621 85.043 486.269 85.043Z" fill="#42D185"/>
<path d="M492.924 88.859C493.572 88.859 494.097 88.3316 494.097 87.681C494.097 87.0304 493.572 86.503 492.924 86.503C492.276 86.503 491.751 87.0304 491.751 87.681C491.751 88.3316 492.276 88.859 492.924 88.859Z" fill="#4171D6"/>
<path d="M488.17 88.859C488.818 88.859 489.343 88.3316 489.343 87.681C489.343 87.0304 488.818 86.503 488.17 86.503C487.522 86.503 486.997 87.0304 486.997 87.681C486.997 88.3316 487.522 88.859 488.17 88.859Z" fill="#4171D6"/>
<path d="M481.515 85.043C482.163 85.043 482.688 84.5156 482.688 83.865C482.688 83.2144 482.163 82.687 481.515 82.687C480.867 82.687 480.342 83.2144 480.342 83.865C480.342 84.5156 480.867 85.043 481.515 85.043Z" fill="#42D185"/>
<path d="M484.367 88.859C485.015 88.859 485.54 88.3316 485.54 87.681C485.54 87.0304 485.015 86.503 484.367 86.503C483.719 86.503 483.194 87.0304 483.194 87.681C483.194 88.3316 483.719 88.859 484.367 88.859Z" fill="#4171D6"/>
<path d="M476.761 85.043C477.409 85.043 477.934 84.5156 477.934 83.865C477.934 83.2144 477.409 82.687 476.761 82.687C476.113 82.687 475.588 83.2144 475.588 83.865C475.588 84.5156 476.113 85.043 476.761 85.043Z" fill="#42D185"/>
<path d="M479.613 88.859C480.261 88.859 480.786 88.3316 480.786 87.681C480.786 87.0304 480.261 86.503 479.613 86.503C478.965 86.503 478.44 87.0304 478.44 87.681C478.44 88.3316 478.965 88.859 479.613 88.859Z" fill="#4171D6"/>
<path d="M472.007 85.043C472.655 85.043 473.18 84.5156 473.18 83.865C473.18 83.2144 472.655 82.687 472.007 82.687C471.359 82.687 470.834 83.2144 470.834 83.865C470.834 84.5156 471.359 85.043 472.007 85.043Z" fill="#42D185"/>
<path d="M474.859 88.859C475.507 88.859 476.032 88.3316 476.032 87.681C476.032 87.0304 475.507 86.503 474.859 86.503C474.211 86.503 473.686 87.0304 473.686 87.681C473.686 88.3316 474.211 88.859 474.859 88.859Z" fill="#4171D6"/>
<path d="M439.934 91.273C442.822 91.273 445.163 88.9238 445.163 86.026C445.163 83.1282 442.822 80.779 439.934 80.779C437.046 80.779 434.705 83.1282 434.705 86.026C434.705 88.9238 437.046 91.273 439.934 91.273Z" fill="#D8E7FE" stroke="#4171D6" stroke-width="2"/>
<path d="M497.357 45.928H431C429.343 45.928 428 47.2712 428 48.928V68.777C428 70.4339 429.343 71.777 431 71.777H497.357C499.014 71.777 500.357 70.4339 500.357 68.777V48.928C500.357 47.2712 499.014 45.928 497.357 45.928Z" fill="white" stroke="#4171D6" stroke-width="2"/>
<path d="M491.023 57.869C491.671 57.869 492.196 57.3416 492.196 56.691C492.196 56.0404 491.671 55.513 491.023 55.513C490.375 55.513 489.85 56.0404 489.85 56.691C489.85 57.3416 490.375 57.869 491.023 57.869Z" fill="#42D185"/>
<path d="M486.269 57.869C486.917 57.869 487.442 57.3416 487.442 56.691C487.442 56.0404 486.917 55.513 486.269 55.513C485.621 55.513 485.096 56.0404 485.096 56.691C485.096 57.3416 485.621 57.869 486.269 57.869Z" fill="#42D185"/>
<path d="M492.924 61.685C493.572 61.685 494.097 61.1576 494.097 60.507C494.097 59.8564 493.572 59.329 492.924 59.329C492.276 59.329 491.751 59.8564 491.751 60.507C491.751 61.1576 492.276 61.685 492.924 61.685Z" fill="#4171D6"/>
<path d="M488.17 61.685C488.818 61.685 489.343 61.1576 489.343 60.507C489.343 59.8564 488.818 59.329 488.17 59.329C487.522 59.329 486.997 59.8564 486.997 60.507C486.997 61.1576 487.522 61.685 488.17 61.685Z" fill="#4171D6"/>
<path d="M481.515 57.869C482.163 57.869 482.688 57.3416 482.688 56.691C482.688 56.0404 482.163 55.513 481.515 55.513C480.867 55.513 480.342 56.0404 480.342 56.691C480.342 57.3416 480.867 57.869 481.515 57.869Z" fill="#42D185"/>
<path d="M484.367 61.685C485.015 61.685 485.54 61.1576 485.54 60.507C485.54 59.8564 485.015 59.329 484.367 59.329C483.719 59.329 483.194 59.8564 483.194 60.507C483.194 61.1576 483.719 61.685 484.367 61.685Z" fill="#4171D6"/>
<path d="M476.761 57.869C477.409 57.869 477.934 57.3416 477.934 56.691C477.934 56.0404 477.409 55.513 476.761 55.513C476.113 55.513 475.588 56.0404 475.588 56.691C475.588 57.3416 476.113 57.869 476.761 57.869Z" fill="#42D185"/>
<path d="M479.613 61.685C480.261 61.685 480.786 61.1576 480.786 60.507C480.786 59.8564 480.261 59.329 479.613 59.329C478.965 59.329 478.44 59.8564 478.44 60.507C478.44 61.1576 478.965 61.685 479.613 61.685Z" fill="#4171D6"/>
<path d="M472.007 57.869C472.655 57.869 473.18 57.3416 473.18 56.691C473.18 56.0404 472.655 55.513 472.007 55.513C471.359 55.513 470.834 56.0404 470.834 56.691C470.834 57.3416 471.359 57.869 472.007 57.869Z" fill="#42D185"/>
<path d="M474.859 61.685C475.507 61.685 476.032 61.1576 476.032 60.507C476.032 59.8564 475.507 59.329 474.859 59.329C474.211 59.329 473.686 59.8564 473.686 60.507C473.686 61.1576 474.211 61.685 474.859 61.685Z" fill="#4171D6"/>
<path d="M439.934 64.099C442.822 64.099 445.163 61.7498 445.163 58.852C445.163 55.9542 442.822 53.605 439.934 53.605C437.046 53.605 434.705 55.9542 434.705 58.852C434.705 61.7498 437.046 64.099 439.934 64.099Z" fill="#D8E7FE" stroke="#4171D6" stroke-width="2"/>
<path d="M497.357 19H431C429.343 19 428 20.3431 428 22V41.849C428 43.5059 429.343 44.849 431 44.849H497.357C499.014 44.849 500.357 43.5059 500.357 41.849V22C500.357 20.3431 499.014 19 497.357 19Z" fill="white" stroke="#4171D6" stroke-width="2"/>
<path d="M491.023 30.941C491.671 30.941 492.196 30.4136 492.196 29.763C492.196 29.1124 491.671 28.585 491.023 28.585C490.375 28.585 489.85 29.1124 489.85 29.763C489.85 30.4136 490.375 30.941 491.023 30.941Z" fill="#42D185"/>
<path d="M486.269 30.941C486.917 30.941 487.442 30.4136 487.442 29.763C487.442 29.1124 486.917 28.585 486.269 28.585C485.621 28.585 485.096 29.1124 485.096 29.763C485.096 30.4136 485.621 30.941 486.269 30.941Z" fill="#42D185"/>
<path d="M492.924 34.757C493.572 34.757 494.097 34.2296 494.097 33.579C494.097 32.9284 493.572 32.401 492.924 32.401C492.276 32.401 491.751 32.9284 491.751 33.579C491.751 34.2296 492.276 34.757 492.924 34.757Z" fill="#4171D6"/>
<path d="M488.17 34.757C488.818 34.757 489.343 34.2296 489.343 33.579C489.343 32.9284 488.818 32.401 488.17 32.401C487.522 32.401 486.997 32.9284 486.997 33.579C486.997 34.2296 487.522 34.757 488.17 34.757Z" fill="#4171D6"/>
<path d="M481.515 30.941C482.163 30.941 482.688 30.4136 482.688 29.763C482.688 29.1124 482.163 28.585 481.515 28.585C480.867 28.585 480.342 29.1124 480.342 29.763C480.342 30.4136 480.867 30.941 481.515 30.941Z" fill="#42D185"/>
<path d="M484.367 34.757C485.015 34.757 485.54 34.2296 485.54 33.579C485.54 32.9284 485.015 32.401 484.367 32.401C483.719 32.401 483.194 32.9284 483.194 33.579C483.194 34.2296 483.719 34.757 484.367 34.757Z" fill="#4171D6"/>
<path d="M476.761 30.941C477.409 30.941 477.934 30.4136 477.934 29.763C477.934 29.1124 477.409 28.585 476.761 28.585C476.113 28.585 475.588 29.1124 475.588 29.763C475.588 30.4136 476.113 30.941 476.761 30.941Z" fill="#42D185"/>
<path d="M479.613 34.757C480.261 34.757 480.786 34.2296 480.786 33.579C480.786 32.9284 480.261 32.401 479.613 32.401C478.965 32.401 478.44 32.9284 478.44 33.579C478.44 34.2296 478.965 34.757 479.613 34.757Z" fill="#4171D6"/>
<path d="M472.007 30.941C472.655 30.941 473.18 30.4136 473.18 29.763C473.18 29.1124 472.655 28.585 472.007 28.585C471.359 28.585 470.834 29.1124 470.834 29.763C470.834 30.4136 471.359 30.941 472.007 30.941Z" fill="#42D185"/>
<path d="M474.859 34.757C475.507 34.757 476.032 34.2296 476.032 33.579C476.032 32.9284 475.507 32.401 474.859 32.401C474.211 32.401 473.686 32.9284 473.686 33.579C473.686 34.2296 474.211 34.757 474.859 34.757Z" fill="#4171D6"/>
<path d="M439.934 37.171C442.822 37.171 445.163 34.8218 445.163 31.924C445.163 29.0262 442.822 26.677 439.934 26.677C437.046 26.677 434.705 29.0262 434.705 31.924C434.705 34.8218 437.046 37.171 439.934 37.171Z" fill="#D8E7FE" stroke="#4171D6" stroke-width="2"/>
<path d="M308.386 129.942C308.999 130.206 309.694 129.808 309.775 129.146L310.776 120.984C310.876 120.166 310 119.584 309.286 119.994L300.733 124.9C300.019 125.31 300.079 126.36 300.835 126.686L308.386 129.942Z" fill="#D14242"/>
<path d="M316.472 144.038C317.084 144.302 317.779 143.904 317.86 143.241L318.862 135.079C318.962 134.262 318.086 133.68 317.371 134.09L308.819 138.996C308.104 139.406 308.164 140.455 308.921 140.782L316.472 144.038Z" fill="#D14242"/>
<path d="M324.557 158.134C325.17 158.398 325.865 157.999 325.946 157.337L326.947 149.175C327.047 148.357 326.171 147.776 325.457 148.186L316.904 153.091C316.19 153.501 316.25 154.551 317.006 154.877L324.557 158.134Z" fill="#D14242"/>
<path d="M332.643 172.229C333.255 172.493 333.95 172.095 334.031 171.433L335.033 163.27C335.133 162.453 334.257 161.871 333.542 162.281L324.99 167.187C324.275 167.597 324.335 168.647 325.092 168.973L332.643 172.229Z" fill="#D14242"/>
<path d="M340.728 186.325C341.341 186.589 342.035 186.191 342.117 185.528L343.118 177.366C343.218 176.548 342.342 175.967 341.628 176.377L333.075 181.283C332.361 181.693 332.421 182.742 333.177 183.068L340.728 186.325Z" fill="#D14242"/>
<path d="M628.663 129.942C628.05 130.206 627.356 129.808 627.275 129.146L626.273 120.984C626.173 120.166 627.049 119.584 627.763 119.994L636.316 124.9C637.03 125.31 636.971 126.36 636.214 126.686L628.663 129.942Z" fill="#D14242"/>
<path d="M620.578 144.038C619.965 144.302 619.27 143.904 619.189 143.241L618.188 135.079C618.088 134.262 618.963 133.68 619.678 134.09L628.23 138.996C628.945 139.406 628.885 140.455 628.129 140.782L620.578 144.038Z" fill="#D14242"/>
<path d="M612.492 158.134C611.88 158.398 611.185 157.999 611.104 157.337L610.102 149.175C610.002 148.357 610.878 147.776 611.592 148.186L620.145 153.091C620.859 153.501 620.8 154.551 620.043 154.877L612.492 158.134Z" fill="#D14242"/>
<path d="M604.407 172.229C603.794 172.493 603.099 172.095 603.018 171.433L602.017 163.27C601.917 162.453 602.792 161.871 603.507 162.281L612.059 167.187C612.774 167.597 612.714 168.647 611.958 168.973L604.407 172.229Z" fill="#D14242"/>
<path d="M596.321 186.325C595.709 186.589 595.014 186.191 594.933 185.528L593.931 177.366C593.831 176.548 594.707 175.967 595.421 176.377L603.974 181.283C604.688 181.693 604.629 182.742 603.872 183.068L596.321 186.325Z" fill="#D14242"/>
<path d="M465.729 122.181C465.329 122.715 464.528 122.715 464.128 122.181L459.198 115.599C458.704 114.94 459.175 114 459.998 114L469.858 114C470.682 114 471.152 114.94 470.658 115.599L465.729 122.181Z" fill="#D14242"/>
<path d="M465.729 138.431C465.329 138.965 464.528 138.965 464.128 138.431L459.198 131.849C458.704 131.19 459.175 130.25 459.998 130.25L469.858 130.25C470.682 130.25 471.152 131.19 470.658 131.849L465.729 138.431Z" fill="#D14242"/>
<path d="M465.729 154.681C465.329 155.215 464.528 155.215 464.128 154.681L459.198 148.099C458.704 147.44 459.175 146.5 459.998 146.5L469.858 146.5C470.682 146.5 471.152 147.44 470.658 148.099L465.729 154.681Z" fill="#D14242"/>
<path d="M352 194C346.48 194 342 198.48 342 204C342 209.52 346.48 214 352 214C357.52 214 362 209.52 362 204C362 198.48 357.52 194 352 194ZM352 212C347.58 212 344 208.42 344 204C344 202.15 344.63 200.45 345.69 199.1L356.9 210.31C355.55 211.37 353.85 212 352 212ZM358.31 208.9L347.1 197.69C348.45 196.63 350.15 196 352 196C356.42 196 360 199.58 360 204C360 205.85 359.37 207.55 358.31 208.9Z" fill="#D14242"/>
<path d="M586 194C580.48 194 576 198.48 576 204C576 209.52 580.48 214 586 214C591.52 214 596 209.52 596 204C596 198.48 591.52 194 586 194ZM586 212C581.58 212 578 208.42 578 204C578 202.15 578.63 200.45 579.69 199.1L590.9 210.31C589.55 211.37 587.85 212 586 212ZM592.31 208.9L581.1 197.69C582.45 196.63 584.15 196 586 196C590.42 196 594 199.58 594 204C594 205.85 593.37 207.55 592.31 208.9Z" fill="#D14242"/>
<path d="M466 170C460.48 170 456 174.48 456 180C456 185.52 460.48 190 466 190C471.52 190 476 185.52 476 180C476 174.48 471.52 170 466 170ZM466 188C461.58 188 458 184.42 458 180C458 178.15 458.63 176.45 459.69 175.1L470.9 186.31C469.55 187.37 467.85 188 466 188ZM472.31 184.9L461.1 173.69C462.45 172.63 464.15 172 466 172C470.42 172 474 175.58 474 180C474 181.85 473.37 183.55 472.31 184.9Z" fill="#D14242"/>
<circle cx="780" cy="317" r="16" fill="#4171D6"/>
<path d="M777.6 327H774V307.07L777.6 317.02V327ZM781.829 327V326.972L778.25 317.017L774.64 307.059H778.229V307.07L781.815 317.034L785.426 327H781.829ZM786 326.93L782.4 316.979V307H786V326.93Z" fill="white"/>
<circle cx="851" cy="247" r="14" fill="white"/>
<path d="M854.062 247C854.062 248.691 852.691 250.062 851 250.062C849.309 250.062 847.938 248.691 847.938 247C847.938 245.309 849.309 243.938 851 243.938C852.691 243.938 854.062 245.309 854.062 247Z" fill="#4171D6"/>
<path d="M858.162 241.582C858.015 241.183 857.78 240.822 857.475 240.525C857.178 240.22 856.818 239.985 856.418 239.838C856.095 239.712 855.608 239.563 854.713 239.522C853.744 239.478 853.453 239.468 851 239.468C848.547 239.468 848.256 239.477 847.287 239.521C846.392 239.562 845.905 239.712 845.582 239.838C845.182 239.985 844.821 240.22 844.525 240.525C844.22 240.822 843.985 241.182 843.838 241.582C843.712 241.905 843.562 242.392 843.521 243.288C843.477 244.256 843.468 244.547 843.468 247C843.468 249.453 843.477 249.744 843.521 250.713C843.562 251.609 843.712 252.095 843.838 252.419C843.985 252.818 844.22 253.179 844.525 253.475C844.821 253.78 845.182 254.015 845.581 254.162C845.905 254.288 846.392 254.438 847.287 254.479C848.256 254.523 848.546 254.532 851 254.532C853.453 254.532 853.744 254.523 854.712 254.479C855.608 254.438 856.095 254.288 856.418 254.162C857.22 253.853 857.853 253.22 858.162 252.419C858.288 252.095 858.438 251.609 858.479 250.713C858.523 249.744 858.532 249.453 858.532 247C858.532 244.547 858.523 244.256 858.479 243.288C858.438 242.392 858.288 241.905 858.162 241.582ZM851 251.718C848.394 251.718 846.282 249.606 846.282 247C846.282 244.394 848.394 242.282 851 242.282C853.605 242.282 855.718 244.394 855.718 247C855.718 249.606 853.605 251.718 851 251.718ZM855.904 243.198C855.295 243.198 854.802 242.705 854.802 242.096C854.802 241.487 855.295 240.993 855.904 240.993C856.513 240.993 857.007 241.487 857.007 242.096C857.007 242.705 856.513 243.198 855.904 243.198Z" fill="#4171D6"/>
<path d="M851 231C842.165 231 835 238.165 835 247C835 255.835 842.165 263 851 263C859.835 263 867 255.835 867 247C867 238.165 859.835 231 851 231ZM860.132 250.788C860.088 251.766 859.932 252.434 859.705 253.018C859.228 254.252 858.252 255.228 857.018 255.705C856.434 255.932 855.766 256.087 854.788 256.132C853.808 256.177 853.495 256.188 851 256.188C848.505 256.188 848.192 256.177 847.212 256.132C846.234 256.087 845.566 255.932 844.982 255.705C844.369 255.474 843.814 255.113 843.355 254.645C842.887 254.187 842.526 253.631 842.295 253.018C842.068 252.434 841.913 251.766 841.868 250.788C841.823 249.808 841.812 249.495 841.812 247C841.812 244.505 841.823 244.192 841.868 243.212C841.912 242.234 842.068 241.566 842.295 240.982C842.525 240.369 842.887 239.813 843.355 239.355C843.813 238.887 844.369 238.526 844.982 238.295C845.566 238.068 846.234 237.913 847.212 237.868C848.192 237.823 848.505 237.812 851 237.812C853.495 237.812 853.808 237.823 854.788 237.868C855.766 237.913 856.434 238.068 857.018 238.295C857.631 238.525 858.187 238.887 858.646 239.355C859.113 239.814 859.475 240.369 859.705 240.982C859.932 241.566 860.088 242.234 860.132 243.212C860.177 244.192 860.188 244.505 860.188 247C860.188 249.495 860.177 249.808 860.132 250.788Z" fill="#4171D6"/>
<circle cx="710" cy="247" r="14" fill="white"/>
<path d="M708.007 249.998L713.212 247L708.007 244.002V249.998Z" fill="#4171D6"/>
<path d="M710 231C701.165 231 694 238.165 694 247C694 255.835 701.165 263 710 263C718.835 263 726 255.835 726 247C726 238.165 718.835 231 710 231ZM719.998 247.016C719.998 247.016 719.998 250.261 719.586 251.826C719.355 252.682 718.68 253.358 717.823 253.588C716.259 254 710 254 710 254C710 254 703.758 254 702.177 253.572C701.32 253.341 700.645 252.666 700.414 251.809C700.002 250.261 700.002 247 700.002 247C700.002 247 700.002 243.755 700.414 242.191C700.645 241.334 701.336 240.642 702.177 240.412C703.741 240 710 240 710 240C710 240 716.259 240 717.823 240.428C718.68 240.659 719.355 241.334 719.586 242.191C720.014 243.755 719.998 247.016 719.998 247.016Z" fill="#4171D6"/>
</svg>
