<svg width="198" height="57" viewBox="0 0 198 57" fill="none" xmlns="http://www.w3.org/2000/svg">
<path fill-rule="evenodd" clip-rule="evenodd" d="M190.742 10H188.836H143.131H136.744H133.387H127C130.953 21.3503 134.905 32.7005 138.866 44.0508L140.187 47.836L140.94 50H146.563H189.6H192.072H195.223C195.99 50 196.684 49.6822 197.186 49.1686C197.689 48.6552 198 47.9455 198 47.162V44.9983V43.664V15.0017V12.8377C198 12.0542 197.689 11.3445 197.187 10.8312C196.684 10.3178 195.99 10 195.223 10H190.742Z" fill="#42D185"/>
<path fill-rule="evenodd" clip-rule="evenodd" d="M109 7L123.637 49.446L118.835 49.4691L131 57L113.71 7H109Z" fill="#4171D6"/>
<path fill-rule="evenodd" clip-rule="evenodd" d="M132.29 50H137L122.363 7.55372L127.165 7.53066L115 0L132.29 50Z" fill="#42D185"/>
<path fill-rule="evenodd" clip-rule="evenodd" d="M6.04374 7H2.78693C2.01746 7 1.32045 7.31782 0.816292 7.83145C0.311858 8.34479 0 9.05421 0 9.8377V12.5321V41.9985V44.1623C0 44.9458 0.311858 45.6552 0.816292 46.1686C1.32045 46.6825 2.01746 47 2.78693 47H6.64293H120C116.156 36.003 112.313 25.0061 108.469 14.0088L106.775 9.16375C106.513 8.44269 106.262 7.72106 106.009 7H6.04374Z" fill="#4171D6"/>
<path fill-rule="evenodd" clip-rule="evenodd" d="M12.0123 32.3639C13.6107 32.891 15.3245 33.1945 17.1538 33.275C19.1427 33.275 20.1374 32.6229 20.1374 31.3187C20.1374 30.354 19.3292 29.702 17.7132 29.3625C13.5574 28.8981 11.4795 27.0041 11.4795 23.6813C11.4795 19.894 13.8106 18 18.4723 18C20.2216 18 21.8824 18.3486 23.4539 19.0451L22.5482 22.4886C21.1185 21.9795 19.76 21.725 18.4723 21.725C16.3856 21.725 15.3424 22.3771 15.3424 23.6813C15.3424 24.6371 16.1948 25.2892 17.8995 25.6375C21.9663 26.111 24 28.0047 24 31.3187C24 35.1062 21.7134 37 17.1404 37C14.8405 37 12.7935 36.638 11 35.9144L12.0123 32.3639Z" fill="#FEFEFE"/>
<path fill-rule="evenodd" clip-rule="evenodd" d="M25 18H29.1458L31.6756 30.1261L35.225 18H38.7747L42.3377 30.1395L44.8675 18H49L44.6289 37H40.5494L37 25.6777L33.4768 37H29.3708L25 18Z" fill="#FEFEFE"/>
<path fill-rule="evenodd" clip-rule="evenodd" d="M50 37H54V18H50V37Z" fill="#FEFEFE"/>
<path fill-rule="evenodd" clip-rule="evenodd" d="M56 18H69V21.725H64.404V37H60.596V21.725H56V18Z" fill="#FEFEFE"/>
<path fill-rule="evenodd" clip-rule="evenodd" d="M84.7238 22.4753C83.2791 21.9753 81.6746 21.7248 79.911 21.7248C77.2074 21.7248 75.8559 23.65 75.8559 27.5C75.8559 31.3503 77.2074 33.2752 79.911 33.2752C81.6658 33.2752 83.2746 33.025 84.7371 32.5247L85.9604 35.8345C84.0012 36.6115 81.9848 37 79.911 37C74.6371 37 72 33.8334 72 27.5C72 21.1669 74.6371 18 79.911 18C82.0292 18 84.0589 18.3931 86 19.1789L84.7238 22.4753Z" fill="#FEFEFE"/>
<path fill-rule="evenodd" clip-rule="evenodd" d="M87 18H90.9041V25.6375H97.0962V18H101V37H97.0962V29.3622H90.9041V37H87V18Z" fill="#FEFEFE"/>
<path fill-rule="evenodd" clip-rule="evenodd" d="M142 21H146.121L149.993 34.1448L153.879 21H158L151.995 40H147.992L142 21Z" fill="#FEFEFE"/>
<path fill-rule="evenodd" clip-rule="evenodd" d="M161.904 24.7249V29.9103H164.663C166.951 29.9103 168.096 29.0439 168.096 27.3107C168.096 25.5869 166.951 24.7249 164.663 24.7249H161.904ZM158 21H164.663C169.554 21 172 23.1036 172 27.3107C172 31.5273 169.554 33.6352 164.663 33.6352H161.904V40H158V21Z" fill="#FEFEFE"/>
<path fill-rule="evenodd" clip-rule="evenodd" d="M175 21H178.648L185.096 31.974V21H189V40H185.352L178.904 29.026V40H175V21Z" fill="#FEFEFE"/>
</svg>
